{
.appVersion = "3091";
DisplayStrings = (
"/vowelShortA.dv",
"/uni0900"
);
copyright = "Copyright 2016 The Jaini Project Authors (https://github.com/EkType/Jaini)";
customParameters = (
{
name = fsType;
value = (
);
},
{
name = "Use Typo Metrics";
value = 1;
},
{
name = license;
value = "This Font Software is licensed under the SIL Open Font License, Version 1.1. This license is available with a FAQ at: http://scripts.sil.org/OFL";
},
{
name = licenseURL;
value = "https://scripts.sil.org/OFL";
}
);
date = "2021-11-25 13:35:02 +0000";
designer = "Girish Dalvi, Maithili Shingre";
familyName = Jaini;
featurePrefixes = (
{
code = "languagesystem DFLT dflt;\012languagesystem latn dflt;\012languagesystem dev2 dflt;\012languagesystem dev2 MAR;\012languagesystem dev2 HIN;\012languagesystem deva dflt;\012languagesystem deva MAR;\012languagesystem deva HIN;";
name = Languagesystems;
},
{

glyphs = (
{
glyphname = vowelA.dv;
layers = (
{
associatedMasterId = "1BB6288A-6CCF-4A5F-A7E1-DC794ABD1039";
layerId = "0044B45C-B520-4603-9C87-4A7BFDD17C6A";
name = public.background;
width = 609;
},
{
layerId = "1BB6288A-6CCF-4A5F-A7E1-DC794ABD1039";
paths = (
{
closed = 1;
nodes = (
"262 639 LINE",
"-3 639 LINE",
"-13 615 LINE",
"76 519 LINE",
"98 519 LINE",
"112 541 OFFCURVE",
"142 567 OFFCURVE",
"170 567 CURVE SMOOTH",
"221 567 LINE",
"206 552 OFFCURVE",
"197 526 OFFCURVE",
"197 497 CURVE SMOOTH",
"197 455 LINE SMOOTH",
"197 424 OFFCURVE",
"192 381 OFFCURVE",
"162 357 CURVE",
"155 358 OFFCURVE",
"149 359 OFFCURVE",
"143 359 CURVE SMOOTH",
"95 359 OFFCURVE",
"48 330 OFFCURVE",
"32 293 CURVE",
"130 222 LINE",
"150 252 OFFCURVE",
"186 277 OFFCURVE",
"222 277 CURVE SMOOTH",
"244 277 OFFCURVE",
"255 261 OFFCURVE",
"255 228 CURVE SMOOTH",
"255 166 OFFCURVE",
"211 103 OFFCURVE",
"141 103 CURVE SMOOTH",
"92 103 OFFCURVE",
"52 136 OFFCURVE",
"5 210 CURVE",
"-22 194 LINE",
"22 98 OFFCURVE",
"117 21 OFFCURVE",
"206 21 CURVE SMOOTH",
"295 21 OFFCURVE",
"349 84 OFFCURVE",
"349 154 CURVE SMOOTH",
"349 205 OFFCURVE",
"309 262 OFFCURVE",
"261 303 CURVE",
"318 329 OFFCURVE",
"365 335 OFFCURVE",
"405 335 CURVE SMOOTH",
"420 335 OFFCURVE",
"435 334 OFFCURVE",
"450 332 CURVE",
"450 252 LINE SMOOTH",
"450 187 OFFCURVE",
"406 152 OFFCURVE",
"406 123 CURVE SMOOTH",
"406 85 OFFCURVE",
"527 2 OFFCURVE",
"559 -17 CURVE",
"575 5 LINE",
"551 21 OFFCURVE",
"501 56 OFFCURVE",
"501 78 CURVE SMOOTH",
"501 101 OFFCURVE",
"545 139 OFFCURVE",
"545 203 CURVE SMOOTH",
"545 490 LINE SMOOTH",
"545 526 OFFCURVE",
"561 553 OFFCURVE",
"581 567 CURVE",
"515 639 LINE",
"373 639 LINE",
"363 615 LINE",
"451 519 LINE",
"450 512 OFFCURVE",
"450 504 OFFCURVE",
"450 497 CURVE SMOOTH",
"450 388 LINE",
"412 403 OFFCURVE",
"375 409 OFFCURVE",
"330 409 CURVE SMOOTH",
"317 409 OFFCURVE",
"304 408 OFFCURVE",
"291 406 CURVE",
"292 411 OFFCURVE",
"292 417 OFFCURVE",
"292 422 CURVE SMOOTH",
"292 490 LINE SMOOTH",
"292 526 OFFCURVE",
"309 553 OFFCURVE",
"328 567 CURVE"
);
}
);
width = 609;
}
);
unicode = 0905;
},
{
glyphname = vowelChandraA.dv;
layers = (
{
layerId = "1BB6288A-6CCF-4A5F-A7E1-DC794ABD1039";
paths = (
{
closed = 1;
nodes = (
"262 639 LINE",
"-3 639 LINE",
"-13 615 LINE",
"76 519 LINE",
"98 519 LINE",
"112 541 OFFCURVE",
"142 567 OFFCURVE",
"170 567 CURVE SMOOTH",
"221 567 LINE",
"206 552 OFFCURVE",
"197 526 OFFCURVE",
"197 497 CURVE SMOOTH",
"197 455 LINE SMOOTH",
"197 424 OFFCURVE",
"192 381 OFFCURVE",
"162 357 CURVE",
"155 358 OFFCURVE",
"149 359 OFFCURVE",
"143 359 CURVE SMOOTH",
"95 359 OFFCURVE",
"48 330 OFFCURVE",
"32 293 CURVE",
"130 222 LINE",
"150 252 OFFCURVE",
"186 277 OFFCURVE",
"222 277 CURVE SMOOTH",
"244 277 OFFCURVE",
"255 261 OFFCURVE",
"255 228 CURVE SMOOTH",
"255 166 OFFCURVE",
"211 103 OFFCURVE",
"141 103 CURVE SMOOTH",
"92 103 OFFCURVE",
"52 136 OFFCURVE",
"5 210 CURVE",
"-22 194 LINE",
"22 98 OFFCURVE",
"117 21 OFFCURVE",
"206 21 CURVE SMOOTH",
"295 21 OFFCURVE",
"349 84 OFFCURVE",
"349 154 CURVE SMOOTH",
"349 205 OFFCURVE",
"309 262 OFFCURVE",
"261 303 CURVE",
"318 329 OFFCURVE",
"365 335 OFFCURVE",
"405 335 CURVE SMOOTH",
"420 335 OFFCURVE",
"435 334 OFFCURVE",
"450 332 CURVE",
"450 252 LINE SMOOTH",
"450 187 OFFCURVE",
"406 152 OFFCURVE",
"406 123 CURVE SMOOTH",
"406 85 OFFCURVE",
"527 2 OFFCURVE",
"559 -17 CURVE",
"575 5 LINE",
"551 21 OFFCURVE",
"501 56 OFFCURVE",
"501 78 CURVE SMOOTH",
"501 101 OFFCURVE",
"545 139 OFFCURVE",
"545 203 CURVE SMOOTH",
"545 490 LINE SMOOTH",
"545 526 OFFCURVE",
"561 553 OFFCURVE",
"581 567 CURVE",
"515 639 LINE",
"373 639 LINE",
"363 615 LINE",
"451 519 LINE",
"450 512 OFFCURVE",
"450 504 OFFCURVE",
"450 497 CURVE SMOOTH",
"450 388 LINE",
"412 403 OFFCURVE",
"375 409 OFFCURVE",
"330 409 CURVE SMOOTH",
"317 409 OFFCURVE",
"304 408 OFFCURVE",
"291 406 CURVE",
"292 411 OFFCURVE",
"292 417 OFFCURVE",
"292 422 CURVE SMOOTH",
"292 490 LINE SMOOTH",
"292 526 OFFCURVE",
"309 553 OFFCURVE",
"328 567 CURVE"
);
},
{
closed = 1;
nodes = (
"536 814 LINE",
"511 786 OFFCURVE",
"474 761 OFFCURVE",
"420 761 CURVE SMOOTH",
"371 761 OFFCURVE",
"340 784 OFFCURVE",
"314 812 CURVE",
"293 798 LINE",
"352 716 OFFCURVE",
"430 692 OFFCURVE",
"480 692 CURVE SMOOTH",
"542 692 OFFCURVE",
"595 722 OFFCURVE",
"616 753 CURVE"
);
}
);
width = 609;
}
);
unicode = 0972;
},
{
glyphname = vowelShortA.dv;
lastChange = "2021-11-25 14:42:11 +0000";
layers = (
{
anchors = (
{
name = top;
position = "{637, 18}";
}
);
layerId = "1BB6288A-6CCF-4A5F-A7E1-DC794ABD1039";
paths = (
{
closed = 1;
nodes = (
"226 798 OFFCURVE",
"209 799 OFFCURVE",
"189 829 CURVE",
"167 816 LINE",
"195 757 OFFCURVE",
"238 712 OFFCURVE",
"297 712 CURVE SMOOTH",
"333 712 OFFCURVE",
"362 716 OFFCURVE",
"398 716 CURVE SMOOTH",
"437 716 OFFCURVE",
"462 689 OFFCURVE",
"496 639 CURVE",
"373 639 LINE",
"363 615 LINE",
"451 519 LINE",
"450 512 OFFCURVE",
"450 504 OFFCURVE",
"450 497 CURVE SMOOTH",
"450 388 LINE",
"412 403 OFFCURVE",
"375 409 OFFCURVE",
"330 409 CURVE SMOOTH",
"317 409 OFFCURVE",
"304 408 OFFCURVE",
"291 406 CURVE",
"292 411 OFFCURVE",
"292 417 OFFCURVE",
"292 422 CURVE SMOOTH",
"292 490 LINE SMOOTH",
"292 526 OFFCURVE",
"309 553 OFFCURVE",
"328 567 CURVE",
"262 639 LINE",
"-3 639 LINE",
"-13 615 LINE",
"76 519 LINE",
"98 519 LINE",
"112 541 OFFCURVE",
"142 567 OFFCURVE",
"170 567 CURVE SMOOTH",
"221 567 LINE",
"206 552 OFFCURVE",
"197 526 OFFCURVE",
"197 497 CURVE SMOOTH",
"197 455 LINE SMOOTH",
"197 424 OFFCURVE",
"192 381 OFFCURVE",
"162 357 CURVE",
"155 358 OFFCURVE",
"149 359 OFFCURVE",
"143 359 CURVE SMOOTH",
"95 359 OFFCURVE",
"48 330 OFFCURVE",
"32 293 CURVE",
"130 222 LINE",
"150 252 OFFCURVE",
"186 277 OFFCURVE",
"222 277 CURVE SMOOTH",
"244 277 OFFCURVE",
"255 261 OFFCURVE",
"255 228 CURVE SMOOTH",
"255 166 OFFCURVE",
"211 103 OFFCURVE",
"141 103 CURVE SMOOTH",
"92 103 OFFCURVE",
"52 136 OFFCURVE",
"5 210 CURVE",
"-22 194 LINE",
"22 98 OFFCURVE",
"117 21 OFFCURVE",
"206 21 CURVE SMOOTH",
"295 21 OFFCURVE",
"349 84 OFFCURVE",
"349 154 CURVE SMOOTH",
"349 205 OFFCURVE",
"309 262 OFFCURVE",
"261 303 CURVE",
"318 329 OFFCURVE",
"365 335 OFFCURVE",
"405 335 CURVE SMOOTH",
"420 335 OFFCURVE",
"435 334 OFFCURVE",
"450 332 CURVE",
"450 252 LINE SMOOTH",
"450 187 OFFCURVE",
"406 152 OFFCURVE",
"406 123 CURVE SMOOTH",
"406 85 OFFCURVE",
"527 2 OFFCURVE",
"559 -17 CURVE",
"575 5 LINE",
"551 21 OFFCURVE",
"501 56 OFFCURVE",
"501 78 CURVE SMOOTH",
"501 101 OFFCURVE",
"545 139 OFFCURVE",
"545 203 CURVE SMOOTH",
"545 490 LINE SMOOTH",
"545 526 OFFCURVE",
"561 553 OFFCURVE",
"581 567 CURVE",
"472 741 OFFCURVE",
"408 802 OFFCURVE",
"338 802 CURVE SMOOTH",
"310 802 OFFCURVE",
"282 798 OFFCURVE",
"253 798 CURVE SMOOTH"
);
}
);
width = 609;
}
);
unicode = 0904;
},
{
glyphname = vowelAa.dv;
layers = (
{
layerId = "1BB6288A-6CCF-4A5F-A7E1-DC794ABD1039";
paths = (
{
closed = 1;
nodes = (
"262 639 LINE",
"-3 639 LINE",
"-13 615 LINE",
"76 519 LINE",
"98 519 LINE",
"112 541 OFFCURVE",
"142 567 OFFCURVE",
"170 567 CURVE SMOOTH",
"221 567 LINE",
"206 552 OFFCURVE",
"197 526 OFFCURVE",
"197 497 CURVE SMOOTH",
"197 455 LINE SMOOTH",
"197 424 OFFCURVE",
"192 381 OFFCURVE",
"162 357 CURVE",
"155 358 OFFCURVE",
"149 359 OFFCURVE",
"143 359 CURVE SMOOTH",
"95 359 OFFCURVE",
"48 330 OFFCURVE",
"32 293 CURVE",
"130 222 LINE",
"150 252 OFFCURVE",
"186 277 OFFCURVE",
"222 277 CURVE SMOOTH",
"244 277 OFFCURVE",
"255 261 OFFCURVE",
"255 228 CURVE SMOOTH",
"255 166 OFFCURVE",
"211 103 OFFCURVE",
"141 103 CURVE SMOOTH",
"92 103 OFFCURVE",
"52 136 OFFCURVE",
"5 210 CURVE",
"-22 194 LINE",
"22 98 OFFCURVE",
"117 21 OFFCURVE",
"206 21 CURVE SMOOTH",
"295 21 OFFCURVE",
"349 84 OFFCURVE",
"349 154 CURVE SMOOTH",
"349 205 OFFCURVE",
"309 262 OFFCURVE",
"261 303 CURVE",
"318 329 OFFCURVE",
"365 335 OFFCURVE",
"405 335 CURVE SMOOTH",
"420 335 OFFCURVE",
"435 334 OFFCURVE",
"450 332 CURVE",
"450 252 LINE SMOOTH",
"450 187 OFFCURVE",
"406 152 OFFCURVE",
"406 123 CURVE SMOOTH",
"406 85 OFFCURVE",
"527 2 OFFCURVE",
"559 -17 CURVE",
"575 5 LINE",
"551 21 OFFCURVE",
"501 56 OFFCURVE",
"501 78 CURVE SMOOTH",
"501 101 OFFCURVE",
"545 139 OFFCURVE",
"545 203 CURVE SMOOTH",
"545 490 LINE SMOOTH",
"545 526 OFFCURVE",
"561 553 OFFCURVE",
"581 567 CURVE",
"702 567 LINE",
"687 552 OFFCURVE",
"678 526 OFFCURVE",
"678 497 CURVE SMOOTH",
"678 252 LINE SMOOTH",
"678 187 OFFCURVE",
"634 152 OFFCURVE",
"634 123 CURVE SMOOTH",
"634 85 OFFCURVE",
"755 2 OFFCURVE",
"787 -17 CURVE",
"803 5 LINE",
"779 21 OFFCURVE",
"729 56 OFFCURVE",
"729 78 CURVE SMOOTH",
"729 101 OFFCURVE",
"773 139 OFFCURVE",
"773 203 CURVE SMOOTH",
"773 490 LINE SMOOTH",
"773 526 OFFCURVE",
"789 553 OFFCURVE",
"809 567 CURVE",
"743 639 LINE",
"373 639 LINE",
"363 615 LINE",
"451 519 LINE",
"450 512 OFFCURVE",
"450 504 OFFCURVE",
"450 497 CURVE SMOOTH",
"450 388 LINE",
"412 403 OFFCURVE",
"375 409 OFFCURVE",
"330 409 CURVE SMOOTH",
"317 409 OFFCURVE",
"304 408 OFFCURVE",
"291 406 CURVE",
"292 411 OFFCURVE",
"292 417 OFFCURVE",
"292 422 CURVE SMOOTH",
"292 490 LINE SMOOTH",
"292 526 OFFCURVE",
"309 553 OFFCURVE",
"328 567 CURVE"
);
}
);
width = 837;
}
);
unicode = 0906;
},
{
glyphname = vowelI.dv;
layers = (
{
layerId = "1BB6288A-6CCF-4A5F-A7E1-DC794ABD1039";
paths = (
{
closed = 1;
nodes = (
"428 408 LINE",
"428 490 LINE SMOOTH",
"428 526 OFFCURVE",
"444 553 OFFCURVE",
"464 567 CURVE",
"398 639 LINE",
"-8 639 LINE",
"-18 615 LINE",
"71 519 LINE",
"93 519 LINE",
"107 541 OFFCURVE",
"137 567 OFFCURVE",
"165 567 CURVE SMOOTH",
"357 567 LINE",
"342 552 OFFCURVE",
"333 526 OFFCURVE",
"333 497 CURVE SMOOTH",
"333 466 LINE",
"296 473 OFFCURVE",
"258 478 OFFCURVE",
"223 478 CURVE SMOOTH",
"114 478 OFFCURVE",
"31 432 OFFCURVE",
"31 340 CURVE SMOOTH",
"31 255 OFFCURVE",
"157 182 OFFCURVE",
"189 182 CURVE SMOOTH",
"213 182 OFFCURVE",
"297 244 OFFCURVE",
"351 244 CURVE SMOOTH",
"359 244 OFFCURVE",
"363 239 OFFCURVE",
"363 227 CURVE SMOOTH",
"363 199 OFFCURVE",
"326 138 OFFCURVE",
"268 91 CURVE",
"190 131 OFFCURVE",
"123 153 OFFCURVE",
"84 153 CURVE SMOOTH",
"59 153 OFFCURVE",
"25 108 OFFCURVE",
"25 92 CURVE SMOOTH",
"25 64 OFFCURVE",
"125 17 OFFCURVE",
"153 17 CURVE SMOOTH",
"174 17 OFFCURVE",
"203 62 OFFCURVE",
"217 62 CURVE SMOOTH",
"232 62 OFFCURVE",
"266 55 OFFCURVE",
"376 -3 CURVE SMOOTH",
"467 -51 LINE",
"482 -28 LINE",
"366 37 LINE",
"418 79 OFFCURVE",
"452 136 OFFCURVE",
"452 178 CURVE SMOOTH",
"452 250 OFFCURVE",
"358 331 OFFCURVE",
"309 331 CURVE SMOOTH",
"226 331 OFFCURVE",
"157 270 OFFCURVE",
"138 270 CURVE SMOOTH",
"129 270 OFFCURVE",
"123 278 OFFCURVE",
"123 293 CURVE SMOOTH",
"123 352 OFFCURVE",
"193 401 OFFCURVE",
"294 401 CURVE SMOOTH",
"329 401 OFFCURVE",
"366 397 OFFCURVE",
"407 389 CURVE"
);
}
);
width = 497;
}
);
unicode = 0907;
},
{
glyphname = vowelIi.dv;
layers = (
{
layerId = "1BB6288A-6CCF-4A5F-A7E1-DC794ABD1039";
paths = (
{
closed = 1;
nodes = (
"358 823 OFFCURVE",
"315 788 OFFCURVE",
"315 726 CURVE SMOOTH",
"315 696 OFFCURVE",
"328 665 OFFCURVE",
"349 639 CURVE",
"-8 639 LINE",
"-18 615 LINE",
"71 519 LINE",
"93 519 LINE",
"107 541 OFFCURVE",
"137 567 OFFCURVE",
"165 567 CURVE SMOOTH",
"357 567 LINE",
"342 552 OFFCURVE",
"333 526 OFFCURVE",
"333 497 CURVE SMOOTH",
"333 466 LINE",
"296 473 OFFCURVE",
"258 478 OFFCURVE",
"223 478 CURVE SMOOTH",
"114 478 OFFCURVE",
"31 432 OFFCURVE",
"31 340 CURVE SMOOTH",
"31 255 OFFCURVE",
"157 182 OFFCURVE",
"189 182 CURVE SMOOTH",
"213 182 OFFCURVE",
"297 244 OFFCURVE",
"351 244 CURVE SMOOTH",
"359 244 OFFCURVE",
"363 239 OFFCURVE",
"363 227 CURVE SMOOTH",
"363 199 OFFCURVE",
"326 138 OFFCURVE",
"268 91 CURVE",
"190 131 OFFCURVE",
"123 153 OFFCURVE",
"84 153 CURVE SMOOTH",
"59 153 OFFCURVE",
"25 108 OFFCURVE",
"25 92 CURVE SMOOTH",
"25 64 OFFCURVE",
"125 17 OFFCURVE",
"153 17 CURVE SMOOTH",
"174 17 OFFCURVE",
"203 62 OFFCURVE",
"217 62 CURVE SMOOTH",
"232 62 OFFCURVE",
"266 55 OFFCURVE",
"376 -3 CURVE SMOOTH",
"467 -51 LINE",
"482 -28 LINE",
"366 37 LINE",
"418 79 OFFCURVE",
"452 136 OFFCURVE",
"452 178 CURVE SMOOTH",
"452 250 OFFCURVE",
"358 331 OFFCURVE",
"309 331 CURVE SMOOTH",
"226 331 OFFCURVE",
"157 270 OFFCURVE",
"138 270 CURVE SMOOTH",
"129 270 OFFCURVE",
"123 278 OFFCURVE",
"123 293 CURVE SMOOTH",
"123 352 OFFCURVE",
"193 401 OFFCURVE",
"294 401 CURVE SMOOTH",
"329 401 OFFCURVE",
"366 397 OFFCURVE",
"407 389 CURVE",
"428 408 LINE",
"428 490 LINE SMOOTH",
"428 526 OFFCURVE",
"444 553 OFFCURVE",
"464 567 CURVE",
"455 576 LINE",
"427 608 OFFCURVE",
"406 643 OFFCURVE",
"406 676 CURVE SMOOTH",
"406 726 OFFCURVE",
"439 756 OFFCURVE",
"476 756 CURVE SMOOTH",
"492 756 OFFCURVE",
"505 748 OFFCURVE",
"517 737 CURVE",
"531 748 LINE",
"506 789 OFFCURVE",
"461 823 OFFCURVE",
"409 823 CURVE SMOOTH"
);
}
);
width = 497;
}
);
unicode = 0908;
},
{
glyphname = vowelU.dv;
layers = (
{
layerId = "1BB6288A-6CCF-4A5F-A7E1-DC794ABD1039";
paths = (
{
closed = 1;
nodes = (
"282 639 LINE",
"-3 639 LINE",
"-13 615 LINE",
"76 519 LINE",
"98 519 LINE",
"112 541 OFFCURVE",
"142 567 OFFCURVE",
"170 567 CURVE SMOOTH",
"241 567 LINE",
"226 552 OFFCURVE",
"217 526 OFFCURVE",
"217 497 CURVE SMOOTH",
"217 455 LINE SMOOTH",
"217 422 OFFCURVE",
"211 377 OFFCURVE",
"176 353 CURVE",
"164 357 OFFCURVE",
"153 359 OFFCURVE",
"143 359 CURVE SMOOTH",
"95 359 OFFCURVE",
"48 330 OFFCURVE",
"32 293 CURVE",
"130 222 LINE",
"150 252 OFFCURVE",
"186 277 OFFCURVE",
"222 277 CURVE SMOOTH",
"244 277 OFFCURVE",
"255 261 OFFCURVE",
"255 228 CURVE SMOOTH",
"255 166 OFFCURVE",
"211 103 OFFCURVE",
"141 103 CURVE SMOOTH",
"92 103 OFFCURVE",
"52 136 OFFCURVE",
"5 210 CURVE",
"-22 194 LINE",
"22 98 OFFCURVE",
"117 21 OFFCURVE",
"206 21 CURVE SMOOTH",
"295 21 OFFCURVE",
"349 84 OFFCURVE",
"349 154 CURVE SMOOTH",
"349 204 OFFCURVE",
"311 259 OFFCURVE",
"265 299 CURVE",
"302 327 OFFCURVE",
"312 375 OFFCURVE",
"312 422 CURVE SMOOTH",
"312 490 LINE SMOOTH",
"312 526 OFFCURVE",
"329 553 OFFCURVE",
"348 567 CURVE"
);
}
);
width = 383;
}
);
unicode = 0909;
},
{
glyphname = vowelUu.dv;
layers = (
{
layerId = "1BB6288A-6CCF-4A5F-A7E1-DC794ABD1039";
paths = (
{
closed = 1;
nodes = (
"276 490 LINE SMOOTH",
"276 526 OFFCURVE",
"293 553 OFFCURVE",
"312 567 CURVE",
"450 567 LINE SMOOTH",
"486 567 OFFCURVE",
"515 537 OFFCURVE",
"543 508 CURVE",
"565 508 LINE",
"622 567 LINE",
"556 639 LINE",
"-3 639 LINE",
"-13 615 LINE",
"76 519 LINE",
"98 519 LINE",
"112 541 OFFCURVE",
"142 567 OFFCURVE",
"170 567 CURVE SMOOTH",
"205 567 LINE",
"190 552 OFFCURVE",
"181 526 OFFCURVE",
"181 497 CURVE SMOOTH",
"181 455 LINE SMOOTH",
"181 425 OFFCURVE",
"176 384 OFFCURVE",
"148 359 CURVE",
"143 359 LINE SMOOTH",
"95 359 OFFCURVE",
"48 330 OFFCURVE",
"32 293 CURVE",
"130 222 LINE",
"150 252 OFFCURVE",
"186 277 OFFCURVE",
"222 277 CURVE SMOOTH",
"244 277 OFFCURVE",
"255 261 OFFCURVE",
"255 228 CURVE SMOOTH",
"255 166 OFFCURVE",
"211 103 OFFCURVE",
"141 103 CURVE SMOOTH",
"92 103 OFFCURVE",
"52 136 OFFCURVE",
"5 210 CURVE",
"-22 194 LINE",
"22 98 OFFCURVE",
"117 21 OFFCURVE",
"206 21 CURVE SMOOTH",
"295 21 OFFCURVE",
"349 84 OFFCURVE",
"349 154 CURVE SMOOTH",
"349 161 OFFCURVE",
"348 169 OFFCURVE",
"347 176 CURVE",
"392 289 OFFCURVE",
"443 372 OFFCURVE",
"466 372 CURVE SMOOTH",
"481 372 OFFCURVE",
"491 354 OFFCURVE",
"491 335 CURVE SMOOTH",
"491 232 OFFCURVE",
"417 139 OFFCURVE",
"417 119 CURVE SMOOTH",
"417 81 OFFCURVE",
"530 0 OFFCURVE",
"562 -19 CURVE",
"578 3 LINE",
"554 19 OFFCURVE",
"513 48 OFFCURVE",
"513 70 CURVE SMOOTH",
"513 75 OFFCURVE",
"586 179 OFFCURVE",
"586 280 CURVE SMOOTH",
"586 341 OFFCURVE",
"484 446 OFFCURVE",
"409 446 CURVE SMOOTH",
"363 446 OFFCURVE",
"320 374 OFFCURVE",
"279 286 CURVE",
"269 297 OFFCURVE",
"257 306 OFFCURVE",
"246 315 CURVE",
"269 343 OFFCURVE",
"276 383 OFFCURVE",
"276 422 CURVE"
);
}
);
width = 634;
}
);
unicode = 090A;
},
{
glyphname = vowelRu.dv;
layers = (
{
layerId = "1BB6288A-6CCF-4A5F-A7E1-DC794ABD1039";
paths = (
{
closed = 1;
nodes = (
"12 180 LINE",
"47 128 OFFCURVE",
"101 85 OFFCURVE",
"162 85 CURVE SMOOTH",
"193 85 OFFCURVE",
"243 111 OFFCURVE",
"288 141 CURVE",
"287 135 OFFCURVE",
"287 129 OFFCURVE",
"287 123 CURVE SMOOTH",
"287 85 OFFCURVE",
"408 2 OFFCURVE",
"440 -17 CURVE",
"456 5 LINE",
"432 21 OFFCURVE",
"382 56 OFFCURVE",
"382 78 CURVE SMOOTH",
"382 101 OFFCURVE",
"396 139 OFFCURVE",
"396 203 CURVE SMOOTH",
"396 224 LINE",
"561 353 LINE",
"561 265 LINE SMOOTH",
"561 210 OFFCURVE",
"540 161 OFFCURVE",
"463 128 CURVE",
"540 56 LINE",
"616 87 OFFCURVE",
"656 148 OFFCURVE",
"656 217 CURVE SMOOTH",
"656 390 LINE SMOOTH",
"656 410 OFFCURVE",
"587 458 OFFCURVE",
"561 458 CURVE SMOOTH",
"550 458 OFFCURVE",
"534 454 OFFCURVE",
"496 426 CURVE SMOOTH",
"396 352 LINE",
"396 490 LINE SMOOTH",
"396 526 OFFCURVE",
"412 553 OFFCURVE",
"432 567 CURVE",
"511 567 LINE SMOOTH",
"549 567 OFFCURVE",
"584 541 OFFCURVE",
"610 514 CURVE",
"632 514 LINE",
"683 568 LINE",
"617 639 LINE",
"-8 639 LINE",
"-18 615 LINE",
"81 508 LINE",
"103 508 LINE",
"121 535 OFFCURVE",
"158 567 OFFCURVE",
"193 567 CURVE SMOOTH",
"325 567 LINE",
"310 552 OFFCURVE",
"301 526 OFFCURVE",
"301 497 CURVE SMOOTH",
"301 351 LINE",
"262 411 OFFCURVE",
"204 453 OFFCURVE",
"140 453 CURVE SMOOTH",
"86 453 OFFCURVE",
"43 421 OFFCURVE",
"18 384 CURVE",
"98 304 LINE",
"121 340 OFFCURVE",
"155 373 OFFCURVE",
"200 373 CURVE SMOOTH",
"240 373 OFFCURVE",
"276 334 OFFCURVE",
"299 280 CURVE",
"242 233 OFFCURVE",
"138 163 OFFCURVE",
"94 163 CURVE SMOOTH",
"73 163 OFFCURVE",
"55 175 OFFCURVE",
"36 200 CURVE"
);
}
);
width = 708;
}
);
unicode = 090B;
},
{
glyphname = vowelRuu.dv;
layers = (
{
layerId = "1BB6288A-6CCF-4A5F-A7E1-DC794ABD1039";
paths = (
{
closed = 1;
nodes = (
"396 490 LINE SMOOTH",
"396 526 OFFCURVE",
"412 553 OFFCURVE",
"432 567 CURVE",
"546 567 LINE SMOOTH",
"584 567 OFFCURVE",
"619 541 OFFCURVE",
"645 514 CURVE",
"667 514 LINE",
"718 568 LINE",
"652 639 LINE",
"-8 639 LINE",
"-18 615 LINE",
"81 508 LINE",
"103 508 LINE",
"121 535 OFFCURVE",
"158 567 OFFCURVE",
"193 567 CURVE SMOOTH",
"325 567 LINE",
"310 552 OFFCURVE",
"301 526 OFFCURVE",
"301 497 CURVE SMOOTH",
"301 351 LINE",
"262 411 OFFCURVE",
"204 453 OFFCURVE",
"140 453 CURVE SMOOTH",
"86 453 OFFCURVE",
"43 421 OFFCURVE",
"18 384 CURVE",
"98 304 LINE",
"121 340 OFFCURVE",
"155 373 OFFCURVE",
"200 373 CURVE SMOOTH",
"240 373 OFFCURVE",
"276 334 OFFCURVE",
"299 280 CURVE",
"242 233 OFFCURVE",
"138 163 OFFCURVE",
"94 163 CURVE SMOOTH",
"73 163 OFFCURVE",
"55 175 OFFCURVE",
"36 200 CURVE",
"12 180 LINE",
"47 128 OFFCURVE",
"101 85 OFFCURVE",
"162 85 CURVE SMOOTH",
"193 85 OFFCURVE",
"243 111 OFFCURVE",
"288 141 CURVE",
"287 135 OFFCURVE",
"287 129 OFFCURVE",
"287 123 CURVE SMOOTH",
"287 85 OFFCURVE",
"408 2 OFFCURVE",
"440 -17 CURVE",
"456 5 LINE",
"432 21 OFFCURVE",
"382 56 OFFCURVE",
"382 78 CURVE SMOOTH",
"382 101 OFFCURVE",
"396 139 OFFCURVE",
"396 203 CURVE SMOOTH",
"396 271 LINE",
"438 309 OFFCURVE",
"551 385 OFFCURVE",
"588 385 CURVE SMOOTH",
"608 385 OFFCURVE",
"623 363 OFFCURVE",
"623 347 CURVE SMOOTH",
"623 325 OFFCURVE",
"595 312 OFFCURVE",
"559 297 CURVE SMOOTH",
"503 274 OFFCURVE",
"441 241 OFFCURVE",
"441 186 CURVE SMOOTH",
"441 128 OFFCURVE",
"576 46 OFFCURVE",
"636 46 CURVE SMOOTH",
"665 46 OFFCURVE",
"700 58 OFFCURVE",
"716 88 CURVE",
"653 157 LINE",
"624 130 OFFCURVE",
"588 115 OFFCURVE",
"563 115 CURVE SMOOTH",
"545 115 OFFCURVE",
"532 125 OFFCURVE",
"532 140 CURVE SMOOTH",
"532 173 OFFCURVE",
"573 194 OFFCURVE",
"624 216 CURVE SMOOTH",
"655 229 OFFCURVE",
"692 248 OFFCURVE",
"692 284 CURVE SMOOTH",
"692 341 OFFCURVE",
"576 468 OFFCURVE",
"529 468 CURVE SMOOTH",
"498 468 OFFCURVE",
"443 435 OFFCURVE",
"396 400 CURVE"
);
}
);
width = 736;
}
);
unicode = 0960;
},
{
glyphname = vowelLru.dv;
layers = (
{
layerId = "1BB6288A-6CCF-4A5F-A7E1-DC794ABD1039";
paths = (
{
closed = 1;
nodes = (
"522 380 OFFCURVE",
"536 372 OFFCURVE",
"536 343 CURVE SMOOTH",
"536 275 OFFCURVE",
"374 211 OFFCURVE",
"374 133 CURVE SMOOTH",
"374 75 OFFCURVE",
"500 -20 OFFCURVE",
"554 -20 CURVE SMOOTH",
"591 -20 OFFCURVE",
"634 4 OFFCURVE",
"653 48 CURVE",
"581 116 LINE",
"555 76 OFFCURVE",
"521 55 OFFCURVE",
"483 55 CURVE SMOOTH",
"466 55 OFFCURVE",
"458 67 OFFCURVE",
"458 78 CURVE SMOOTH",
"458 132 OFFCURVE",
"619 211 OFFCURVE",
"619 281 CURVE SMOOTH",
"619 324 OFFCURVE",
"592 368 OFFCURVE",
"557 402 CURVE",
"557 470 LINE SMOOTH",
"557 516 OFFCURVE",
"581 549 OFFCURVE",
"613 567 CURVE",
"547 639 LINE",
"-8 639 LINE",
"-18 615 LINE",
"81 508 LINE",
"103 508 LINE",
"121 535 OFFCURVE",
"158 567 OFFCURVE",
"193 567 CURVE SMOOTH",
"495 567 LINE",
"474 550 OFFCURVE",
"462 520 OFFCURVE",
"462 487 CURVE SMOOTH",
"462 454 LINE",
"455 455 OFFCURVE",
"449 456 OFFCURVE",
"443 456 CURVE SMOOTH",
"400 456 OFFCURVE",
"338 424 OFFCURVE",
"300 385 CURVE",
"268 423 OFFCURVE",
"213 456 OFFCURVE",
"168 456 CURVE SMOOTH",
"92 456 OFFCURVE",
"23 361 OFFCURVE",
"23 258 CURVE SMOOTH",
"23 125 OFFCURVE",
"174 29 OFFCURVE",
"301 -11 CURVE",
"315 14 LINE",
"227 50 OFFCURVE",
"121 95 OFFCURVE",
"121 196 CURVE SMOOTH",
"121 298 OFFCURVE",
"189 382 OFFCURVE",
"236 382 CURVE SMOOTH",
"247 382 OFFCURVE",
"258 371 OFFCURVE",
"258 348 CURVE SMOOTH",
"258 341 OFFCURVE",
"258 331 OFFCURVE",
"256 322 CURVE",
"237 288 OFFCURVE",
"219 248 OFFCURVE",
"215 217 CURVE",
"215 190 OFFCURVE",
"281 138 OFFCURVE",
"305 138 CURVE SMOOTH",
"318 138 OFFCURVE",
"336 194 OFFCURVE",
"340 235 CURVE",
"386 322 OFFCURVE",
"453 380 OFFCURVE",
"502 380 CURVE SMOOTH"
);
}
);
width = 650;
}
);
unicode = 090C;
},
{
glyphname = vowelLruu.dv;
layers = (
{
layerId = "1BB6288A-6CCF-4A5F-A7E1-DC794ABD1039";
paths = (
{
closed = 1;
nodes = (
"395 456 OFFCURVE",
"340 417 OFFCURVE",
"306 378 CURVE",
"274 419 OFFCURVE",
"213 456 OFFCURVE",
"168 456 CURVE SMOOTH",
"92 456 OFFCURVE",
"23 361 OFFCURVE",
"23 258 CURVE SMOOTH",
"23 125 OFFCURVE",
"174 29 OFFCURVE",
"301 -11 CURVE",
"315 14 LINE",
"227 50 OFFCURVE",
"121 95 OFFCURVE",
"121 196 CURVE SMOOTH",
"121 298 OFFCURVE",
"189 382 OFFCURVE",
"236 382 CURVE SMOOTH",
"247 382 OFFCURVE",
"258 371 OFFCURVE",
"258 348 CURVE SMOOTH",
"258 341 OFFCURVE",
"258 321 OFFCURVE",
"256 312 CURVE",
"237 281 OFFCURVE",
"219 248 OFFCURVE",
"215 217 CURVE",
"215 190 OFFCURVE",
"281 138 OFFCURVE",
"305 138 CURVE SMOOTH",
"318 138 OFFCURVE",
"337 202 OFFCURVE",
"341 243 CURVE",
"387 330 OFFCURVE",
"453 380 OFFCURVE",
"502 380 CURVE SMOOTH",
"528 380 OFFCURVE",
"546 363 OFFCURVE",
"546 340 CURVE SMOOTH",
"546 286 OFFCURVE",
"404 310 OFFCURVE",
"404 224 CURVE SMOOTH",
"404 201 OFFCURVE",
"424 173 OFFCURVE",
"453 149 CURVE",
"416 134 OFFCURVE",
"396 116 OFFCURVE",
"396 97 CURVE SMOOTH",
"396 39 OFFCURVE",
"521 -48 OFFCURVE",
"575 -48 CURVE SMOOTH",
"616 -48 OFFCURVE",
"654 -30 OFFCURVE",
"679 -6 CURVE",
"612 54 LINE",
"598 45 OFFCURVE",
"545 22 OFFCURVE",
"510 22 CURVE SMOOTH",
"492 22 OFFCURVE",
"479 28 OFFCURVE",
"479 46 CURVE SMOOTH",
"479 73 OFFCURVE",
"539 99 OFFCURVE",
"640 108 CURVE",
"647 121 LINE",
"586 176 LINE",
"545 172 OFFCURVE",
"511 166 OFFCURVE",
"483 158 CURVE",
"479 162 OFFCURVE",
"477 168 OFFCURVE",
"477 174 CURVE SMOOTH",
"477 244 OFFCURVE",
"629 220 OFFCURVE",
"629 287 CURVE SMOOTH",
"629 326 OFFCURVE",
"598 372 OFFCURVE",
"557 406 CURVE",
"557 470 LINE SMOOTH",
"557 516 OFFCURVE",
"581 549 OFFCURVE",
"613 567 CURVE",
"547 639 LINE",
"-8 639 LINE",
"-18 615 LINE",
"81 508 LINE",
"103 508 LINE",
"121 535 OFFCURVE",
"158 567 OFFCURVE",
"193 567 CURVE SMOOTH",
"495 567 LINE",
"474 550 OFFCURVE",
"462 520 OFFCURVE",
"462 487 CURVE SMOOTH",
"462 454 LINE",
"455 455 OFFCURVE",
"449 456 OFFCURVE",
"443 456 CURVE SMOOTH"
);
}
);
width = 674;
}
);
unicode = 0961;
},
{
glyphname = vowelChandraE.dv;
layers = (
{
associatedMasterId = "1BB6288A-6CCF-4A5F-A7E1-DC794ABD1039";
layerId = "C8563CC3-17B3-454B-B4EF-8E0393D5ADF7";
name = img;
width = 437;
},
{
layerId = "1BB6288A-6CCF-4A5F-A7E1-DC794ABD1039";
paths = (
{
closed = 1;
nodes = (
"54 362 LINE SMOOTH",
"54 305 OFFCURVE",
"30 258 OFFCURVE",
"30 233 CURVE SMOOTH",
"30 180 OFFCURVE",
"90 130 OFFCURVE",
"174 92 CURVE SMOOTH",
"399 -10 LINE",
"413 19 LINE",
"262 90 LINE",
"326 128 OFFCURVE",
"373 201 OFFCURVE",
"373 273 CURVE SMOOTH",
"373 490 LINE SMOOTH",
"373 526 OFFCURVE",
"389 553 OFFCURVE",
"409 567 CURVE",
"343 639 LINE",
"-13 639 LINE",
"-23 615 LINE",
"57 528 LINE",
"55 518 OFFCURVE",
"54 508 OFFCURVE",
"54 497 CURVE"
);
},
{
closed = 1;
nodes = (
"121 206 OFFCURVE",
"149 249 OFFCURVE",
"149 310 CURVE SMOOTH",
"149 490 LINE SMOOTH",
"149 526 OFFCURVE",
"165 553 OFFCURVE",
"185 567 CURVE",
"302 567 LINE",
"287 552 OFFCURVE",
"278 526 OFFCURVE",
"278 497 CURVE SMOOTH",
"278 325 LINE SMOOTH",
"278 241 OFFCURVE",
"229 174 OFFCURVE",
"162 138 CURVE",
"128 157 OFFCURVE",
"121 168 OFFCURVE",
"121 181 CURVE SMOOTH"
);
},
{
closed = 1;
nodes = (
"275 814 LINE",
"250 786 OFFCURVE",
"213 761 OFFCURVE",
"159 761 CURVE SMOOTH",
"110 761 OFFCURVE",
"79 784 OFFCURVE",
"53 812 CURVE",
"32 798 LINE",
"91 716 OFFCURVE",
"169 692 OFFCURVE",
"219 692 CURVE SMOOTH",
"281 692 OFFCURVE",
"334 722 OFFCURVE",
"355 753 CURVE"
);
}
);
width = 437;
}
);
unicode = 090D;
},
{
glyphname = vowelShortE.dv;
layers = (
{
associatedMasterId = "1BB6288A-6CCF-4A5F-A7E1-DC794ABD1039";
layerId = "C8563CC3-17B3-454B-B4EF-8E0393D5ADF7";
name = img;
width = 437;
},
{
layerId = "1BB6288A-6CCF-4A5F-A7E1-DC794ABD1039";
paths = (
{
closed = 1;
nodes = (
"54 798 OFFCURVE",
"37 799 OFFCURVE",
"17 829 CURVE",
"-5 816 LINE",
"23 757 OFFCURVE",
"66 712 OFFCURVE",
"125 712 CURVE SMOOTH",
"161 712 OFFCURVE",
"190 716 OFFCURVE",
"226 716 CURVE SMOOTH",
"265 716 OFFCURVE",
"290 689 OFFCURVE",
"324 639 CURVE",
"-13 639 LINE",
"-23 615 LINE",
"57 528 LINE",
"55 518 OFFCURVE",
"54 508 OFFCURVE",
"54 497 CURVE SMOOTH",
"54 362 LINE SMOOTH",
"54 305 OFFCURVE",
"30 258 OFFCURVE",
"30 233 CURVE SMOOTH",
"30 180 OFFCURVE",
"90 130 OFFCURVE",
"174 92 CURVE SMOOTH",
"399 -10 LINE",
"413 19 LINE",
"262 90 LINE",
"326 128 OFFCURVE",
"373 201 OFFCURVE",
"373 273 CURVE SMOOTH",
"373 490 LINE SMOOTH",
"373 526 OFFCURVE",
"389 553 OFFCURVE",
"409 567 CURVE",
"300 741 OFFCURVE",
"236 802 OFFCURVE",
"166 802 CURVE SMOOTH",
"138 802 OFFCURVE",
"110 798 OFFCURVE",
"81 798 CURVE SMOOTH"
);
},
{
closed = 1;
nodes = (
"121 206 OFFCURVE",
"149 249 OFFCURVE",
"149 310 CURVE SMOOTH",
"149 490 LINE SMOOTH",
"149 526 OFFCURVE",
"165 553 OFFCURVE",
"185 567 CURVE",
"302 567 LINE",
"287 552 OFFCURVE",
"278 526 OFFCURVE",
"278 497 CURVE SMOOTH",
"278 325 LINE SMOOTH",
"278 241 OFFCURVE",
"229 174 OFFCURVE",
"162 138 CURVE",
"128 157 OFFCURVE",
"121 168 OFFCURVE",
"121 181 CURVE SMOOTH"
);
}
);
width = 437;
}
);
unicode = 090E;
},
{
glyphname = vowelE.dv;
layers = (
{
layerId = "1BB6288A-6CCF-4A5F-A7E1-DC794ABD1039";
paths = (
{
closed = 1;
nodes = (
"54 362 LINE SMOOTH",
"54 305 OFFCURVE",
"30 258 OFFCURVE",
"30 233 CURVE SMOOTH",
"30 180 OFFCURVE",
"90 130 OFFCURVE",
"174 92 CURVE SMOOTH",
"399 -10 LINE",
"413 19 LINE",
"262 90 LINE",
"326 128 OFFCURVE",
"373 201 OFFCURVE",
"373 273 CURVE SMOOTH",
"373 490 LINE SMOOTH",
"373 526 OFFCURVE",
"389 553 OFFCURVE",
"409 567 CURVE",
"343 639 LINE",
"-13 639 LINE",
"-23 615 LINE",
"57 528 LINE",
"55 518 OFFCURVE",
"54 508 OFFCURVE",
"54 497 CURVE"
);
},
{
closed = 1;
nodes = (
"121 206 OFFCURVE",
"149 249 OFFCURVE",
"149 310 CURVE SMOOTH",
"149 490 LINE SMOOTH",
"149 526 OFFCURVE",
"165 553 OFFCURVE",
"185 567 CURVE",
"302 567 LINE",
"287 552 OFFCURVE",
"278 526 OFFCURVE",
"278 497 CURVE SMOOTH",
"278 325 LINE SMOOTH",
"278 241 OFFCURVE",
"229 174 OFFCURVE",
"162 138 CURVE",
"128 157 OFFCURVE",
"121 168 OFFCURVE",
"121 181 CURVE SMOOTH"
);
}
);
width = 437;
}
);
unicode = 090F;
},
{
glyphname = vowelAi.dv;
layers = (
{
layerId = "1BB6288A-6CCF-4A5F-A7E1-DC794ABD1039";
paths = (
{
closed = 1;
nodes = (
"54 362 LINE SMOOTH",
"54 305 OFFCURVE",
"30 258 OFFCURVE",
"30 233 CURVE SMOOTH",
"30 180 OFFCURVE",
"90 130 OFFCURVE",
"174 92 CURVE SMOOTH",
"399 -10 LINE",
"413 19 LINE",
"262 90 LINE",
"326 128 OFFCURVE",
"373 201 OFFCURVE",
"373 273 CURVE SMOOTH",
"373 490 LINE SMOOTH",
"373 526 OFFCURVE",
"389 553 OFFCURVE",
"409 567 CURVE",
"331 691 OFFCURVE",
"254 818 OFFCURVE",
"136 818 CURVE SMOOTH",
"100 818 OFFCURVE",
"59 811 OFFCURVE",
"14 798 CURVE",
"62 714 LINE",
"113 727 OFFCURVE",
"154 734 OFFCURVE",
"188 734 CURVE SMOOTH",
"248 734 OFFCURVE",
"283 705 OFFCURVE",
"325 639 CURVE",
"-13 639 LINE",
"-23 615 LINE",
"57 528 LINE",
"55 518 OFFCURVE",
"54 508 OFFCURVE",
"54 497 CURVE"
);
},
{
closed = 1;
nodes = (
"121 206 OFFCURVE",
"149 249 OFFCURVE",
"149 310 CURVE SMOOTH",
"149 490 LINE SMOOTH",
"149 526 OFFCURVE",
"165 553 OFFCURVE",
"185 567 CURVE",
"302 567 LINE",
"287 552 OFFCURVE",
"278 526 OFFCURVE",
"278 497 CURVE SMOOTH",
"278 325 LINE SMOOTH",
"278 241 OFFCURVE",
"229 174 OFFCURVE",
"162 138 CURVE",
"128 157 OFFCURVE",
"121 168 OFFCURVE",
"121 181 CURVE SMOOTH"
);
}
);
width = 437;
}
);
unicode = 0910;
},
{
glyphname = vowelChandraO.dv;
layers = (
{
associatedMasterId = "1BB6288A-6CCF-4A5F-A7E1-DC794ABD1039";
layerId = "C8563CC3-17B3-454B-B4EF-8E0393D5ADF7";
name = img;
width = 837;
},
{
layerId = "1BB6288A-6CCF-4A5F-A7E1-DC794ABD1039";
paths = (
{
closed = 1;
nodes = (
"773 490 LINE SMOOTH",
"773 526 OFFCURVE",
"789 553 OFFCURVE",
"809 567 CURVE",
"743 639 LINE",
"373 639 LINE",
"363 615 LINE",
"451 519 LINE",
"450 512 OFFCURVE",
"450 504 OFFCURVE",
"450 497 CURVE SMOOTH",
"450 388 LINE",
"412 403 OFFCURVE",
"375 409 OFFCURVE",
"330 409 CURVE SMOOTH",
"317 409 OFFCURVE",
"304 408 OFFCURVE",
"291 406 CURVE",
"292 411 OFFCURVE",
"292 417 OFFCURVE",
"292 422 CURVE SMOOTH",
"292 490 LINE SMOOTH",
"292 526 OFFCURVE",
"309 553 OFFCURVE",
"328 567 CURVE",
"262 639 LINE",
"-3 639 LINE",
"-13 615 LINE",
"76 519 LINE",
"98 519 LINE",
"112 541 OFFCURVE",
"142 567 OFFCURVE",
"170 567 CURVE SMOOTH",
"221 567 LINE",
"206 552 OFFCURVE",
"197 526 OFFCURVE",
"197 497 CURVE SMOOTH",
"197 455 LINE SMOOTH",
"197 424 OFFCURVE",
"192 381 OFFCURVE",
"162 357 CURVE",
"155 358 OFFCURVE",
"149 359 OFFCURVE",
"143 359 CURVE SMOOTH",
"95 359 OFFCURVE",
"48 330 OFFCURVE",
"32 293 CURVE",
"130 222 LINE",
"150 252 OFFCURVE",
"186 277 OFFCURVE",
"222 277 CURVE SMOOTH",
"244 277 OFFCURVE",
"255 261 OFFCURVE",
"255 228 CURVE SMOOTH",
"255 166 OFFCURVE",
"211 103 OFFCURVE",
"141 103 CURVE SMOOTH",
"92 103 OFFCURVE",
"52 136 OFFCURVE",
"5 210 CURVE",
"-22 194 LINE",
"22 98 OFFCURVE",
"117 21 OFFCURVE",
"206 21 CURVE SMOOTH",
"295 21 OFFCURVE",
"349 84 OFFCURVE",
"349 154 CURVE SMOOTH",
"349 205 OFFCURVE",
"309 262 OFFCURVE",
"261 303 CURVE",
"318 329 OFFCURVE",
"365 335 OFFCURVE",
"405 335 CURVE SMOOTH",
"420 335 OFFCURVE",
"435 334 OFFCURVE",
"450 332 CURVE",
"450 252 LINE SMOOTH",
"450 187 OFFCURVE",
"406 152 OFFCURVE",
"406 123 CURVE SMOOTH",
"406 85 OFFCURVE",
"527 2 OFFCURVE",
"559 -17 CURVE",
"575 5 LINE",
"551 21 OFFCURVE",
"501 56 OFFCURVE",
"501 78 CURVE SMOOTH",
"501 101 OFFCURVE",
"545 139 OFFCURVE",
"545 203 CURVE SMOOTH",
"545 490 LINE SMOOTH",
"545 526 OFFCURVE",
"561 553 OFFCURVE",
"581 567 CURVE",
"702 567 LINE",
"687 552 OFFCURVE",
"678 526 OFFCURVE",
"678 497 CURVE SMOOTH",
"678 252 LINE SMOOTH",
"678 187 OFFCURVE",
"634 152 OFFCURVE",
"634 123 CURVE SMOOTH",
"634 85 OFFCURVE",
"755 2 OFFCURVE",
"787 -17 CURVE",
"803 5 LINE",
"779 21 OFFCURVE",
"729 56 OFFCURVE",
"729 78 CURVE SMOOTH",
"729 101 OFFCURVE",
"773 139 OFFCURVE",
"773 203 CURVE"
);
},
{
closed = 1;
nodes = (
"685 814 LINE",
"660 786 OFFCURVE",
"623 761 OFFCURVE",
"569 761 CURVE SMOOTH",
"520 761 OFFCURVE",
"489 784 OFFCURVE",
"463 812 CURVE",
"442 798 LINE",
"501 716 OFFCURVE",
"579 692 OFFCURVE",
"629 692 CURVE SMOOTH",
"691 692 OFFCURVE",
"744 722 OFFCURVE",
"765 753 CURVE"
);
}
);
width = 837;
}
);
unicode = 0911;
},
{
glyphname = vowelO.dv;
layers = (
{
associatedMasterId = "1BB6288A-6CCF-4A5F-A7E1-DC794ABD1039";
layerId = "C8563CC3-17B3-454B-B4EF-8E0393D5ADF7";
name = img;
width = 837;
},
{
layerId = "1BB6288A-6CCF-4A5F-A7E1-DC794ABD1039";
paths = (
{
closed = 1;
nodes = (
"262 639 LINE",
"-3 639 LINE",
"-13 615 LINE",
"76 519 LINE",
"98 519 LINE",
"112 541 OFFCURVE",
"142 567 OFFCURVE",
"170 567 CURVE SMOOTH",
"221 567 LINE",
"206 552 OFFCURVE",
"197 526 OFFCURVE",
"197 497 CURVE SMOOTH",
"197 455 LINE SMOOTH",
"197 424 OFFCURVE",
"192 381 OFFCURVE",
"162 357 CURVE",
"155 358 OFFCURVE",
"149 359 OFFCURVE",
"143 359 CURVE SMOOTH",
"95 359 OFFCURVE",
"48 330 OFFCURVE",
"32 293 CURVE",
"130 222 LINE",
"150 252 OFFCURVE",
"186 277 OFFCURVE",
"222 277 CURVE SMOOTH",
"244 277 OFFCURVE",
"255 261 OFFCURVE",
"255 228 CURVE SMOOTH",
"255 166 OFFCURVE",
"211 103 OFFCURVE",
"141 103 CURVE SMOOTH",
"92 103 OFFCURVE",
"52 136 OFFCURVE",
"5 210 CURVE",
"-22 194 LINE",
"22 98 OFFCURVE",
"117 21 OFFCURVE",
"206 21 CURVE SMOOTH",
"295 21 OFFCURVE",
"349 84 OFFCURVE",
"349 154 CURVE SMOOTH",
"349 205 OFFCURVE",
"309 262 OFFCURVE",
"261 303 CURVE",
"318 329 OFFCURVE",
"365 335 OFFCURVE",
"405 335 CURVE SMOOTH",
"420 335 OFFCURVE",
"435 334 OFFCURVE",
"450 332 CURVE",
"450 252 LINE SMOOTH",
"450 187 OFFCURVE",
"406 152 OFFCURVE",
"406 123 CURVE SMOOTH",
"406 85 OFFCURVE",
"527 2 OFFCURVE",
"559 -17 CURVE",
"575 5 LINE",
"551 21 OFFCURVE",
"501 56 OFFCURVE",
"501 78 CURVE SMOOTH",
"501 101 OFFCURVE",
"545 139 OFFCURVE",
"545 203 CURVE SMOOTH",
"545 490 LINE SMOOTH",
"545 526 OFFCURVE",
"561 553 OFFCURVE",
"581 567 CURVE",
"702 567 LINE",
"687 552 OFFCURVE",
"678 526 OFFCURVE",
"678 497 CURVE SMOOTH",
"678 252 LINE SMOOTH",
"678 187 OFFCURVE",
"634 152 OFFCURVE",
"634 123 CURVE SMOOTH",
"634 85 OFFCURVE",
"755 2 OFFCURVE",
"787 -17 CURVE",
"803 5 LINE",
"779 21 OFFCURVE",
"729 56 OFFCURVE",
"729 78 CURVE SMOOTH",
"729 101 OFFCURVE",
"773 139 OFFCURVE",
"773 203 CURVE SMOOTH",
"773 490 LINE SMOOTH",
"773 526 OFFCURVE",
"789 553 OFFCURVE",
"809 567 CURVE",
"731 691 OFFCURVE",
"654 818 OFFCURVE",
"536 818 CURVE SMOOTH",
"500 818 OFFCURVE",
"459 811 OFFCURVE",
"414 798 CURVE",
"462 714 LINE",
"513 727 OFFCURVE",
"554 734 OFFCURVE",
"588 734 CURVE SMOOTH",
"648 734 OFFCURVE",
"683 705 OFFCURVE",
"725 639 CURVE",
"373 639 LINE",
"363 615 LINE",
"451 519 LINE",
"450 512 OFFCURVE",
"450 504 OFFCURVE",
"450 497 CURVE SMOOTH",
"450 388 LINE",
"412 403 OFFCURVE",
"375 409 OFFCURVE",
"330 409 CURVE SMOOTH",
"317 409 OFFCURVE",
"304 408 OFFCURVE",
"291 406 CURVE",
"292 411 OFFCURVE",
"292 417 OFFCURVE",
"292 422 CURVE SMOOTH",
"292 490 LINE SMOOTH",
"292 526 OFFCURVE",
"309 553 OFFCURVE",
"328 567 CURVE"
);
}
);
width = 837;
}
);
unicode = 0913;
},
{
glyphname = vowelShortO.dv;
layers = (
{
associatedMasterId = "1BB6288A-6CCF-4A5F-A7E1-DC794ABD1039";
layerId = "C8563CC3-17B3-454B-B4EF-8E0393D5ADF7";
name = img;
width = 837;
},
{
layerId = "1BB6288A-6CCF-4A5F-A7E1-DC794ABD1039";
paths = (
{
closed = 1;
nodes = (
"262 639 LINE",
"-3 639 LINE",
"-13 615 LINE",
"76 519 LINE",
"98 519 LINE",
"112 541 OFFCURVE",
"142 567 OFFCURVE",
"170 567 CURVE SMOOTH",
"221 567 LINE",
"206 552 OFFCURVE",
"197 526 OFFCURVE",
"197 497 CURVE SMOOTH",
"197 455 LINE SMOOTH",
"197 424 OFFCURVE",
"192 381 OFFCURVE",
"162 357 CURVE",
"155 358 OFFCURVE",
"149 359 OFFCURVE",
"143 359 CURVE SMOOTH",
"95 359 OFFCURVE",
"48 330 OFFCURVE",
"32 293 CURVE",
"130 222 LINE",
"150 252 OFFCURVE",
"186 277 OFFCURVE",
"222 277 CURVE SMOOTH",
"244 277 OFFCURVE",
"255 261 OFFCURVE",
"255 228 CURVE SMOOTH",
"255 166 OFFCURVE",
"211 103 OFFCURVE",
"141 103 CURVE SMOOTH",
"92 103 OFFCURVE",
"52 136 OFFCURVE",
"5 210 CURVE",
"-22 194 LINE",
"22 98 OFFCURVE",
"117 21 OFFCURVE",
"206 21 CURVE SMOOTH",
"295 21 OFFCURVE",
"349 84 OFFCURVE",
"349 154 CURVE SMOOTH",
"349 205 OFFCURVE",
"309 262 OFFCURVE",
"261 303 CURVE",
"318 329 OFFCURVE",
"365 335 OFFCURVE",
"405 335 CURVE SMOOTH",
"420 335 OFFCURVE",
"435 334 OFFCURVE",
"450 332 CURVE",
"450 252 LINE SMOOTH",
"450 187 OFFCURVE",
"406 152 OFFCURVE",
"406 123 CURVE SMOOTH",
"406 85 OFFCURVE",
"527 2 OFFCURVE",
"559 -17 CURVE",
"575 5 LINE",
"551 21 OFFCURVE",
"501 56 OFFCURVE",
"501 78 CURVE SMOOTH",
"501 101 OFFCURVE",
"545 139 OFFCURVE",
"545 203 CURVE SMOOTH",
"545 490 LINE SMOOTH",
"545 526 OFFCURVE",
"561 553 OFFCURVE",
"581 567 CURVE",
"702 567 LINE",
"687 552 OFFCURVE",
"678 526 OFFCURVE",
"678 497 CURVE SMOOTH",
"678 252 LINE SMOOTH",
"678 187 OFFCURVE",
"634 152 OFFCURVE",
"634 123 CURVE SMOOTH",
"634 85 OFFCURVE",
"755 2 OFFCURVE",
"787 -17 CURVE",
"803 5 LINE",
"779 21 OFFCURVE",
"729 56 OFFCURVE",
"729 78 CURVE SMOOTH",
"729 101 OFFCURVE",
"773 139 OFFCURVE",
"773 203 CURVE SMOOTH",
"773 490 LINE SMOOTH",
"773 526 OFFCURVE",
"789 553 OFFCURVE",
"809 567 CURVE",
"700 741 OFFCURVE",
"636 802 OFFCURVE",
"566 802 CURVE SMOOTH",
"538 802 OFFCURVE",
"510 798 OFFCURVE",
"481 798 CURVE SMOOTH",
"454 798 OFFCURVE",
"437 799 OFFCURVE",
"417 829 CURVE",
"395 816 LINE",
"423 757 OFFCURVE",
"466 712 OFFCURVE",
"525 712 CURVE SMOOTH",
"561 712 OFFCURVE",
"590 716 OFFCURVE",
"626 716 CURVE SMOOTH",
"665 716 OFFCURVE",
"690 689 OFFCURVE",
"724 639 CURVE",
"373 639 LINE",
"363 615 LINE",
"451 519 LINE",
"450 512 OFFCURVE",
"450 504 OFFCURVE",
"450 497 CURVE SMOOTH",
"450 388 LINE",
"412 403 OFFCURVE",
"375 409 OFFCURVE",
"330 409 CURVE SMOOTH",
"317 409 OFFCURVE",
"304 408 OFFCURVE",
"291 406 CURVE",
"292 411 OFFCURVE",
"292 417 OFFCURVE",
"292 422 CURVE SMOOTH",
"292 490 LINE SMOOTH",
"292 526 OFFCURVE",
"309 553 OFFCURVE",
"328 567 CURVE"
);
}
);
width = 837;
}
);
unicode = 0912;
},
{
glyphname = vowelAu.dv;
layers = (
{
associatedMasterId = "1BB6288A-6CCF-4A5F-A7E1-DC794ABD1039";
layerId = "C8563CC3-17B3-454B-B4EF-8E0393D5ADF7";
name = img;
width = 837;
},
{
layerId = "1BB6288A-6CCF-4A5F-A7E1-DC794ABD1039";
paths = (
{
closed = 1;
nodes = (
"262 639 LINE",
"-3 639 LINE",
"-13 615 LINE",
"76 519 LINE",
"98 519 LINE",
"112 541 OFFCURVE",
"142 567 OFFCURVE",
"170 567 CURVE SMOOTH",
"221 567 LINE",
"206 552 OFFCURVE",
"197 526 OFFCURVE",
"197 497 CURVE SMOOTH",
"197 455 LINE SMOOTH",
"197 424 OFFCURVE",
"192 381 OFFCURVE",
"162 357 CURVE",
"155 358 OFFCURVE",
"149 359 OFFCURVE",
"143 359 CURVE SMOOTH",
"95 359 OFFCURVE",
"48 330 OFFCURVE",
"32 293 CURVE",
"130 222 LINE",
"150 252 OFFCURVE",
"186 277 OFFCURVE",
"222 277 CURVE SMOOTH",
"244 277 OFFCURVE",
"255 261 OFFCURVE",
"255 228 CURVE SMOOTH",
"255 166 OFFCURVE",
"211 103 OFFCURVE",
"141 103 CURVE SMOOTH",
"92 103 OFFCURVE",
"52 136 OFFCURVE",
"5 210 CURVE",
"-22 194 LINE",
"22 98 OFFCURVE",
"117 21 OFFCURVE",
"206 21 CURVE SMOOTH",
"295 21 OFFCURVE",
"349 84 OFFCURVE",
"349 154 CURVE SMOOTH",
"349 205 OFFCURVE",
"309 262 OFFCURVE",
"261 303 CURVE",
"318 329 OFFCURVE",
"365 335 OFFCURVE",
"405 335 CURVE SMOOTH",
"420 335 OFFCURVE",
"435 334 OFFCURVE",
"450 332 CURVE",
"450 252 LINE SMOOTH",
"450 187 OFFCURVE",
"406 152 OFFCURVE",
"406 123 CURVE SMOOTH",
"406 85 OFFCURVE",
"527 2 OFFCURVE",
"559 -17 CURVE",
"575 5 LINE",
"551 21 OFFCURVE",
"501 56 OFFCURVE",
"501 78 CURVE SMOOTH",
"501 101 OFFCURVE",
"545 139 OFFCURVE",
"545 203 CURVE SMOOTH",
"545 490 LINE SMOOTH",
"545 526 OFFCURVE",
"561 553 OFFCURVE",
"581 567 CURVE",
"702 567 LINE",
"687 552 OFFCURVE",
"678 526 OFFCURVE",
"678 497 CURVE SMOOTH",
"678 252 LINE SMOOTH",
"678 187 OFFCURVE",
"634 152 OFFCURVE",
"634 123 CURVE SMOOTH",
"634 85 OFFCURVE",
"755 2 OFFCURVE",
"787 -17 CURVE",
"803 5 LINE",
"779 21 OFFCURVE",
"729 56 OFFCURVE",
"729 78 CURVE SMOOTH",
"729 101 OFFCURVE",
"773 139 OFFCURVE",
"773 203 CURVE SMOOTH",
"773 490 LINE SMOOTH",
"773 526 OFFCURVE",
"789 553 OFFCURVE",
"809 567 CURVE",
"749 731 OFFCURVE",
"689 905 OFFCURVE",
"513 905 CURVE SMOOTH",
"485 905 OFFCURVE",
"455 902 OFFCURVE",
"421 895 CURVE",
"464 820 LINE",
"497 826 OFFCURVE",
"525 829 OFFCURVE",
"551 829 CURVE SMOOTH",
"662 829 OFFCURVE",
"710 756 OFFCURVE",
"762 632 CURVE",
"696 726 OFFCURVE",
"632 780 OFFCURVE",
"528 780 CURVE SMOOTH",
"495 780 OFFCURVE",
"459 778 OFFCURVE",
"418 767 CURVE",
"466 692 LINE",
"515 701 OFFCURVE",
"555 705 OFFCURVE",
"589 705 CURVE SMOOTH",
"650 705 OFFCURVE",
"690 690 OFFCURVE",
"732 639 CURVE",
"373 639 LINE",
"363 615 LINE",
"451 519 LINE",
"450 512 OFFCURVE",
"450 504 OFFCURVE",
"450 497 CURVE SMOOTH",
"450 388 LINE",
"412 403 OFFCURVE",
"375 409 OFFCURVE",
"330 409 CURVE SMOOTH",
"317 409 OFFCURVE",
"304 408 OFFCURVE",
"291 406 CURVE",
"292 411 OFFCURVE",
"292 417 OFFCURVE",
"292 422 CURVE SMOOTH",
"292 490 LINE SMOOTH",
"292 526 OFFCURVE",
"309 553 OFFCURVE",
"328 567 CURVE"
);
}
);
width = 837;
}
);
unicode = 0914;
},
{
glyphname = uni0973;
layers = (
{
layerId = "1BB6288A-6CCF-4A5F-A7E1-DC794ABD1039";
paths = (
{
closed = 1;
nodes = (
"583 581 LINE",
"537 631 LINE",
"537 764 LINE",
"472 792 LINE",
"456 781 LINE",
"456 639 LINE",
"-3 639 LINE",
"-13 615 LINE",
"76 519 LINE",
"98 519 LINE",
"112 541 OFFCURVE",
"142 567 OFFCURVE",
"170 567 CURVE SMOOTH",
"221 567 LINE",
"206 552 OFFCURVE",
"197 526 OFFCURVE",
"197 497 CURVE SMOOTH",
"197 455 LINE SMOOTH",
"197 424 OFFCURVE",
"192 381 OFFCURVE",
"162 357 CURVE",
"155 358 OFFCURVE",
"149 359 OFFCURVE",
"143 359 CURVE SMOOTH",
"95 359 OFFCURVE",
"48 330 OFFCURVE",
"32 293 CURVE",
"130 222 LINE",
"150 252 OFFCURVE",
"186 277 OFFCURVE",
"222 277 CURVE SMOOTH",
"244 277 OFFCURVE",
"255 261 OFFCURVE",
"255 228 CURVE SMOOTH",
"255 166 OFFCURVE",
"211 103 OFFCURVE",
"141 103 CURVE SMOOTH",
"92 103 OFFCURVE",
"52 136 OFFCURVE",
"5 210 CURVE",
"-22 194 LINE",
"22 98 OFFCURVE",
"117 21 OFFCURVE",
"206 21 CURVE SMOOTH",
"295 21 OFFCURVE",
"349 84 OFFCURVE",
"349 154 CURVE SMOOTH",
"349 205 OFFCURVE",
"309 262 OFFCURVE",
"261 303 CURVE",
"318 329 OFFCURVE",
"365 335 OFFCURVE",
"405 335 CURVE SMOOTH",
"420 335 OFFCURVE",
"435 334 OFFCURVE",
"450 332 CURVE",
"450 252 LINE SMOOTH",
"450 187 OFFCURVE",
"406 152 OFFCURVE",
"406 123 CURVE SMOOTH",
"406 85 OFFCURVE",
"527 2 OFFCURVE",
"559 -17 CURVE",
"575 5 LINE",
"551 21 OFFCURVE",
"501 56 OFFCURVE",
"501 78 CURVE SMOOTH",
"501 101 OFFCURVE",
"545 139 OFFCURVE",
"545 203 CURVE SMOOTH",
"545 566 LINE",
"578 566 LINE"
);
},
{
closed = 1;
nodes = (
"317 409 OFFCURVE",
"304 408 OFFCURVE",
"291 406 CURVE",
"292 411 OFFCURVE",
"292 417 OFFCURVE",
"292 422 CURVE SMOOTH",
"292 490 LINE SMOOTH",
"292 526 OFFCURVE",
"309 553 OFFCURVE",
"328 567 CURVE",
"450 567 LINE",
"450 388 LINE",
"412 403 OFFCURVE",
"375 409 OFFCURVE",
"330 409 CURVE SMOOTH"
);
}
);
width = 609;
}
);
unicode = 0973;
},
{
glyphname = uni0974;
layers = (
{
layerId = "1BB6288A-6CCF-4A5F-A7E1-DC794ABD1039";
paths = (
{
closed = 1;
nodes = (
"811 581 LINE",
"765 631 LINE",
"765 764 LINE",
"700 792 LINE",
"684 781 LINE",
"684 639 LINE",
"373 639 LINE",
"363 615 LINE",
"451 519 LINE",
"450 512 OFFCURVE",
"450 504 OFFCURVE",
"450 497 CURVE SMOOTH",
"450 388 LINE",
"412 403 OFFCURVE",
"375 409 OFFCURVE",
"330 409 CURVE SMOOTH",
"317 409 OFFCURVE",
"304 408 OFFCURVE",
"291 406 CURVE",
"292 411 OFFCURVE",
"292 417 OFFCURVE",
"292 422 CURVE SMOOTH",
"292 490 LINE SMOOTH",
"292 526 OFFCURVE",
"309 553 OFFCURVE",
"328 567 CURVE",
"262 639 LINE",
"-3 639 LINE",
"-13 615 LINE",
"76 519 LINE",
"98 519 LINE",
"112 541 OFFCURVE",
"142 567 OFFCURVE",
"170 567 CURVE SMOOTH",
"221 567 LINE",
"206 552 OFFCURVE",
"197 526 OFFCURVE",
"197 497 CURVE SMOOTH",
"197 455 LINE SMOOTH",
"197 424 OFFCURVE",
"192 381 OFFCURVE",
"162 357 CURVE",
"155 358 OFFCURVE",
"149 359 OFFCURVE",
"143 359 CURVE SMOOTH",
"95 359 OFFCURVE",
"48 330 OFFCURVE",
"32 293 CURVE",
"130 222 LINE",
"150 252 OFFCURVE",
"186 277 OFFCURVE",
"222 277 CURVE SMOOTH",
"244 277 OFFCURVE",
"255 261 OFFCURVE",
"255 228 CURVE SMOOTH",
"255 166 OFFCURVE",
"211 103 OFFCURVE",
"141 103 CURVE SMOOTH",
"92 103 OFFCURVE",
"52 136 OFFCURVE",
"5 210 CURVE",
"-22 194 LINE",
"22 98 OFFCURVE",
"117 21 OFFCURVE",
"206 21 CURVE SMOOTH",
"295 21 OFFCURVE",
"349 84 OFFCURVE",
"349 154 CURVE SMOOTH",
"349 205 OFFCURVE",
"309 262 OFFCURVE",
"261 303 CURVE",
"318 329 OFFCURVE",
"365 335 OFFCURVE",
"405 335 CURVE SMOOTH",
"420 335 OFFCURVE",
"435 334 OFFCURVE",
"450 332 CURVE",
"450 252 LINE SMOOTH",
"450 187 OFFCURVE",
"406 152 OFFCURVE",
"406 123 CURVE SMOOTH",
"406 85 OFFCURVE",
"527 2 OFFCURVE",
"559 -17 CURVE",
"575 5 LINE",
"551 21 OFFCURVE",
"501 56 OFFCURVE",
"501 78 CURVE SMOOTH",
"501 101 OFFCURVE",
"545 139 OFFCURVE",
"545 203 CURVE SMOOTH",
"545 490 LINE SMOOTH",
"545 526 OFFCURVE",
"561 553 OFFCURVE",
"581 567 CURVE",
"678 567 LINE",
"678 252 LINE SMOOTH",
"678 187 OFFCURVE",
"634 152 OFFCURVE",
"634 123 CURVE SMOOTH",
"634 85 OFFCURVE",
"755 2 OFFCURVE",
"787 -17 CURVE",
"803 5 LINE",
"779 21 OFFCURVE",
"729 56 OFFCURVE",
"729 78 CURVE SMOOTH",
"729 101 OFFCURVE",
"773 139 OFFCURVE",
"773 203 CURVE SMOOTH",
"773 566 LINE",
"806 566 LINE"
);
}
);
width = 837;
}
);
unicode = 0974;
},
{
glyphname = uni0975;
layers = (
{
layerId = "1BB6288A-6CCF-4A5F-A7E1-DC794ABD1039";
paths = (
{
closed = 1;
nodes = (
"773 490 LINE SMOOTH",
"773 526 OFFCURVE",
"789 553 OFFCURVE",
"809 567 CURVE",
"722 832 OFFCURVE",
"669 898 OFFCURVE",
"569 898 CURVE SMOOTH",
"501 898 LINE SMOOTH",
"476 898 OFFCURVE",
"461 903 OFFCURVE",
"450 920 CURVE",
"430 909 LINE",
"453 859 OFFCURVE",
"492 823 OFFCURVE",
"544 823 CURVE SMOOTH",
"611 823 LINE SMOOTH",
"672 823 OFFCURVE",
"704 775 OFFCURVE",
"761 639 CURVE",
"711 713 OFFCURVE",
"644 779 OFFCURVE",
"579 779 CURVE SMOOTH",
"538 779 OFFCURVE",
"499 773 OFFCURVE",
"470 773 CURVE SMOOTH",
"444 773 OFFCURVE",
"430 782 OFFCURVE",
"416 800 CURVE",
"396 787 LINE",
"425 735 OFFCURVE",
"471 698 OFFCURVE",
"517 698 CURVE SMOOTH",
"544 698 OFFCURVE",
"592 705 OFFCURVE",
"621 705 CURVE SMOOTH",
"670 705 OFFCURVE",
"699 688 OFFCURVE",
"734 639 CURVE",
"373 639 LINE",
"363 615 LINE",
"451 519 LINE",
"450 512 OFFCURVE",
"450 504 OFFCURVE",
"450 497 CURVE SMOOTH",
"450 388 LINE",
"412 403 OFFCURVE",
"375 409 OFFCURVE",
"330 409 CURVE SMOOTH",
"317 409 OFFCURVE",
"304 408 OFFCURVE",
"291 406 CURVE",
"292 411 OFFCURVE",
"292 417 OFFCURVE",
"292 422 CURVE SMOOTH",
"292 490 LINE SMOOTH",
"292 526 OFFCURVE",
"309 553 OFFCURVE",
"328 567 CURVE",
"262 639 LINE",
"-3 639 LINE",
"-13 615 LINE",
"76 519 LINE",
"98 519 LINE",
"112 541 OFFCURVE",
"142 567 OFFCURVE",
"170 567 CURVE SMOOTH",
"221 567 LINE",
"206 552 OFFCURVE",
"197 526 OFFCURVE",
"197 497 CURVE SMOOTH",
"197 455 LINE SMOOTH",
"197 424 OFFCURVE",
"192 381 OFFCURVE",
"162 357 CURVE",
"155 358 OFFCURVE",
"149 359 OFFCURVE",
"143 359 CURVE SMOOTH",
"95 359 OFFCURVE",
"48 330 OFFCURVE",
"32 293 CURVE",
"130 222 LINE",
"150 252 OFFCURVE",
"186 277 OFFCURVE",
"222 277 CURVE SMOOTH",
"244 277 OFFCURVE",
"255 261 OFFCURVE",
"255 228 CURVE SMOOTH",
"255 166 OFFCURVE",
"211 103 OFFCURVE",
"141 103 CURVE SMOOTH",
"92 103 OFFCURVE",
"52 136 OFFCURVE",
"5 210 CURVE",
"-22 194 LINE",
"22 98 OFFCURVE",
"117 21 OFFCURVE",
"206 21 CURVE SMOOTH",
"295 21 OFFCURVE",
"349 84 OFFCURVE",
"349 154 CURVE SMOOTH",
"349 205 OFFCURVE",
"309 262 OFFCURVE",
"261 303 CURVE",
"318 329 OFFCURVE",
"365 335 OFFCURVE",
"405 335 CURVE SMOOTH",
"420 335 OFFCURVE",
"435 334 OFFCURVE",
"450 332 CURVE",
"450 252 LINE SMOOTH",
"450 187 OFFCURVE",
"406 152 OFFCURVE",
"406 123 CURVE SMOOTH",
"406 85 OFFCURVE",
"527 2 OFFCURVE",
"559 -17 CURVE",
"575 5 LINE",
"551 21 OFFCURVE",
"501 56 OFFCURVE",
"501 78 CURVE SMOOTH",
"501 101 OFFCURVE",
"545 139 OFFCURVE",
"545 203 CURVE SMOOTH",
"545 490 LINE SMOOTH",
"545 526 OFFCURVE",
"561 553 OFFCURVE",
"581 567 CURVE",
"702 567 LINE",
"687 552 OFFCURVE",
"678 526 OFFCURVE",
"678 497 CURVE SMOOTH",
"678 252 LINE SMOOTH",
"678 187 OFFCURVE",
"634 152 OFFCURVE",
"634 123 CURVE SMOOTH",
"634 85 OFFCURVE",
"755 2 OFFCURVE",
"787 -17 CURVE",
"803 5 LINE",
"779 21 OFFCURVE",
"729 56 OFFCURVE",
"729 78 CURVE SMOOTH",
"729 101 OFFCURVE",
"773 139 OFFCURVE",
"773 203 CURVE"
);
}
);
width = 837;
}
);
unicode = 0975;
},
{
glyphname = uni0976;
layers = (
{
layerId = "1BB6288A-6CCF-4A5F-A7E1-DC794ABD1039";
paths = (
{
closed = 1;
nodes = (
"262 639 LINE",
"-3 639 LINE",
"-13 615 LINE",
"76 519 LINE",
"98 519 LINE",
"112 541 OFFCURVE",
"142 567 OFFCURVE",
"170 567 CURVE SMOOTH",
"221 567 LINE",
"206 552 OFFCURVE",
"197 526 OFFCURVE",
"197 497 CURVE SMOOTH",
"197 455 LINE SMOOTH",
"197 424 OFFCURVE",
"192 381 OFFCURVE",
"162 357 CURVE",
"155 358 OFFCURVE",
"149 359 OFFCURVE",
"143 359 CURVE SMOOTH",
"95 359 OFFCURVE",
"48 330 OFFCURVE",
"32 293 CURVE",
"130 222 LINE",
"150 252 OFFCURVE",
"186 277 OFFCURVE",
"222 277 CURVE SMOOTH",
"244 277 OFFCURVE",
"255 261 OFFCURVE",
"255 228 CURVE SMOOTH",
"255 166 OFFCURVE",
"211 103 OFFCURVE",
"141 103 CURVE SMOOTH",
"92 103 OFFCURVE",
"52 136 OFFCURVE",
"5 210 CURVE",
"-22 194 LINE",
"22 98 OFFCURVE",
"117 21 OFFCURVE",
"206 21 CURVE SMOOTH",
"295 21 OFFCURVE",
"349 84 OFFCURVE",
"349 154 CURVE SMOOTH",
"349 205 OFFCURVE",
"309 262 OFFCURVE",
"261 303 CURVE",
"318 329 OFFCURVE",
"365 335 OFFCURVE",
"405 335 CURVE SMOOTH",
"420 335 OFFCURVE",
"435 334 OFFCURVE",
"450 332 CURVE",
"450 252 LINE SMOOTH",
"450 187 OFFCURVE",
"406 152 OFFCURVE",
"406 123 CURVE SMOOTH",
"406 85 OFFCURVE",
"527 2 OFFCURVE",
"559 -17 CURVE",
"575 5 LINE",
"551 21 OFFCURVE",
"501 56 OFFCURVE",
"501 78 CURVE SMOOTH",
"501 101 OFFCURVE",
"545 139 OFFCURVE",
"545 203 CURVE SMOOTH",
"545 490 LINE SMOOTH",
"545 526 OFFCURVE",
"561 553 OFFCURVE",
"581 567 CURVE",
"515 639 LINE",
"373 639 LINE",
"363 615 LINE",
"451 519 LINE",
"450 512 OFFCURVE",
"450 504 OFFCURVE",
"450 497 CURVE SMOOTH",
"450 388 LINE",
"412 403 OFFCURVE",
"375 409 OFFCURVE",
"330 409 CURVE SMOOTH",
"317 409 OFFCURVE",
"304 408 OFFCURVE",
"291 406 CURVE",
"292 411 OFFCURVE",
"292 417 OFFCURVE",
"292 422 CURVE SMOOTH",
"292 490 LINE SMOOTH",
"292 526 OFFCURVE",
"309 553 OFFCURVE",
"328 567 CURVE"
);
},
{
closed = 1;
nodes = (
"402 -18 LINE",
"377 -46 OFFCURVE",
"340 -71 OFFCURVE",
"286 -71 CURVE SMOOTH",
"237 -71 OFFCURVE",
"206 -48 OFFCURVE",
"180 -20 CURVE",
"159 -34 LINE",
"218 -116 OFFCURVE",
"296 -140 OFFCURVE",
"346 -140 CURVE SMOOTH",
"408 -140 OFFCURVE",
"461 -110 OFFCURVE",
"482 -79 CURVE"
);
}
);
width = 609;
}
);
unicode = 0976;
},
{
glyphname = uni0977;
layers = (
{
layerId = "1BB6288A-6CCF-4A5F-A7E1-DC794ABD1039";
paths = (
{
closed = 1;
nodes = (
"262 639 LINE",
"-3 639 LINE",
"-13 615 LINE",
"76 519 LINE",
"98 519 LINE",
"112 541 OFFCURVE",
"142 567 OFFCURVE",
"170 567 CURVE SMOOTH",
"221 567 LINE",
"206 552 OFFCURVE",
"197 526 OFFCURVE",
"197 497 CURVE SMOOTH",
"197 455 LINE SMOOTH",
"197 424 OFFCURVE",
"192 381 OFFCURVE",
"162 357 CURVE",
"155 358 OFFCURVE",
"149 359 OFFCURVE",
"143 359 CURVE SMOOTH",
"95 359 OFFCURVE",
"48 330 OFFCURVE",
"32 293 CURVE",
"130 222 LINE",
"150 252 OFFCURVE",
"186 277 OFFCURVE",
"222 277 CURVE SMOOTH",
"244 277 OFFCURVE",
"255 261 OFFCURVE",
"255 228 CURVE SMOOTH",
"255 166 OFFCURVE",
"211 103 OFFCURVE",
"141 103 CURVE SMOOTH",
"92 103 OFFCURVE",
"52 136 OFFCURVE",
"5 210 CURVE",
"-22 194 LINE",
"22 98 OFFCURVE",
"117 21 OFFCURVE",
"206 21 CURVE SMOOTH",
"295 21 OFFCURVE",
"349 84 OFFCURVE",
"349 154 CURVE SMOOTH",
"349 205 OFFCURVE",
"309 262 OFFCURVE",
"261 303 CURVE",
"318 329 OFFCURVE",
"365 335 OFFCURVE",
"405 335 CURVE SMOOTH",
"420 335 OFFCURVE",
"435 334 OFFCURVE",
"450 332 CURVE",
"450 252 LINE SMOOTH",
"450 187 OFFCURVE",
"406 152 OFFCURVE",
"406 123 CURVE SMOOTH",
"406 85 OFFCURVE",
"527 2 OFFCURVE",
"559 -17 CURVE",
"575 5 LINE",
"551 21 OFFCURVE",
"501 56 OFFCURVE",
"501 78 CURVE SMOOTH",
"501 101 OFFCURVE",
"545 139 OFFCURVE",
"545 203 CURVE SMOOTH",
"545 490 LINE SMOOTH",
"545 526 OFFCURVE",
"561 553 OFFCURVE",
"581 567 CURVE",
"515 639 LINE",
"373 639 LINE",
"363 615 LINE",
"451 519 LINE",
"450 512 OFFCURVE",
"450 504 OFFCURVE",
"450 497 CURVE SMOOTH",
"450 388 LINE",
"412 403 OFFCURVE",
"375 409 OFFCURVE",
"330 409 CURVE SMOOTH",
"317 409 OFFCURVE",
"304 408 OFFCURVE",
"291 406 CURVE",
"292 411 OFFCURVE",
"292 417 OFFCURVE",
"292 422 CURVE SMOOTH",
"292 490 LINE SMOOTH",
"292 526 OFFCURVE",
"309 553 OFFCURVE",
"328 567 CURVE"
);
},
{
closed = 1;
nodes = (
"402 -18 LINE",
"377 -46 OFFCURVE",
"340 -71 OFFCURVE",
"286 -71 CURVE SMOOTH",
"237 -71 OFFCURVE",
"206 -48 OFFCURVE",
"180 -20 CURVE",
"159 -34 LINE",
"218 -116 OFFCURVE",
"296 -140 OFFCURVE",
"346 -140 CURVE SMOOTH",
"408 -140 OFFCURVE",
"461 -110 OFFCURVE",
"482 -79 CURVE"
);
},
{
closed = 1;
nodes = (
"434 -164 LINE",
"400 -184 OFFCURVE",
"359 -197 OFFCURVE",
"305 -197 CURVE SMOOTH",
"251 -197 OFFCURVE",
"217 -175 OFFCURVE",
"189 -146 CURVE",
"168 -160 LINE",
"230 -242 OFFCURVE",
"312 -266 OFFCURVE",
"365 -266 CURVE SMOOTH",
"415 -266 OFFCURVE",
"460 -252 OFFCURVE",
"495 -226 CURVE"
);
}
);
width = 609;
}
);
unicode = 0977;
},
{
glyphname = matraA.dv;
layers = (
{
associatedMasterId = "1BB6288A-6CCF-4A5F-A7E1-DC794ABD1039";
layerId = "C8563CC3-17B3-454B-B4EF-8E0393D5ADF7";
name = img;
width = 218;
},
{
layerId = "1BB6288A-6CCF-4A5F-A7E1-DC794ABD1039";
paths = (
{
closed = 1;
nodes = (
"154 490 LINE SMOOTH",
"154 526 OFFCURVE",
"170 553 OFFCURVE",
"190 567 CURVE",
"124 639 LINE",
"-137 639 LINE",
"-115 567 LINE",
"83 567 LINE",
"68 552 OFFCURVE",
"59 526 OFFCURVE",
"59 497 CURVE SMOOTH",
"59 252 LINE SMOOTH",
"59 187 OFFCURVE",
"15 152 OFFCURVE",
"15 123 CURVE SMOOTH",
"15 85 OFFCURVE",
"136 2 OFFCURVE",
"168 -17 CURVE",
"184 5 LINE",
"160 21 OFFCURVE",
"110 56 OFFCURVE",
"110 78 CURVE SMOOTH",
"110 101 OFFCURVE",
"154 139 OFFCURVE",
"154 203 CURVE"
);
}
);
width = 218;
}
);
unicode = 093E;
},
{
glyphname = matraI.dv;
layers = (
{
layerId = "1BB6288A-6CCF-4A5F-A7E1-DC794ABD1039";
paths = (
{
closed = 1;
nodes = (
"69 554 OFFCURVE",
"57 527 OFFCURVE",
"57 482 CURVE SMOOTH",
"57 252 LINE SMOOTH",
"57 187 OFFCURVE",
"13 152 OFFCURVE",
"13 123 CURVE SMOOTH",
"13 85 OFFCURVE",
"134 2 OFFCURVE",
"166 -17 CURVE",
"182 5 LINE",
"158 21 OFFCURVE",
"108 56 OFFCURVE",
"108 78 CURVE SMOOTH",
"108 101 OFFCURVE",
"152 139 OFFCURVE",
"152 203 CURVE SMOOTH",
"152 467 LINE SMOOTH",
"152 503 OFFCURVE",
"168 530 OFFCURVE",
"188 544 CURVE",
"164 564 OFFCURVE",
"139 598 OFFCURVE",
"139 631 CURVE SMOOTH",
"139 685 OFFCURVE",
"216 743 OFFCURVE",
"330 743 CURVE SMOOTH",
"408 743 OFFCURVE",
"479 693 OFFCURVE",
"557 607 CURVE",
"577 623 LINE",
"485 739 OFFCURVE",
"359 826 OFFCURVE",
"269 826 CURVE SMOOTH",
"148 826 OFFCURVE",
"40 762 OFFCURVE",
"40 688 CURVE SMOOTH",
"40 649 OFFCURVE",
"72 603 OFFCURVE",
"96 580 CURVE"
);
}
);
width = 216;
}
);
unicode = 093F;
},
{
glyphname = matraIi.dv;
layers = (
{
layerId = "1BB6288A-6CCF-4A5F-A7E1-DC794ABD1039";
paths = (
{
closed = 1;
nodes = (
"73 724 OFFCURVE",
"92 708 OFFCURVE",
"100 684 CURVE",
"81 663 OFFCURVE",
"59 627 OFFCURVE",
"59 580 CURVE SMOOTH",
"59 252 LINE SMOOTH",
"59 187 OFFCURVE",
"15 152 OFFCURVE",
"15 123 CURVE SMOOTH",
"15 85 OFFCURVE",
"136 2 OFFCURVE",
"168 -17 CURVE",
"184 5 LINE",
"160 21 OFFCURVE",
"110 56 OFFCURVE",
"110 78 CURVE SMOOTH",
"110 101 OFFCURVE",
"154 139 OFFCURVE",
"154 203 CURVE SMOOTH",
"154 547 LINE SMOOTH",
"154 592 OFFCURVE",
"171 620 OFFCURVE",
"182 639 CURVE",
"127 728 OFFCURVE",
"50 797 OFFCURVE",
"-10 797 CURVE SMOOTH",
"-67 797 OFFCURVE",
"-106 740 OFFCURVE",
"-115 645 CURVE SMOOTH",
"-119 601 LINE",
"-28 567 LINE",
"-24 612 LINE SMOOTH",
"-18 684 OFFCURVE",
"8 724 OFFCURVE",
"52 724 CURVE SMOOTH"
);
}
);
width = 218;
}
);
unicode = 0940;
},
{
glyphname = matraAChandra.dv;
layers = (
{
associatedMasterId = "1BB6288A-6CCF-4A5F-A7E1-DC794ABD1039";
layerId = "C8563CC3-17B3-454B-B4EF-8E0393D5ADF7";
name = img;
width = 218;
},
{
layerId = "1BB6288A-6CCF-4A5F-A7E1-DC794ABD1039";
paths = (
{
closed = 1;
nodes = (
"154 490 LINE SMOOTH",
"154 526 OFFCURVE",
"170 553 OFFCURVE",
"190 567 CURVE",
"124 639 LINE",
"-137 639 LINE",
"-115 567 LINE",
"83 567 LINE",
"68 552 OFFCURVE",
"59 526 OFFCURVE",
"59 497 CURVE SMOOTH",
"59 252 LINE SMOOTH",
"59 187 OFFCURVE",
"15 152 OFFCURVE",
"15 123 CURVE SMOOTH",
"15 85 OFFCURVE",
"136 2 OFFCURVE",
"168 -17 CURVE",
"184 5 LINE",
"160 21 OFFCURVE",
"110 56 OFFCURVE",
"110 78 CURVE SMOOTH",
"110 101 OFFCURVE",
"154 139 OFFCURVE",
"154 203 CURVE"
);
},
{
closed = 1;
nodes = (
"124 814 LINE",
"99 786 OFFCURVE",
"62 761 OFFCURVE",
"8 761 CURVE SMOOTH",
"-41 761 OFFCURVE",
"-72 784 OFFCURVE",
"-98 812 CURVE",
"-119 798 LINE",
"-60 716 OFFCURVE",
"18 692 OFFCURVE",
"68 692 CURVE SMOOTH",
"130 692 OFFCURVE",
"183 722 OFFCURVE",
"204 753 CURVE"
);
}
);
width = 218;
}
);
unicode = 0949;
},
{
glyphname = matraShortO.dv;
layers = (
{
associatedMasterId = "1BB6288A-6CCF-4A5F-A7E1-DC794ABD1039";
layerId = "C8563CC3-17B3-454B-B4EF-8E0393D5ADF7";
name = img;
width = 218;
},
{
layerId = "1BB6288A-6CCF-4A5F-A7E1-DC794ABD1039";
paths = (
{
closed = 1;
nodes = (
"154 490 LINE SMOOTH",
"154 526 OFFCURVE",
"170 553 OFFCURVE",
"190 567 CURVE",
"81 741 OFFCURVE",
"17 802 OFFCURVE",
"-53 802 CURVE SMOOTH",
"-81 802 OFFCURVE",
"-109 798 OFFCURVE",
"-138 798 CURVE SMOOTH",
"-165 798 OFFCURVE",
"-182 799 OFFCURVE",
"-202 829 CURVE",
"-224 816 LINE",
"-196 757 OFFCURVE",
"-153 712 OFFCURVE",
"-94 712 CURVE SMOOTH",
"-58 712 OFFCURVE",
"-29 716 OFFCURVE",
"7 716 CURVE SMOOTH",
"46 716 OFFCURVE",
"71 689 OFFCURVE",
"105 639 CURVE",
"-137 639 LINE",
"-115 567 LINE",
"83 567 LINE",
"68 552 OFFCURVE",
"59 526 OFFCURVE",
"59 497 CURVE SMOOTH",
"59 252 LINE SMOOTH",
"59 187 OFFCURVE",
"15 152 OFFCURVE",
"15 123 CURVE SMOOTH",
"15 85 OFFCURVE",
"136 2 OFFCURVE",
"168 -17 CURVE",
"184 5 LINE",
"160 21 OFFCURVE",
"110 56 OFFCURVE",
"110 78 CURVE SMOOTH",
"110 101 OFFCURVE",
"154 139 OFFCURVE",
"154 203 CURVE"
);
}
);
width = 218;
}
);
unicode = 094A;
},
{
glyphname = matraO.dv;
layers = (
{
associatedMasterId = "1BB6288A-6CCF-4A5F-A7E1-DC794ABD1039";
layerId = "C8563CC3-17B3-454B-B4EF-8E0393D5ADF7";
name = img;
width = 218;
},
{
layerId = "1BB6288A-6CCF-4A5F-A7E1-DC794ABD1039";
paths = (
{
closed = 1;
nodes = (
"154 490 LINE SMOOTH",
"154 526 OFFCURVE",
"170 553 OFFCURVE",
"190 567 CURVE",
"112 691 OFFCURVE",
"35 818 OFFCURVE",
"-83 818 CURVE SMOOTH",
"-119 818 OFFCURVE",
"-160 811 OFFCURVE",
"-205 798 CURVE",
"-157 714 LINE",
"-106 727 OFFCURVE",
"-65 734 OFFCURVE",
"-31 734 CURVE SMOOTH",
"29 734 OFFCURVE",
"64 705 OFFCURVE",
"106 639 CURVE",
"-137 639 LINE",
"-115 567 LINE",
"83 567 LINE",
"68 552 OFFCURVE",
"59 526 OFFCURVE",
"59 497 CURVE SMOOTH",
"59 252 LINE SMOOTH",
"59 187 OFFCURVE",
"15 152 OFFCURVE",
"15 123 CURVE SMOOTH",
"15 85 OFFCURVE",
"136 2 OFFCURVE",
"168 -17 CURVE",
"184 5 LINE",
"160 21 OFFCURVE",
"110 56 OFFCURVE",
"110 78 CURVE SMOOTH",
"110 101 OFFCURVE",
"154 139 OFFCURVE",
"154 203 CURVE"
);
}
);
width = 218;
}
);
unicode = 094B;
},
{
glyphname = matraAu.dv;
layers = (
{
associatedMasterId = "1BB6288A-6CCF-4A5F-A7E1-DC794ABD1039";
layerId = "C8563CC3-17B3-454B-B4EF-8E0393D5ADF7";
name = img;
width = 218;
},
{
layerId = "1BB6288A-6CCF-4A5F-A7E1-DC794ABD1039";
paths = (
{
closed = 1;
nodes = (
"-155 820 LINE",
"-122 826 OFFCURVE",
"-94 829 OFFCURVE",
"-68 829 CURVE SMOOTH",
"43 829 OFFCURVE",
"91 756 OFFCURVE",
"143 632 CURVE",
"77 726 OFFCURVE",
"13 780 OFFCURVE",
"-91 780 CURVE SMOOTH",
"-124 780 OFFCURVE",
"-160 778 OFFCURVE",
"-201 767 CURVE",
"-153 692 LINE",
"-104 701 OFFCURVE",
"-64 705 OFFCURVE",
"-30 705 CURVE SMOOTH",
"31 705 OFFCURVE",
"71 690 OFFCURVE",
"113 639 CURVE",
"-137 639 LINE",
"-115 567 LINE",
"83 567 LINE",
"68 552 OFFCURVE",
"59 526 OFFCURVE",
"59 497 CURVE SMOOTH",
"59 252 LINE SMOOTH",
"59 187 OFFCURVE",
"15 152 OFFCURVE",
"15 123 CURVE SMOOTH",
"15 85 OFFCURVE",
"136 2 OFFCURVE",
"168 -17 CURVE",
"184 5 LINE",
"160 21 OFFCURVE",
"110 56 OFFCURVE",
"110 78 CURVE SMOOTH",
"110 101 OFFCURVE",
"154 139 OFFCURVE",
"154 203 CURVE SMOOTH",
"154 490 LINE SMOOTH",
"154 526 OFFCURVE",
"170 553 OFFCURVE",
"190 567 CURVE",
"130 731 OFFCURVE",
"70 905 OFFCURVE",
"-106 905 CURVE SMOOTH",
"-134 905 OFFCURVE",
"-164 902 OFFCURVE",
"-198 895 CURVE"
);
}
);
width = 218;
}
);
unicode = 094C;
},
{
glyphname = uni094E;
layers = (
{
layerId = "1BB6288A-6CCF-4A5F-A7E1-DC794ABD1039";
paths = (
{
closed = 1;
nodes = (
"326 639 LINE",
"-8 639 LINE",
"-18 615 LINE",
"62 528 LINE",
"60 518 OFFCURVE",
"59 508 OFFCURVE",
"59 497 CURVE SMOOTH",
"59 252 LINE SMOOTH",
"59 187 OFFCURVE",
"15 152 OFFCURVE",
"15 123 CURVE SMOOTH",
"15 85 OFFCURVE",
"136 2 OFFCURVE",
"168 -17 CURVE",
"184 5 LINE",
"160 21 OFFCURVE",
"110 56 OFFCURVE",
"110 78 CURVE SMOOTH",
"110 101 OFFCURVE",
"154 139 OFFCURVE",
"154 203 CURVE SMOOTH",
"154 490 LINE SMOOTH",
"154 526 OFFCURVE",
"170 553 OFFCURVE",
"190 567 CURVE",
"354 567 LINE"
);
}
);
width = 218;
}
);
unicode = 094E;
},
{
glyphname = uni093B;
layers = (
{
layerId = "1BB6288A-6CCF-4A5F-A7E1-DC794ABD1039";
paths = (
{
closed = 1;
nodes = (
"192 581 LINE",
"146 631 LINE",
"146 764 LINE",
"81 792 LINE",
"65 781 LINE",
"65 639 LINE",
"-187 639 LINE",
"-165 567 LINE",
"59 567 LINE",
"59 252 LINE SMOOTH",
"59 187 OFFCURVE",
"15 152 OFFCURVE",
"15 123 CURVE SMOOTH",
"15 85 OFFCURVE",
"136 2 OFFCURVE",
"168 -17 CURVE",
"184 5 LINE",
"160 21 OFFCURVE",
"110 56 OFFCURVE",
"110 78 CURVE SMOOTH",
"110 101 OFFCURVE",
"154 139 OFFCURVE",
"154 203 CURVE SMOOTH",
"154 566 LINE",
"187 566 LINE"
);
}
);
width = 218;
}
);
unicode = 093B;
},
{
glyphname = matraShortAu.dv;
layers = (
{
layerId = "1BB6288A-6CCF-4A5F-A7E1-DC794ABD1039";
paths = (
{
closed = 1;
nodes = (
"154 490 LINE SMOOTH",
"154 526 OFFCURVE",
"170 553 OFFCURVE",
"190 567 CURVE",
"103 832 OFFCURVE",
"50 898 OFFCURVE",
"-50 898 CURVE SMOOTH",
"-118 898 LINE SMOOTH",
"-143 898 OFFCURVE",
"-158 903 OFFCURVE",
"-169 920 CURVE",
"-189 909 LINE",
"-166 859 OFFCURVE",
"-127 823 OFFCURVE",
"-75 823 CURVE SMOOTH",
"-8 823 LINE SMOOTH",
"53 823 OFFCURVE",
"85 775 OFFCURVE",
"142 639 CURVE",
"92 713 OFFCURVE",
"25 779 OFFCURVE",
"-40 779 CURVE SMOOTH",
"-81 779 OFFCURVE",
"-120 773 OFFCURVE",
"-149 773 CURVE SMOOTH",
"-175 773 OFFCURVE",
"-189 782 OFFCURVE",
"-203 800 CURVE",
"-223 787 LINE",
"-194 735 OFFCURVE",
"-148 698 OFFCURVE",
"-102 698 CURVE SMOOTH",
"-75 698 OFFCURVE",
"-27 705 OFFCURVE",
"2 705 CURVE SMOOTH",
"51 705 OFFCURVE",
"80 688 OFFCURVE",
"115 639 CURVE",
"-137 639 LINE",
"-115 567 LINE",
"83 567 LINE",
"68 552 OFFCURVE",
"59 526 OFFCURVE",
"59 497 CURVE SMOOTH",
"59 252 LINE SMOOTH",
"59 187 OFFCURVE",
"15 152 OFFCURVE",
"15 123 CURVE SMOOTH",
"15 85 OFFCURVE",
"136 2 OFFCURVE",
"168 -17 CURVE",
"184 5 LINE",
"160 21 OFFCURVE",
"110 56 OFFCURVE",
"110 78 CURVE SMOOTH",
"110 101 OFFCURVE",
"154 139 OFFCURVE",
"154 203 CURVE"
);
}
);
width = 218;
}
);
unicode = 094F;
},
{
glyphname = Ka.dv;
layers = (
{
layerId = "1BB6288A-6CCF-4A5F-A7E1-DC794ABD1039";
paths = (
{
closed = 1;
nodes = (
"564 93 OFFCURVE",
"627 189 OFFCURVE",
"627 290 CURVE SMOOTH",
"627 347 OFFCURVE",
"519 446 OFFCURVE",
"440 446 CURVE SMOOTH",
"421 446 OFFCURVE",
"399 437 OFFCURVE",
"379 424 CURVE",
"379 490 LINE SMOOTH",
"379 526 OFFCURVE",
"395 553 OFFCURVE",
"415 567 CURVE",
"486 567 LINE SMOOTH",
"522 567 OFFCURVE",
"551 537 OFFCURVE",
"579 508 CURVE",
"601 508 LINE",
"658 567 LINE",
"592 639 LINE",
"-8 639 LINE",
"-18 615 LINE",
"81 508 LINE",
"103 508 LINE",
"120 534 OFFCURVE",
"155 565 OFFCURVE",
"189 567 CURVE",
"308 567 LINE",
"293 552 OFFCURVE",
"284 526 OFFCURVE",
"284 497 CURVE SMOOTH",
"284 423 LINE",
"259 434 OFFCURVE",
"221 443 OFFCURVE",
"177 443 CURVE SMOOTH",
"91 443 OFFCURVE",
"18 379 OFFCURVE",
"18 258 CURVE SMOOTH",
"18 153 OFFCURVE",
"179 85 OFFCURVE",
"227 85 CURVE SMOOTH",
"239 85 OFFCURVE",
"252 87 OFFCURVE",
"264 92 CURVE",
"296 51 OFFCURVE",
"369 -2 OFFCURVE",
"393 -17 CURVE",
"409 5 LINE",
"388 21 OFFCURVE",
"345 56 OFFCURVE",
"345 78 CURVE SMOOTH",
"345 101 OFFCURVE",
"379 139 OFFCURVE",
"379 203 CURVE SMOOTH",
"379 270 LINE",
"414 324 OFFCURVE",
"467 372 OFFCURVE",
"507 372 CURVE SMOOTH",
"522 372 OFFCURVE",
"532 359 OFFCURVE",
"532 345 CURVE SMOOTH",
"532 242 OFFCURVE",
"468 149 OFFCURVE",
"468 129 CURVE SMOOTH",
"468 91 OFFCURVE",
"581 10 OFFCURVE",
"613 -9 CURVE",
"629 13 LINE",
"605 29 OFFCURVE",
"564 58 OFFCURVE",
"564 80 CURVE SMOOTH"
);
},
{
closed = 1;
nodes = (
"122 159 OFFCURVE",
"114 175 OFFCURVE",
"114 194 CURVE SMOOTH",
"114 313 OFFCURVE",
"186 369 OFFCURVE",
"253 369 CURVE SMOOTH",
"262 369 OFFCURVE",
"272 368 OFFCURVE",
"284 367 CURVE",
"284 253 LINE",
"252 198 OFFCURVE",
"183 159 OFFCURVE",
"139 159 CURVE SMOOTH"
);
}
);
width = 671;
}
);
unicode = 0915;
},
{
glyphname = Kha.dv;
layers = (
{
layerId = "1BB6288A-6CCF-4A5F-A7E1-DC794ABD1039";
paths = (
{
closed = 1;
nodes = (
"578 433 LINE",
"553 444 OFFCURVE",
"515 453 OFFCURVE",
"471 453 CURVE SMOOTH",
"396 453 OFFCURVE",
"336 397 OFFCURVE",
"336 293 CURVE SMOOTH",
"336 186 OFFCURVE",
"489 115 OFFCURVE",
"535 115 CURVE",
"549 74 OFFCURVE",
"657 1 OFFCURVE",
"687 -17 CURVE",
"703 5 LINE",
"679 21 OFFCURVE",
"629 56 OFFCURVE",
"629 78 CURVE SMOOTH",
"629 101 OFFCURVE",
"673 139 OFFCURVE",
"673 203 CURVE SMOOTH",
"673 490 LINE SMOOTH",
"673 526 OFFCURVE",
"689 553 OFFCURVE",
"709 567 CURVE",
"643 639 LINE",
"-8 639 LINE",
"-18 615 LINE",
"81 508 LINE",
"103 508 LINE",
"121 535 OFFCURVE",
"158 567 OFFCURVE",
"193 567 CURVE SMOOTH",
"229 567 LINE",
"214 552 OFFCURVE",
"205 526 OFFCURVE",
"205 497 CURVE SMOOTH",
"205 414 LINE SMOOTH",
"205 373 OFFCURVE",
"196 346 OFFCURVE",
"182 346 CURVE SMOOTH",
"172 346 OFFCURVE",
"124 398 OFFCURVE",
"94 398 CURVE SMOOTH",
"64 398 OFFCURVE",
"21 366 OFFCURVE",
"21 299 CURVE SMOOTH",
"21 193 OFFCURVE",
"212 53 OFFCURVE",
"378 -14 CURVE",
"391 13 LINE",
"255 74 OFFCURVE",
"174 147 OFFCURVE",
"174 166 CURVE SMOOTH",
"174 180 OFFCURVE",
"212 190 OFFCURVE",
"241 216 CURVE SMOOTH",
"277 248 OFFCURVE",
"300 286 OFFCURVE",
"300 370 CURVE SMOOTH",
"300 490 LINE SMOOTH",
"300 526 OFFCURVE",
"316 553 OFFCURVE",
"336 567 CURVE",
"602 567 LINE",
"587 552 OFFCURVE",
"578 526 OFFCURVE",
"578 497 CURVE"
);
},
{
closed = 1;
nodes = (
"440 189 OFFCURVE",
"432 206 OFFCURVE",
"432 229 CURVE SMOOTH",
"432 326 OFFCURVE",
"485 379 OFFCURVE",
"547 379 CURVE SMOOTH",
"556 379 OFFCURVE",
"566 378 OFFCURVE",
"578 376 CURVE",
"578 302 LINE",
"550 236 OFFCURVE",
"495 189 OFFCURVE",
"457 189 CURVE SMOOTH"
);
}
);
width = 737;
}
);
unicode = 0916;
},
{
glyphname = Ga.dv;
layers = (
{
layerId = "1BB6288A-6CCF-4A5F-A7E1-DC794ABD1039";
paths = (
{
closed = 1;
nodes = (
"346 252 LINE SMOOTH",
"346 187 OFFCURVE",
"302 152 OFFCURVE",
"302 123 CURVE SMOOTH",
"302 85 OFFCURVE",
"423 2 OFFCURVE",
"455 -17 CURVE",
"471 5 LINE",
"447 21 OFFCURVE",
"397 56 OFFCURVE",
"397 78 CURVE SMOOTH",
"397 101 OFFCURVE",
"441 139 OFFCURVE",
"441 203 CURVE SMOOTH",
"441 490 LINE SMOOTH",
"441 526 OFFCURVE",
"457 553 OFFCURVE",
"477 567 CURVE",
"411 639 LINE",
"-13 639 LINE",
"-23 615 LINE",
"50 534 LINE",
"72 534 LINE",
"85 553 OFFCURVE",
"102 567 OFFCURVE",
"137 567 CURVE SMOOTH",
"146 567 LINE",
"131 552 OFFCURVE",
"122 526 OFFCURVE",
"122 497 CURVE SMOOTH",
"122 360 LINE",
"55 324 OFFCURVE",
"13 265 OFFCURVE",
"13 212 CURVE SMOOTH",
"13 156 OFFCURVE",
"103 93 OFFCURVE",
"147 93 CURVE SMOOTH",
"187 93 OFFCURVE",
"217 158 OFFCURVE",
"217 225 CURVE SMOOTH",
"217 490 LINE SMOOTH",
"217 526 OFFCURVE",
"233 553 OFFCURVE",
"253 567 CURVE",
"370 567 LINE",
"355 552 OFFCURVE",
"346 526 OFFCURVE",
"346 497 CURVE"
);
}
);
width = 505;
}
);
unicode = 0917;
},
{
glyphname = Gha.dv;
layers = (
{
associatedMasterId = "1BB6288A-6CCF-4A5F-A7E1-DC794ABD1039";
layerId = "C8563CC3-17B3-454B-B4EF-8E0393D5ADF7";
name = img;
width = 508;
},
{
layerId = "1BB6288A-6CCF-4A5F-A7E1-DC794ABD1039";
paths = (
{
closed = 1;
nodes = (
"30 168 OFFCURVE",
"211 74 OFFCURVE",
"258 74 CURVE SMOOTH",
"278 74 OFFCURVE",
"301 79 OFFCURVE",
"323 89 CURVE",
"358 48 OFFCURVE",
"434 -2 OFFCURVE",
"458 -17 CURVE",
"474 5 LINE",
"450 21 OFFCURVE",
"400 56 OFFCURVE",
"400 78 CURVE SMOOTH",
"400 101 OFFCURVE",
"444 139 OFFCURVE",
"444 203 CURVE SMOOTH",
"444 490 LINE SMOOTH",
"444 526 OFFCURVE",
"460 553 OFFCURVE",
"480 567 CURVE",
"414 639 LINE",
"-13 639 LINE",
"-23 615 LINE",
"51 534 LINE",
"46 519 OFFCURVE",
"42 504 OFFCURVE",
"42 489 CURVE SMOOTH",
"42 443 OFFCURVE",
"76 403 OFFCURVE",
"120 370 CURVE",
"62 342 OFFCURVE",
"30 311 OFFCURVE",
"30 279 CURVE SMOOTH"
);
},
{
closed = 1;
nodes = (
"349 253 LINE",
"305 188 OFFCURVE",
"222 148 OFFCURVE",
"169 148 CURVE SMOOTH",
"142 148 OFFCURVE",
"122 175 OFFCURVE",
"122 204 CURVE SMOOTH",
"122 248 OFFCURVE",
"183 291 OFFCURVE",
"303 332 CURVE",
"243 413 LINE",
"206 403 OFFCURVE",
"174 392 OFFCURVE",
"147 381 CURVE",
"140 390 OFFCURVE",
"138 399 OFFCURVE",
"138 409 CURVE SMOOTH",
"138 459 OFFCURVE",
"149 514 OFFCURVE",
"197 567 CURVE",
"373 567 LINE",
"358 552 OFFCURVE",
"349 526 OFFCURVE",
"349 497 CURVE"
);
}
);
width = 508;
}
);
unicode = 0918;
},
{
glyphname = Nga.dv;
layers = (
{
associatedMasterId = "1BB6288A-6CCF-4A5F-A7E1-DC794ABD1039";
layerId = "C8563CC3-17B3-454B-B4EF-8E0393D5ADF7";
name = img;
width = 575;
},
{
layerId = "1BB6288A-6CCF-4A5F-A7E1-DC794ABD1039";
paths = (
{
closed = 1;
nodes = (
"512 639 LINE",
"-3 639 LINE",
"-13 615 LINE",
"76 519 LINE",
"98 519 LINE",
"112 541 OFFCURVE",
"142 567 OFFCURVE",
"170 567 CURVE SMOOTH",
"354 567 LINE",
"339 552 OFFCURVE",
"333 526 OFFCURVE",
"333 497 CURVE SMOOTH",
"333 459 LINE",
"299 466 OFFCURVE",
"265 471 OFFCURVE",
"233 471 CURVE SMOOTH",
"124 471 OFFCURVE",
"36 422 OFFCURVE",
"36 323 CURVE SMOOTH",
"36 243 OFFCURVE",
"152 169 OFFCURVE",
"182 169 CURVE SMOOTH",
"208 169 OFFCURVE",
"304 228 OFFCURVE",
"367 228 CURVE SMOOTH",
"373 228 OFFCURVE",
"375 223 OFFCURVE",
"375 216 CURVE SMOOTH",
"375 175 OFFCURVE",
"297 92 OFFCURVE",
"212 92 CURVE SMOOTH",
"144 92 OFFCURVE",
"85 109 OFFCURVE",
"18 190 CURVE",
"-2 173 LINE",
"53 103 OFFCURVE",
"156 10 OFFCURVE",
"263 10 CURVE SMOOTH",
"379 10 OFFCURVE",
"462 96 OFFCURVE",
"462 169 CURVE SMOOTH",
"462 237 OFFCURVE",
"371 315 OFFCURVE",
"325 315 CURVE SMOOTH",
"231 315 OFFCURVE",
"158 257 OFFCURVE",
"138 257 CURVE SMOOTH",
"131 257 OFFCURVE",
"128 265 OFFCURVE",
"128 276 CURVE SMOOTH",
"128 338 OFFCURVE",
"203 394 OFFCURVE",
"304 394 CURVE SMOOTH",
"336 394 OFFCURVE",
"370 390 OFFCURVE",
"407 382 CURVE",
"428 401 LINE",
"428 490 LINE SMOOTH",
"428 526 OFFCURVE",
"441 553 OFFCURVE",
"461 567 CURVE",
"561 567 LINE",
"566 582 LINE"
);
},
{
closed = 1;
nodes = (
"430 324 LINE",
"454 304 OFFCURVE",
"477 286 OFFCURVE",
"499 264 CURVE",
"521 279 OFFCURVE",
"562 296 OFFCURVE",
"588 305 CURVE",
"588 314 LINE",
"566 338 OFFCURVE",
"544 357 OFFCURVE",
"519 374 CURVE",
"491 364 OFFCURVE",
"453 349 OFFCURVE",
"430 333 CURVE"
);
}
);
width = 575;
}
);
unicode = 0919;
},
{
glyphname = Ca.dv;
layers = (
{
layerId = "1BB6288A-6CCF-4A5F-A7E1-DC794ABD1039";
paths = (
{
closed = 1;
nodes = (
"-11 441 LINE",
"-15 428 LINE",
"38 357 LINE",
"100 357 LINE",
"80 335 OFFCURVE",
"68 307 OFFCURVE",
"68 272 CURVE SMOOTH",
"68 161 OFFCURVE",
"245 89 OFFCURVE",
"297 89 CURVE SMOOTH",
"308 89 OFFCURVE",
"320 91 OFFCURVE",
"332 95 CURVE",
"365 53 OFFCURVE",
"446 -2 OFFCURVE",
"472 -17 CURVE",
"488 5 LINE",
"464 21 OFFCURVE",
"414 56 OFFCURVE",
"414 78 CURVE SMOOTH",
"414 101 OFFCURVE",
"458 139 OFFCURVE",
"458 203 CURVE SMOOTH",
"458 490 LINE SMOOTH",
"458 526 OFFCURVE",
"474 553 OFFCURVE",
"494 567 CURVE",
"428 639 LINE",
"-8 639 LINE",
"-18 615 LINE",
"81 508 LINE",
"103 508 LINE",
"121 535 OFFCURVE",
"158 567 OFFCURVE",
"193 567 CURVE SMOOTH",
"387 567 LINE",
"372 552 OFFCURVE",
"363 526 OFFCURVE",
"363 497 CURVE SMOOTH",
"363 256 LINE",
"329 201 OFFCURVE",
"256 163 OFFCURVE",
"209 163 CURVE SMOOTH",
"178 163 OFFCURVE",
"164 184 OFFCURVE",
"164 208 CURVE SMOOTH",
"164 303 OFFCURVE",
"235 357 OFFCURVE",
"296 357 CURVE SMOOTH",
"318 357 LINE",
"322 370 LINE",
"269 441 LINE"
);
}
);
width = 522;
}
);
unicode = 091A;
},
{
glyphname = Cha.dv;
layers = (
{
layerId = "1BB6288A-6CCF-4A5F-A7E1-DC794ABD1039";
paths = (
{
closed = 1;
nodes = (
"492 639 LINE",
"-13 639 LINE",
"-23 615 LINE",
"56 529 LINE",
"48 505 OFFCURVE",
"42 481 OFFCURVE",
"42 459 CURVE SMOOTH",
"42 411 OFFCURVE",
"80 368 OFFCURVE",
"128 334 CURVE",
"65 306 OFFCURVE",
"30 271 OFFCURVE",
"30 229 CURVE SMOOTH",
"30 113 OFFCURVE",
"219 14 OFFCURVE",
"298 14 CURVE SMOOTH",
"432 14 OFFCURVE",
"576 144 OFFCURVE",
"576 295 CURVE SMOOTH",
"576 332 OFFCURVE",
"554 376 OFFCURVE",
"522 413 CURVE",
"522 490 LINE SMOOTH",
"522 526 OFFCURVE",
"539 553 OFFCURVE",
"558 567 CURVE"
);
},
{
closed = 1;
nodes = (
"245 370 LINE",
"211 362 OFFCURVE",
"180 354 OFFCURVE",
"153 344 CURVE",
"142 354 OFFCURVE",
"138 366 OFFCURVE",
"138 379 CURVE SMOOTH",
"138 438 OFFCURVE",
"149 505 OFFCURVE",
"197 567 CURVE",
"451 567 LINE",
"436 552 OFFCURVE",
"427 526 OFFCURVE",
"427 497 CURVE SMOOTH",
"427 483 LINE",
"414 487 OFFCURVE",
"402 490 OFFCURVE",
"390 490 CURVE SMOOTH",
"356 490 OFFCURVE",
"313 461 OFFCURVE",
"290 417 CURVE",
"362 340 LINE",
"393 383 OFFCURVE",
"425 406 OFFCURVE",
"450 406 CURVE SMOOTH",
"472 406 OFFCURVE",
"480 383 OFFCURVE",
"480 361 CURVE SMOOTH",
"480 209 OFFCURVE",
"329 88 OFFCURVE",
"209 88 CURVE SMOOTH",
"162 88 OFFCURVE",
"122 120 OFFCURVE",
"122 154 CURVE SMOOTH",
"122 212 OFFCURVE",
"197 259 OFFCURVE",
"314 292 CURVE"
);
}
);
width = 615;
}
);
unicode = 091B;
},
{
glyphname = Ja.dv;
layers = (
{
layerId = "1BB6288A-6CCF-4A5F-A7E1-DC794ABD1039";
paths = (
{
closed = 1;
nodes = (
"51 352 LINE",
"119 282 LINE",
"140 282 LINE",
"160 305 OFFCURVE",
"185 323 OFFCURVE",
"211 337 CURVE",
"245 320 OFFCURVE",
"259 289 OFFCURVE",
"259 250 CURVE SMOOTH",
"259 206 OFFCURVE",
"219 141 OFFCURVE",
"151 141 CURVE SMOOTH",
"106 141 OFFCURVE",
"69 174 OFFCURVE",
"25 248 CURVE",
"-2 232 LINE",
"40 136 OFFCURVE",
"131 59 OFFCURVE",
"216 59 CURVE SMOOTH",
"306 59 OFFCURVE",
"355 139 OFFCURVE",
"355 207 CURVE SMOOTH",
"355 271 OFFCURVE",
"303 326 OFFCURVE",
"252 354 CURVE",
"282 364 OFFCURVE",
"314 369 OFFCURVE",
"345 369 CURVE SMOOTH",
"378 369 OFFCURVE",
"415 363 OFFCURVE",
"453 347 CURVE",
"453 252 LINE SMOOTH",
"453 192 OFFCURVE",
"419 160 OFFCURVE",
"419 133 CURVE SMOOTH",
"419 92 OFFCURVE",
"540 3 OFFCURVE",
"572 -17 CURVE",
"588 5 LINE",
"564 23 OFFCURVE",
"514 63 OFFCURVE",
"514 88 CURVE SMOOTH",
"514 109 OFFCURVE",
"548 144 OFFCURVE",
"548 203 CURVE SMOOTH",
"548 490 LINE SMOOTH",
"548 526 OFFCURVE",
"564 553 OFFCURVE",
"584 567 CURVE",
"518 639 LINE",
"-13 639 LINE",
"-23 615 LINE",
"76 508 LINE",
"98 508 LINE",
"116 535 OFFCURVE",
"153 567 OFFCURVE",
"188 567 CURVE SMOOTH",
"477 567 LINE",
"462 552 OFFCURVE",
"453 526 OFFCURVE",
"453 497 CURVE SMOOTH",
"453 412 LINE",
"397 439 OFFCURVE",
"336 450 OFFCURVE",
"284 450 CURVE SMOOTH",
"181 450 OFFCURVE",
"97 415 OFFCURVE",
"51 378 CURVE"
);
}
);
width = 612;
}
);
unicode = 091C;
},
{
glyphname = Jha.dv;
layers = (
{
layerId = "1BB6288A-6CCF-4A5F-A7E1-DC794ABD1039";
paths = (
{
closed = 1;
nodes = (
"645 490 LINE SMOOTH",
"645 526 OFFCURVE",
"661 553 OFFCURVE",
"681 567 CURVE",
"615 639 LINE",
"-8 639 LINE",
"-18 615 LINE",
"71 519 LINE",
"93 519 LINE",
"107 541 OFFCURVE",
"137 567 OFFCURVE",
"165 567 CURVE SMOOTH",
"347 567 LINE",
"332 552 OFFCURVE",
"323 526 OFFCURVE",
"323 497 CURVE SMOOTH",
"323 466 LINE",
"289 473 OFFCURVE",
"255 478 OFFCURVE",
"223 478 CURVE SMOOTH",
"114 478 OFFCURVE",
"31 432 OFFCURVE",
"31 339 CURVE SMOOTH",
"31 255 OFFCURVE",
"157 182 OFFCURVE",
"188 182 CURVE SMOOTH",
"213 182 OFFCURVE",
"291 241 OFFCURVE",
"342 241 CURVE SMOOTH",
"350 241 OFFCURVE",
"353 234 OFFCURVE",
"353 224 CURVE SMOOTH",
"353 196 OFFCURVE",
"314 139 OFFCURVE",
"261 92 CURVE",
"187 130 OFFCURVE",
"126 153 OFFCURVE",
"80 153 CURVE SMOOTH",
"55 153 OFFCURVE",
"25 115 OFFCURVE",
"25 89 CURVE SMOOTH",
"25 61 OFFCURVE",
"115 14 OFFCURVE",
"153 14 CURVE SMOOTH",
"179 14 OFFCURVE",
"205 55 OFFCURVE",
"222 55 CURVE SMOOTH",
"237 55 OFFCURVE",
"266 52 OFFCURVE",
"310 29 CURVE SMOOTH",
"467 -54 LINE",
"482 -31 LINE",
"358 38 LINE",
"404 80 OFFCURVE",
"442 133 OFFCURVE",
"442 175 CURVE SMOOTH",
"442 197 OFFCURVE",
"432 221 OFFCURVE",
"418 243 CURVE",
"463 260 OFFCURVE",
"500 265 OFFCURVE",
"530 265 CURVE SMOOTH",
"536 265 OFFCURVE",
"543 265 OFFCURVE",
"550 264 CURVE",
"550 252 LINE SMOOTH",
"550 187 OFFCURVE",
"506 152 OFFCURVE",
"506 123 CURVE SMOOTH",
"506 85 OFFCURVE",
"627 2 OFFCURVE",
"659 -17 CURVE",
"675 5 LINE",
"651 21 OFFCURVE",
"601 56 OFFCURVE",
"601 78 CURVE SMOOTH",
"601 101 OFFCURVE",
"645 139 OFFCURVE",
"645 203 CURVE"
);
},
{
closed = 1;
nodes = (
"418 408 LINE",
"418 490 LINE SMOOTH",
"418 526 OFFCURVE",
"434 553 OFFCURVE",
"454 567 CURVE",
"574 567 LINE",
"559 552 OFFCURVE",
"550 526 OFFCURVE",
"550 497 CURVE SMOOTH",
"550 324 LINE",
"520 334 OFFCURVE",
"490 339 OFFCURVE",
"455 339 CURVE SMOOTH",
"414 339 OFFCURVE",
"377 329 OFFCURVE",
"343 314 CURVE",
"327 322 OFFCURVE",
"312 328 OFFCURVE",
"300 328 CURVE SMOOTH",
"221 328 OFFCURVE",
"155 270 OFFCURVE",
"138 270 CURVE SMOOTH",
"130 270 OFFCURVE",
"123 278 OFFCURVE",
"123 293 CURVE SMOOTH",
"123 352 OFFCURVE",
"193 401 OFFCURVE",
"294 401 CURVE SMOOTH",
"326 401 OFFCURVE",
"360 397 OFFCURVE",
"397 389 CURVE"
);
}
);
width = 709;
}
);
unicode = 091D;
},
{
glyphname = Nya.dv;
layers = (
{
layerId = "1BB6288A-6CCF-4A5F-A7E1-DC794ABD1039";
paths = (
{
closed = 1;
nodes = (
"529 639 LINE",
"-13 639 LINE",
"-23 615 LINE",
"76 508 LINE",
"98 508 LINE",
"116 535 OFFCURVE",
"153 567 OFFCURVE",
"188 567 CURVE SMOOTH",
"488 567 LINE",
"473 552 OFFCURVE",
"464 526 OFFCURVE",
"464 497 CURVE SMOOTH",
"464 387 LINE",
"441 393 OFFCURVE",
"417 395 OFFCURVE",
"390 395 CURVE SMOOTH",
"363 395 OFFCURVE",
"337 391 OFFCURVE",
"313 383 CURVE",
"270 433 OFFCURVE",
"211 470 OFFCURVE",
"171 470 CURVE SMOOTH",
"123 470 OFFCURVE",
"77 428 OFFCURVE",
"60 374 CURVE",
"158 303 LINE",
"178 348 OFFCURVE",
"214 388 OFFCURVE",
"250 388 CURVE SMOOTH",
"265 388 OFFCURVE",
"273 372 OFFCURVE",
"273 339 CURVE SMOOTH",
"273 262 OFFCURVE",
"228 184 OFFCURVE",
"152 184 CURVE SMOOTH",
"103 184 OFFCURVE",
"59 223 OFFCURVE",
"10 311 CURVE",
"-17 295 LINE",
"29 187 OFFCURVE",
"128 102 OFFCURVE",
"217 102 CURVE SMOOTH",
"312 102 OFFCURVE",
"367 180 OFFCURVE",
"367 265 CURVE SMOOTH",
"367 277 OFFCURVE",
"365 289 OFFCURVE",
"361 302 CURVE",
"402 317 OFFCURVE",
"436 321 OFFCURVE",
"464 321 CURVE",
"464 252 LINE SMOOTH",
"464 187 OFFCURVE",
"420 152 OFFCURVE",
"420 123 CURVE SMOOTH",
"420 85 OFFCURVE",
"541 2 OFFCURVE",
"573 -17 CURVE",
"589 5 LINE",
"565 21 OFFCURVE",
"515 56 OFFCURVE",
"515 78 CURVE SMOOTH",
"515 101 OFFCURVE",
"559 139 OFFCURVE",
"559 203 CURVE SMOOTH",
"559 490 LINE SMOOTH",
"559 526 OFFCURVE",
"575 553 OFFCURVE",
"595 567 CURVE"
);
}
);
width = 623;
}
);
unicode = 091E;
},
{
glyphname = Tta.dv;
layers = (
{
layerId = "1BB6288A-6CCF-4A5F-A7E1-DC794ABD1039";
paths = (
{
closed = 1;
nodes = (
"409 362 LINE",
"409 490 LINE SMOOTH",
"409 526 OFFCURVE",
"425 553 OFFCURVE",
"445 567 CURVE",
"379 639 LINE",
"-3 639 LINE",
"-13 615 LINE",
"86 508 LINE",
"108 508 LINE",
"126 535 OFFCURVE",
"163 567 OFFCURVE",
"198 567 CURVE SMOOTH",
"338 567 LINE",
"323 552 OFFCURVE",
"314 526 OFFCURVE",
"314 497 CURVE SMOOTH",
"314 420 LINE",
"285 425 OFFCURVE",
"256 428 OFFCURVE",
"227 428 CURVE SMOOTH",
"113 428 OFFCURVE",
"23 351 OFFCURVE",
"23 225 CURVE SMOOTH",
"23 128 OFFCURVE",
"163 18 OFFCURVE",
"271 18 CURVE SMOOTH",
"351 18 OFFCURVE",
"417 69 OFFCURVE",
"450 146 CURVE",
"358 210 LINE",
"325 145 OFFCURVE",
"261 92 OFFCURVE",
"194 92 CURVE SMOOTH",
"142 92 OFFCURVE",
"119 115 OFFCURVE",
"119 151 CURVE SMOOTH",
"119 279 OFFCURVE",
"201 353 OFFCURVE",
"306 353 CURVE SMOOTH",
"332 353 OFFCURVE",
"367 351 OFFCURVE",
"392 348 CURVE"
);
}
);
width = 478;
}
);
unicode = 091F;
},
{
glyphname = Ttha.dv;
layers = (
{
layerId = "1BB6288A-6CCF-4A5F-A7E1-DC794ABD1039";
paths = (
{
closed = 1;
nodes = (
"419 490 LINE SMOOTH",
"419 526 OFFCURVE",
"436 553 OFFCURVE",
"455 567 CURVE",
"389 639 LINE",
"-3 639 LINE",
"-13 615 LINE",
"86 508 LINE",
"108 508 LINE",
"126 535 OFFCURVE",
"163 567 OFFCURVE",
"198 567 CURVE SMOOTH",
"348 567 LINE",
"333 552 OFFCURVE",
"324 526 OFFCURVE",
"324 497 CURVE SMOOTH",
"324 420 LINE",
"295 425 OFFCURVE",
"264 428 OFFCURVE",
"232 428 CURVE SMOOTH",
"114 428 OFFCURVE",
"23 351 OFFCURVE",
"23 225 CURVE SMOOTH",
"23 128 OFFCURVE",
"163 18 OFFCURVE",
"271 18 CURVE SMOOTH",
"367 18 OFFCURVE",
"473 86 OFFCURVE",
"473 200 CURVE SMOOTH",
"473 263 OFFCURVE",
"450 318 OFFCURVE",
"419 362 CURVE"
);
},
{
closed = 1;
nodes = (
"375 168 OFFCURVE",
"288 92 OFFCURVE",
"194 92 CURVE SMOOTH",
"142 92 OFFCURVE",
"119 115 OFFCURVE",
"119 151 CURVE SMOOTH",
"119 279 OFFCURVE",
"202 353 OFFCURVE",
"311 353 CURVE SMOOTH",
"329 353 OFFCURVE",
"350 352 OFFCURVE",
"370 351 CURVE",
"376 320 OFFCURVE",
"376 287 OFFCURVE",
"376 269 CURVE"
);
}
);
width = 512;
}
);
unicode = 0920;
},
{
glyphname = Dda.dv;
layers = (
{
layerId = "1BB6288A-6CCF-4A5F-A7E1-DC794ABD1039";
paths = (
{
closed = 1;
nodes = (
"124 471 OFFCURVE",
"36 422 OFFCURVE",
"36 323 CURVE SMOOTH",
"36 243 OFFCURVE",
"152 169 OFFCURVE",
"182 169 CURVE SMOOTH",
"208 169 OFFCURVE",
"304 228 OFFCURVE",
"367 228 CURVE SMOOTH",
"373 228 OFFCURVE",
"375 223 OFFCURVE",
"375 216 CURVE SMOOTH",
"375 175 OFFCURVE",
"297 92 OFFCURVE",
"212 92 CURVE SMOOTH",
"144 92 OFFCURVE",
"86 110 OFFCURVE",
"19 191 CURVE",
"-3 172 LINE",
"52 102 OFFCURVE",
"156 10 OFFCURVE",
"263 10 CURVE SMOOTH",
"379 10 OFFCURVE",
"462 96 OFFCURVE",
"462 169 CURVE SMOOTH",
"462 237 OFFCURVE",
"371 315 OFFCURVE",
"325 315 CURVE SMOOTH",
"231 315 OFFCURVE",
"158 257 OFFCURVE",
"138 257 CURVE SMOOTH",
"131 257 OFFCURVE",
"128 265 OFFCURVE",
"128 276 CURVE SMOOTH",
"128 338 OFFCURVE",
"203 394 OFFCURVE",
"304 394 CURVE SMOOTH",
"336 394 OFFCURVE",
"370 390 OFFCURVE",
"407 382 CURVE",
"428 401 LINE",
"428 490 LINE SMOOTH",
"428 526 OFFCURVE",
"444 553 OFFCURVE",
"464 567 CURVE",
"398 639 LINE",
"-3 639 LINE",
"-13 615 LINE",
"76 519 LINE",
"98 519 LINE",
"112 541 OFFCURVE",
"142 567 OFFCURVE",
"170 567 CURVE SMOOTH",
"357 567 LINE",
"342 552 OFFCURVE",
"333 526 OFFCURVE",
"333 497 CURVE SMOOTH",
"333 459 LINE",
"299 466 OFFCURVE",
"265 471 OFFCURVE",
"233 471 CURVE SMOOTH"
);
}
);
width = 501;
}
);
unicode = 0921;
},
{
glyphname = Ddha.dv;
layers = (
{
associatedMasterId = "1BB6288A-6CCF-4A5F-A7E1-DC794ABD1039";
layerId = "0044B45C-B520-4603-9C87-4A7BFDD17C6A";
name = public.background;
width = 507;
},
{
layerId = "1BB6288A-6CCF-4A5F-A7E1-DC794ABD1039";
paths = (
{
closed = 1;
nodes = (
"393 18 OFFCURVE",
"473 93 OFFCURVE",
"473 169 CURVE SMOOTH",
"473 214 OFFCURVE",
"385 312 OFFCURVE",
"311 312 CURVE SMOOTH",
"257 312 OFFCURVE",
"204 267 OFFCURVE",
"181 196 CURVE",
"274 141 LINE",
"297 192 OFFCURVE",
"335 233 OFFCURVE",
"366 233 CURVE SMOOTH",
"372 233 OFFCURVE",
"378 229 OFFCURVE",
"378 221 CURVE SMOOTH",
"378 159 OFFCURVE",
"313 92 OFFCURVE",
"221 92 CURVE SMOOTH",
"148 92 OFFCURVE",
"116 129 OFFCURVE",
"116 179 CURVE SMOOTH",
"116 301 OFFCURVE",
"206 377 OFFCURVE",
"328 377 CURVE SMOOTH",
"357 377 OFFCURVE",
"398 375 OFFCURVE",
"426 372 CURVE",
"443 386 LINE",
"443 490 LINE SMOOTH",
"443 526 OFFCURVE",
"459 553 OFFCURVE",
"479 567 CURVE",
"413 639 LINE",
"-3 639 LINE",
"-13 615 LINE",
"86 508 LINE",
"108 508 LINE",
"126 535 OFFCURVE",
"163 567 OFFCURVE",
"198 567 CURVE SMOOTH",
"372 567 LINE",
"357 552 OFFCURVE",
"348 526 OFFCURVE",
"348 497 CURVE SMOOTH",
"348 444 LINE",
"316 448 OFFCURVE",
"281 452 OFFCURVE",
"249 452 CURVE SMOOTH",
"108 452 OFFCURVE",
"20 373 OFFCURVE",
"20 253 CURVE SMOOTH",
"20 144 OFFCURVE",
"172 18 OFFCURVE",
"298 18 CURVE SMOOTH"
);
}
);
width = 507;
}
);
unicode = 0922;
},
{
glyphname = Nna.dv;
layers = (
{
layerId = "1BB6288A-6CCF-4A5F-A7E1-DC794ABD1039";
paths = (
{
closed = 1;
nodes = (
"561 490 LINE SMOOTH",
"561 526 OFFCURVE",
"577 553 OFFCURVE",
"597 567 CURVE",
"531 639 LINE",
"-13 639 LINE",
"-23 615 LINE",
"57 528 LINE",
"55 518 OFFCURVE",
"54 508 OFFCURVE",
"54 497 CURVE SMOOTH",
"54 381 LINE SMOOTH",
"54 324 OFFCURVE",
"30 277 OFFCURVE",
"30 252 CURVE SMOOTH",
"30 187 OFFCURVE",
"158 103 OFFCURVE",
"225 103 CURVE SMOOTH",
"288 103 OFFCURVE",
"361 163 OFFCURVE",
"361 243 CURVE SMOOTH",
"361 490 LINE SMOOTH",
"361 526 OFFCURVE",
"377 553 OFFCURVE",
"397 567 CURVE",
"490 567 LINE",
"475 552 OFFCURVE",
"466 526 OFFCURVE",
"466 497 CURVE SMOOTH",
"466 252 LINE SMOOTH",
"466 187 OFFCURVE",
"422 152 OFFCURVE",
"422 123 CURVE SMOOTH",
"422 85 OFFCURVE",
"543 2 OFFCURVE",
"575 -17 CURVE",
"591 5 LINE",
"567 21 OFFCURVE",
"517 56 OFFCURVE",
"517 78 CURVE SMOOTH",
"517 101 OFFCURVE",
"561 139 OFFCURVE",
"561 203 CURVE"
);
},
{
closed = 1;
nodes = (
"266 292 LINE SMOOTH",
"266 216 OFFCURVE",
"207 177 OFFCURVE",
"160 177 CURVE SMOOTH",
"137 177 OFFCURVE",
"121 186 OFFCURVE",
"121 200 CURVE SMOOTH",
"121 225 OFFCURVE",
"149 268 OFFCURVE",
"149 329 CURVE SMOOTH",
"149 490 LINE SMOOTH",
"149 526 OFFCURVE",
"165 553 OFFCURVE",
"185 567 CURVE",
"290 567 LINE",
"275 552 OFFCURVE",
"266 526 OFFCURVE",
"266 497 CURVE"
);
}
);
width = 625;
}
);
unicode = 0923;
},
{
glyphname = Ta.dv;
layers = (
{
layerId = "1BB6288A-6CCF-4A5F-A7E1-DC794ABD1039";
paths = (
{
closed = 1;
nodes = (
"404 490 LINE SMOOTH",
"404 526 OFFCURVE",
"420 553 OFFCURVE",
"440 567 CURVE",
"374 639 LINE",
"-8 639 LINE",
"-18 615 LINE",
"81 508 LINE",
"103 508 LINE",
"121 535 OFFCURVE",
"158 567 OFFCURVE",
"193 567 CURVE SMOOTH",
"333 567 LINE",
"318 552 OFFCURVE",
"309 526 OFFCURVE",
"309 497 CURVE SMOOTH",
"309 423 LINE",
"275 433 OFFCURVE",
"240 439 OFFCURVE",
"200 439 CURVE SMOOTH",
"107 439 OFFCURVE",
"18 341 OFFCURVE",
"18 220 CURVE SMOOTH",
"18 152 OFFCURVE",
"86 68 OFFCURVE",
"191 -7 CURVE",
"211 15 LINE",
"148 64 OFFCURVE",
"117 116 OFFCURVE",
"117 165 CURVE SMOOTH",
"117 269 OFFCURVE",
"190 363 OFFCURVE",
"266 363 CURVE SMOOTH",
"280 363 OFFCURVE",
"295 362 OFFCURVE",
"309 361 CURVE",
"309 252 LINE SMOOTH",
"309 187 OFFCURVE",
"265 152 OFFCURVE",
"265 123 CURVE SMOOTH",
"265 85 OFFCURVE",
"386 2 OFFCURVE",
"418 -17 CURVE",
"434 5 LINE",
"410 21 OFFCURVE",
"360 56 OFFCURVE",
"360 78 CURVE SMOOTH",
"360 101 OFFCURVE",
"404 139 OFFCURVE",
"404 203 CURVE"
);
}
);
width = 468;
}
);
unicode = 0924;
},
{
glyphname = Tha.dv;
layers = (
{
layerId = "1BB6288A-6CCF-4A5F-A7E1-DC794ABD1039";
paths = (
{
closed = 1;
nodes = (
"421 272 LINE SMOOTH",
"421 266 OFFCURVE",
"420 261 OFFCURVE",
"420 255 CURVE",
"334 239 OFFCURVE",
"248 193 OFFCURVE",
"187 140 CURVE",
"149 148 OFFCURVE",
"116 173 OFFCURVE",
"116 209 CURVE SMOOTH",
"116 252 OFFCURVE",
"154 273 OFFCURVE",
"214 293 CURVE SMOOTH",
"309 325 LINE",
"309 477 LINE SMOOTH",
"309 549 OFFCURVE",
"199 644 OFFCURVE",
"137 644 CURVE SMOOTH",
"74 644 OFFCURVE",
"27 603 OFFCURVE",
"27 541 CURVE SMOOTH",
"27 490 OFFCURVE",
"75 445 OFFCURVE",
"120 408 CURVE",
"142 425 LINE",
"123 447 OFFCURVE",
"117 467 OFFCURVE",
"117 484 CURVE SMOOTH",
"117 535 OFFCURVE",
"170 560 OFFCURVE",
"195 560 CURVE SMOOTH",
"205 560 OFFCURVE",
"214 548 OFFCURVE",
"214 533 CURVE SMOOTH",
"214 398 LINE",
"134 375 LINE SMOOTH",
"60 354 OFFCURVE",
"16 327 OFFCURVE",
"16 271 CURVE SMOOTH",
"16 171 OFFCURVE",
"196 64 OFFCURVE",
"268 64 CURVE",
"299 95 OFFCURVE",
"337 120 OFFCURVE",
"377 137 CURVE",
"387 91 OFFCURVE",
"507 3 OFFCURVE",
"540 -17 CURVE",
"556 5 LINE",
"529 25 OFFCURVE",
"472 70 OFFCURVE",
"472 98 CURVE SMOOTH",
"472 121 OFFCURVE",
"516 159 OFFCURVE",
"516 223 CURVE SMOOTH",
"516 493 LINE SMOOTH",
"516 527 OFFCURVE",
"532 553 OFFCURVE",
"552 567 CURVE",
"486 639 LINE",
"295 639 LINE",
"285 615 LINE",
"358 534 LINE",
"380 534 LINE",
"392 551 OFFCURVE",
"407 565 OFFCURVE",
"437 567 CURVE",
"445 567 LINE",
"430 552 OFFCURVE",
"421 526 OFFCURVE",
"421 497 CURVE"
);
}
);
width = 580;
}
);
unicode = 0925;
},
{
glyphname = Da.dv;
layers = (
{
layerId = "1BB6288A-6CCF-4A5F-A7E1-DC794ABD1039";
paths = (
{
closed = 1;
nodes = (
"120 446 OFFCURVE",
"22 375 OFFCURVE",
"22 255 CURVE SMOOTH",
"22 168 OFFCURVE",
"144 68 OFFCURVE",
"240 68 CURVE SMOOTH",
"259 68 OFFCURVE",
"274 70 OFFCURVE",
"296 75 CURVE",
"330 32 OFFCURVE",
"389 -14 OFFCURVE",
"427 -39 CURVE",
"448 -14 LINE",
"411 12 OFFCURVE",
"368 48 OFFCURVE",
"338 94 CURVE",
"401 126 OFFCURVE",
"447 179 OFFCURVE",
"447 218 CURVE SMOOTH",
"447 241 OFFCURVE",
"394 294 OFFCURVE",
"366 294 CURVE SMOOTH",
"296 294 OFFCURVE",
"240 238 OFFCURVE",
"240 182 CURVE SMOOTH",
"240 174 OFFCURVE",
"242 167 OFFCURVE",
"246 161 CURVE",
"220 150 OFFCURVE",
"193 142 OFFCURVE",
"163 142 CURVE SMOOTH",
"132 142 OFFCURVE",
"118 157 OFFCURVE",
"118 181 CURVE SMOOTH",
"118 303 OFFCURVE",
"208 371 OFFCURVE",
"319 371 CURVE SMOOTH",
"345 371 OFFCURVE",
"380 369 OFFCURVE",
"405 366 CURVE",
"422 380 LINE",
"422 490 LINE SMOOTH",
"422 526 OFFCURVE",
"438 553 OFFCURVE",
"458 567 CURVE",
"392 639 LINE",
"-3 639 LINE",
"-13 615 LINE",
"86 508 LINE",
"108 508 LINE",
"126 535 OFFCURVE",
"163 567 OFFCURVE",
"198 567 CURVE SMOOTH",
"351 567 LINE",
"336 552 OFFCURVE",
"327 526 OFFCURVE",
"327 497 CURVE SMOOTH",
"327 438 LINE",
"298 443 OFFCURVE",
"269 446 OFFCURVE",
"240 446 CURVE SMOOTH"
);
}
);
width = 486;
}
);
unicode = 0926;
},
{
glyphname = Dha.dv;
layers = (
{
layerId = "1BB6288A-6CCF-4A5F-A7E1-DC794ABD1039";
paths = (
{
closed = 1;
nodes = (
"-3 503 OFFCURVE",
"15 483 OFFCURVE",
"33 468 CURVE",
"40 423 OFFCURVE",
"71 390 OFFCURVE",
"109 361 CURVE",
"58 336 OFFCURVE",
"29 308 OFFCURVE",
"29 279 CURVE SMOOTH",
"29 168 OFFCURVE",
"210 74 OFFCURVE",
"257 74 CURVE SMOOTH",
"281 74 OFFCURVE",
"307 80 OFFCURVE",
"334 91 CURVE",
"368 50 OFFCURVE",
"445 -2 OFFCURVE",
"470 -17 CURVE",
"486 5 LINE",
"462 21 OFFCURVE",
"412 56 OFFCURVE",
"412 78 CURVE SMOOTH",
"412 101 OFFCURVE",
"456 139 OFFCURVE",
"456 203 CURVE SMOOTH",
"456 490 LINE SMOOTH",
"456 526 OFFCURVE",
"472 553 OFFCURVE",
"492 567 CURVE",
"426 639 LINE",
"284 639 LINE",
"274 615 LINE",
"362 519 LINE",
"361 512 OFFCURVE",
"361 504 OFFCURVE",
"361 497 CURVE SMOOTH",
"361 244 LINE",
"311 184 OFFCURVE",
"224 148 OFFCURVE",
"168 148 CURVE SMOOTH",
"141 148 OFFCURVE",
"121 175 OFFCURVE",
"121 204 CURVE SMOOTH",
"121 248 OFFCURVE",
"188 289 OFFCURVE",
"315 330 CURVE",
"255 411 LINE",
"211 399 OFFCURVE",
"172 387 OFFCURVE",
"140 374 CURVE",
"132 385 OFFCURVE",
"128 397 OFFCURVE",
"128 409 CURVE SMOOTH",
"128 426 OFFCURVE",
"129 444 OFFCURVE",
"132 461 CURVE",
"170 482 OFFCURVE",
"237 528 OFFCURVE",
"237 566 CURVE SMOOTH",
"237 593 OFFCURVE",
"142 661 OFFCURVE",
"109 661 CURVE SMOOTH",
"86 661 OFFCURVE",
"49 605 OFFCURVE",
"36 537 CURVE",
"17 530 OFFCURVE",
"-3 520 OFFCURVE",
"-3 513 CURVE SMOOTH"
);
}
);
width = 520;
}
);
unicode = 0927;
},
{
glyphname = Na.dv;
layers = (
{
layerId = "1BB6288A-6CCF-4A5F-A7E1-DC794ABD1039";
paths = (
{
closed = 1;
nodes = (
"426 490 LINE SMOOTH",
"426 526 OFFCURVE",
"442 553 OFFCURVE",
"462 567 CURVE",
"396 639 LINE",
"-8 639 LINE",
"-18 615 LINE",
"81 508 LINE",
"103 508 LINE",
"120 533 OFFCURVE",
"154 564 OFFCURVE",
"187 567 CURVE",
"355 567 LINE",
"340 552 OFFCURVE",
"331 526 OFFCURVE",
"331 497 CURVE SMOOTH",
"331 414 LINE",
"294 427 OFFCURVE",
"259 434 OFFCURVE",
"216 434 CURVE SMOOTH",
"103 434 OFFCURVE",
"13 313 OFFCURVE",
"13 202 CURVE SMOOTH",
"13 150 OFFCURVE",
"111 88 OFFCURVE",
"153 88 CURVE SMOOTH",
"179 88 OFFCURVE",
"197 113 OFFCURVE",
"197 141 CURVE SMOOTH",
"197 180 OFFCURVE",
"194 256 OFFCURVE",
"190 306 CURVE",
"213 345 OFFCURVE",
"251 359 OFFCURVE",
"279 359 CURVE SMOOTH",
"296 359 OFFCURVE",
"313 358 OFFCURVE",
"331 356 CURVE",
"331 252 LINE SMOOTH",
"331 187 OFFCURVE",
"287 152 OFFCURVE",
"287 123 CURVE SMOOTH",
"287 85 OFFCURVE",
"408 2 OFFCURVE",
"440 -17 CURVE",
"456 5 LINE",
"432 21 OFFCURVE",
"382 56 OFFCURVE",
"382 78 CURVE SMOOTH",
"382 101 OFFCURVE",
"426 139 OFFCURVE",
"426 203 CURVE"
);
}
);
width = 490;
}
);
unicode = 0928;
},
{
glyphname = NaNukta.dv;
layers = (
{
associatedMasterId = "1BB6288A-6CCF-4A5F-A7E1-DC794ABD1039";
layerId = "C8563CC3-17B3-454B-B4EF-8E0393D5ADF7";
name = img;
width = 490;
},
{
layerId = "1BB6288A-6CCF-4A5F-A7E1-DC794ABD1039";
paths = (
{
closed = 1;
nodes = (
"396 639 LINE",
"-8 639 LINE",
"-18 615 LINE",
"81 508 LINE",
"103 508 LINE",
"120 533 OFFCURVE",
"154 564 OFFCURVE",
"187 567 CURVE",
"355 567 LINE",
"340 552 OFFCURVE",
"331 526 OFFCURVE",
"331 497 CURVE SMOOTH",
"331 423 LINE",
"294 436 OFFCURVE",
"259 443 OFFCURVE",
"216 443 CURVE SMOOTH",
"103 443 OFFCURVE",
"13 347 OFFCURVE",
"13 261 CURVE SMOOTH",
"13 209 OFFCURVE",
"111 147 OFFCURVE",
"153 147 CURVE SMOOTH",
"179 147 OFFCURVE",
"197 172 OFFCURVE",
"197 200 CURVE SMOOTH",
"197 235 OFFCURVE",
"194 294 OFFCURVE",
"190 335 CURVE",
"213 360 OFFCURVE",
"251 368 OFFCURVE",
"279 368 CURVE SMOOTH",
"296 368 OFFCURVE",
"313 367 OFFCURVE",
"331 365 CURVE",
"331 252 LINE SMOOTH",
"331 187 OFFCURVE",
"287 152 OFFCURVE",
"287 123 CURVE SMOOTH",
"287 85 OFFCURVE",
"408 2 OFFCURVE",
"440 -17 CURVE",
"456 5 LINE",
"432 21 OFFCURVE",
"382 56 OFFCURVE",
"382 78 CURVE SMOOTH",
"382 101 OFFCURVE",
"426 139 OFFCURVE",
"426 203 CURVE SMOOTH",
"426 490 LINE SMOOTH",
"426 526 OFFCURVE",
"442 553 OFFCURVE",
"462 567 CURVE"
);
},
{
closed = 1;
nodes = (
"49 36 LINE",
"73 16 OFFCURVE",
"96 -2 OFFCURVE",
"118 -24 CURVE",
"140 -9 OFFCURVE",
"181 8 OFFCURVE",
"207 17 CURVE",
"207 26 LINE",
"185 50 OFFCURVE",
"163 69 OFFCURVE",
"138 86 CURVE",
"110 76 OFFCURVE",
"72 61 OFFCURVE",
"49 45 CURVE"
);
}
);
width = 490;
}
);
unicode = 0929;
},
{
glyphname = Pa.dv;
layers = (
{
layerId = "1BB6288A-6CCF-4A5F-A7E1-DC794ABD1039";
paths = (
{
closed = 1;
nodes = (
"378 490 LINE SMOOTH",
"378 526 OFFCURVE",
"394 553 OFFCURVE",
"414 567 CURVE",
"348 639 LINE",
"-8 639 LINE",
"-18 615 LINE",
"62 528 LINE",
"60 518 OFFCURVE",
"59 508 OFFCURVE",
"59 497 CURVE SMOOTH",
"59 381 LINE SMOOTH",
"59 324 OFFCURVE",
"35 277 OFFCURVE",
"35 252 CURVE SMOOTH",
"35 187 OFFCURVE",
"149 103 OFFCURVE",
"210 103 CURVE SMOOTH",
"220 103 OFFCURVE",
"231 105 OFFCURVE",
"243 108 CURVE",
"265 67 OFFCURVE",
"363 0 OFFCURVE",
"392 -17 CURVE",
"408 5 LINE",
"384 21 OFFCURVE",
"334 56 OFFCURVE",
"334 78 CURVE SMOOTH",
"334 101 OFFCURVE",
"378 139 OFFCURVE",
"378 203 CURVE"
);
},
{
closed = 1;
nodes = (
"283 249 LINE",
"246 206 OFFCURVE",
"180 177 OFFCURVE",
"145 177 CURVE SMOOTH",
"134 177 OFFCURVE",
"126 186 OFFCURVE",
"126 200 CURVE SMOOTH",
"126 225 OFFCURVE",
"154 268 OFFCURVE",
"154 329 CURVE SMOOTH",
"154 490 LINE SMOOTH",
"154 526 OFFCURVE",
"170 553 OFFCURVE",
"190 567 CURVE",
"307 567 LINE",
"292 552 OFFCURVE",
"283 526 OFFCURVE",
"283 497 CURVE"
);
}
);
width = 442;
}
);
unicode = 092A;
},
{
glyphname = Pha.dv;
layers = (
{
associatedMasterId = "1BB6288A-6CCF-4A5F-A7E1-DC794ABD1039";
layerId = "C8563CC3-17B3-454B-B4EF-8E0393D5ADF7";
name = img;
width = 665;
},
{
layerId = "1BB6288A-6CCF-4A5F-A7E1-DC794ABD1039";
paths = (
{
closed = 1;
nodes = (
"557 94 OFFCURVE",
"620 194 OFFCURVE",
"620 300 CURVE SMOOTH",
"620 357 OFFCURVE",
"514 456 OFFCURVE",
"437 456 CURVE SMOOTH",
"419 456 OFFCURVE",
"398 445 OFFCURVE",
"378 430 CURVE",
"378 490 LINE SMOOTH",
"378 526 OFFCURVE",
"394 553 OFFCURVE",
"414 567 CURVE",
"480 567 LINE SMOOTH",
"516 567 OFFCURVE",
"545 537 OFFCURVE",
"573 508 CURVE",
"595 508 LINE",
"652 567 LINE",
"586 639 LINE",
"-8 639 LINE",
"-18 615 LINE",
"62 528 LINE",
"60 518 OFFCURVE",
"59 508 OFFCURVE",
"59 497 CURVE SMOOTH",
"59 381 LINE SMOOTH",
"59 324 OFFCURVE",
"35 277 OFFCURVE",
"35 252 CURVE SMOOTH",
"35 187 OFFCURVE",
"149 103 OFFCURVE",
"210 103 CURVE SMOOTH",
"222 103 OFFCURVE",
"237 106 OFFCURVE",
"252 111 CURVE",
"270 69 OFFCURVE",
"365 0 OFFCURVE",
"392 -17 CURVE",
"408 5 LINE",
"387 21 OFFCURVE",
"344 56 OFFCURVE",
"344 78 CURVE SMOOTH",
"344 101 OFFCURVE",
"378 139 OFFCURVE",
"378 203 CURVE SMOOTH",
"378 267 LINE",
"410 320 OFFCURVE",
"467 375 OFFCURVE",
"504 375 CURVE SMOOTH",
"517 375 OFFCURVE",
"525 365 OFFCURVE",
"525 355 CURVE SMOOTH",
"525 247 OFFCURVE",
"461 150 OFFCURVE",
"461 129 CURVE SMOOTH",
"461 91 OFFCURVE",
"574 10 OFFCURVE",
"606 -9 CURVE",
"622 13 LINE",
"598 29 OFFCURVE",
"557 58 OFFCURVE",
"557 80 CURVE SMOOTH"
);
},
{
closed = 1;
nodes = (
"283 249 LINE",
"246 206 OFFCURVE",
"180 177 OFFCURVE",
"145 177 CURVE SMOOTH",
"134 177 OFFCURVE",
"126 186 OFFCURVE",
"126 200 CURVE SMOOTH",
"126 225 OFFCURVE",
"154 268 OFFCURVE",
"154 329 CURVE SMOOTH",
"154 490 LINE SMOOTH",
"154 526 OFFCURVE",
"170 553 OFFCURVE",
"190 567 CURVE",
"307 567 LINE",
"292 552 OFFCURVE",
"283 526 OFFCURVE",
"283 497 CURVE"
);
}
);
width = 665;
}
);
unicode = 092B;
},
{
glyphname = Ba.dv;
layers = (
{
layerId = "1BB6288A-6CCF-4A5F-A7E1-DC794ABD1039";
paths = (
{
closed = 1;
nodes = (
"414 490 LINE SMOOTH",
"414 526 OFFCURVE",
"430 553 OFFCURVE",
"450 567 CURVE",
"384 639 LINE",
"-8 639 LINE",
"-18 615 LINE",
"81 508 LINE",
"103 508 LINE",
"120 533 OFFCURVE",
"154 564 OFFCURVE",
"187 567 CURVE",
"343 567 LINE",
"328 552 OFFCURVE",
"319 526 OFFCURVE",
"319 497 CURVE SMOOTH",
"319 433 LINE",
"289 444 OFFCURVE",
"244 453 OFFCURVE",
"192 453 CURVE SMOOTH",
"100 453 OFFCURVE",
"18 381 OFFCURVE",
"18 258 CURVE SMOOTH",
"18 151 OFFCURVE",
"182 80 OFFCURVE",
"232 80 CURVE SMOOTH",
"251 80 OFFCURVE",
"271 85 OFFCURVE",
"290 92 CURVE",
"324 51 OFFCURVE",
"403 -2 OFFCURVE",
"428 -17 CURVE",
"444 5 LINE",
"420 21 OFFCURVE",
"370 56 OFFCURVE",
"370 78 CURVE SMOOTH",
"370 101 OFFCURVE",
"414 139 OFFCURVE",
"414 203 CURVE"
);
},
{
closed = 1;
nodes = (
"128 154 OFFCURVE",
"114 173 OFFCURVE",
"114 194 CURVE SMOOTH",
"114 239 OFFCURVE",
"125 276 OFFCURVE",
"143 305 CURVE",
"188 266 OFFCURVE",
"248 240 OFFCURVE",
"297 222 CURVE",
"257 181 OFFCURVE",
"196 154 OFFCURVE",
"154 154 CURVE SMOOTH"
);
},
{
closed = 1;
nodes = (
"282 379 OFFCURVE",
"299 378 OFFCURVE",
"319 375 CURVE",
"319 250 LINE",
"264 270 OFFCURVE",
"208 297 OFFCURVE",
"167 336 CURVE",
"195 364 OFFCURVE",
"231 379 OFFCURVE",
"268 379 CURVE SMOOTH"
);
}
);
width = 478;
}
);
unicode = 092C;
},
{
glyphname = Bha.dv;
layers = (
{
layerId = "1BB6288A-6CCF-4A5F-A7E1-DC794ABD1039";
paths = (
{
closed = 1;
nodes = (
"422 639 LINE",
"227 639 LINE",
"219 619 LINE",
"286 545 LINE",
"305 545 LINE",
"313 556 OFFCURVE",
"328 565 OFFCURVE",
"350 567 CURVE",
"381 567 LINE",
"366 552 OFFCURVE",
"357 526 OFFCURVE",
"357 497 CURVE SMOOTH",
"357 365 LINE",
"326 374 OFFCURVE",
"295 379 OFFCURVE",
"259 379 CURVE SMOOTH",
"239 379 OFFCURVE",
"219 376 OFFCURVE",
"201 372 CURVE",
"201 573 LINE SMOOTH",
"201 592 OFFCURVE",
"127 664 OFFCURVE",
"103 664 CURVE SMOOTH",
"75 664 OFFCURVE",
"7 608 OFFCURVE",
"7 561 CURVE SMOOTH",
"7 532 OFFCURVE",
"65 475 OFFCURVE",
"106 448 CURVE",
"106 332 LINE",
"57 298 OFFCURVE",
"27 251 OFFCURVE",
"27 207 CURVE SMOOTH",
"27 140 OFFCURVE",
"118 63 OFFCURVE",
"157 63 CURVE SMOOTH",
"183 63 OFFCURVE",
"201 89 OFFCURVE",
"201 116 CURVE SMOOTH",
"201 272 LINE",
"243 298 OFFCURVE",
"291 305 OFFCURVE",
"334 305 CURVE SMOOTH",
"341 305 OFFCURVE",
"349 305 OFFCURVE",
"357 304 CURVE",
"357 252 LINE SMOOTH",
"357 187 OFFCURVE",
"313 152 OFFCURVE",
"313 123 CURVE SMOOTH",
"313 85 OFFCURVE",
"434 2 OFFCURVE",
"466 -17 CURVE",
"482 5 LINE",
"458 21 OFFCURVE",
"408 56 OFFCURVE",
"408 78 CURVE SMOOTH",
"408 101 OFFCURVE",
"452 139 OFFCURVE",
"452 203 CURVE SMOOTH",
"452 490 LINE SMOOTH",
"452 526 OFFCURVE",
"468 553 OFFCURVE",
"488 567 CURVE"
);
}
);
width = 516;
}
);
unicode = 092D;
},
{
glyphname = Ma.dv;
layers = (
{
layerId = "1BB6288A-6CCF-4A5F-A7E1-DC794ABD1039";
paths = (
{
closed = 1;
nodes = (
"27 140 OFFCURVE",
"118 63 OFFCURVE",
"157 63 CURVE SMOOTH",
"183 63 OFFCURVE",
"201 89 OFFCURVE",
"201 116 CURVE SMOOTH",
"201 282 LINE",
"243 308 OFFCURVE",
"291 315 OFFCURVE",
"334 315 CURVE SMOOTH",
"341 315 OFFCURVE",
"349 314 OFFCURVE",
"357 314 CURVE",
"357 252 LINE SMOOTH",
"357 187 OFFCURVE",
"313 152 OFFCURVE",
"313 123 CURVE SMOOTH",
"313 85 OFFCURVE",
"434 2 OFFCURVE",
"466 -17 CURVE",
"482 5 LINE",
"458 21 OFFCURVE",
"408 56 OFFCURVE",
"408 78 CURVE SMOOTH",
"408 101 OFFCURVE",
"452 139 OFFCURVE",
"452 203 CURVE SMOOTH",
"452 493 LINE SMOOTH",
"452 527 OFFCURVE",
"468 553 OFFCURVE",
"488 567 CURVE",
"422 639 LINE",
"-13 639 LINE",
"-23 615 LINE",
"50 534 LINE",
"72 534 LINE",
"84 551 OFFCURVE",
"99 567 OFFCURVE",
"130 567 CURVE",
"115 552 OFFCURVE",
"106 526 OFFCURVE",
"106 497 CURVE SMOOTH",
"106 340 LINE",
"57 304 OFFCURVE",
"27 254 OFFCURVE",
"27 207 CURVE SMOOTH"
);
},
{
closed = 1;
nodes = (
"357 375 LINE",
"326 384 OFFCURVE",
"295 389 OFFCURVE",
"259 389 CURVE SMOOTH",
"239 389 OFFCURVE",
"219 386 OFFCURVE",
"201 382 CURVE",
"201 490 LINE SMOOTH",
"201 526 OFFCURVE",
"217 553 OFFCURVE",
"237 567 CURVE",
"381 567 LINE",
"366 552 OFFCURVE",
"357 526 OFFCURVE",
"357 497 CURVE"
);
}
);
width = 516;
}
);
unicode = 092E;
},
{
glyphname = Ya.dv;
layers = (
{
layerId = "1BB6288A-6CCF-4A5F-A7E1-DC794ABD1039";
paths = (
{
closed = 1;
nodes = (
"511 484 LINE SMOOTH",
"511 526 OFFCURVE",
"527 553 OFFCURVE",
"547 567 CURVE",
"481 639 LINE",
"-8 639 LINE",
"-18 615 LINE",
"81 508 LINE",
"103 508 LINE",
"120 533 OFFCURVE",
"154 564 OFFCURVE",
"187 567 CURVE",
"223 567 LINE",
"208 552 OFFCURVE",
"199 526 OFFCURVE",
"199 497 CURVE SMOOTH",
"199 406 LINE",
"123 389 LINE SMOOTH",
"55 374 OFFCURVE",
"24 338 OFFCURVE",
"24 283 CURVE SMOOTH",
"24 181 OFFCURVE",
"209 67 OFFCURVE",
"279 67 CURVE",
"307 101 OFFCURVE",
"339 125 OFFCURVE",
"372 141 CURVE",
"374 97 OFFCURVE",
"501 4 OFFCURVE",
"535 -17 CURVE",
"551 5 LINE",
"524 25 OFFCURVE",
"467 70 OFFCURVE",
"467 98 CURVE SMOOTH",
"467 121 OFFCURVE",
"511 159 OFFCURVE",
"511 223 CURVE"
);
},
{
closed = 1;
nodes = (
"163 152 OFFCURVE",
"124 182 OFFCURVE",
"124 221 CURVE SMOOTH",
"124 263 OFFCURVE",
"148 291 OFFCURVE",
"203 307 CURVE SMOOTH",
"294 333 LINE",
"294 490 LINE SMOOTH",
"294 526 OFFCURVE",
"310 553 OFFCURVE",
"330 567 CURVE",
"440 567 LINE",
"425 552 OFFCURVE",
"416 526 OFFCURVE",
"416 497 CURVE SMOOTH",
"416 272 LINE SMOOTH",
"416 268 OFFCURVE",
"416 264 OFFCURVE",
"415 261 CURVE",
"331 245 OFFCURVE",
"258 203 OFFCURVE",
"198 143 CURVE"
);
}
);
width = 575;
}
);
unicode = 092F;
},
{
glyphname = Ra.dv;
layers = (
{
layerId = "1BB6288A-6CCF-4A5F-A7E1-DC794ABD1039";
paths = (
{
closed = 1;
nodes = (
"268 639 LINE",
"-8 639 LINE",
"-18 615 LINE",
"81 508 LINE",
"103 508 LINE",
"120 533 OFFCURVE",
"154 564 OFFCURVE",
"187 567 CURVE",
"227 567 LINE",
"212 552 OFFCURVE",
"203 526 OFFCURVE",
"203 497 CURVE SMOOTH",
"203 414 LINE SMOOTH",
"203 373 OFFCURVE",
"194 346 OFFCURVE",
"180 346 CURVE SMOOTH",
"170 346 OFFCURVE",
"122 398 OFFCURVE",
"92 398 CURVE SMOOTH",
"62 398 OFFCURVE",
"19 366 OFFCURVE",
"19 299 CURVE SMOOTH",
"19 211 OFFCURVE",
"198 46 OFFCURVE",
"289 -21 CURVE",
"309 3 LINE",
"248 53 OFFCURVE",
"154 142 OFFCURVE",
"154 168 CURVE SMOOTH",
"154 176 OFFCURVE",
"185 173 OFFCURVE",
"218 192 CURVE SMOOTH",
"269 222 OFFCURVE",
"298 276 OFFCURVE",
"298 365 CURVE SMOOTH",
"298 490 LINE SMOOTH",
"298 526 OFFCURVE",
"314 553 OFFCURVE",
"334 567 CURVE"
);
}
);
width = 353;
}
);
unicode = 0930;
},
{
glyphname = RaNukta.dv;
layers = (
{
layerId = "1BB6288A-6CCF-4A5F-A7E1-DC794ABD1039";
paths = (
{
closed = 1;
nodes = (
"298 490 LINE SMOOTH",
"298 526 OFFCURVE",
"314 553 OFFCURVE",
"334 567 CURVE",
"268 639 LINE",
"-8 639 LINE",
"-18 615 LINE",
"81 508 LINE",
"103 508 LINE",
"120 533 OFFCURVE",
"154 564 OFFCURVE",
"187 567 CURVE",
"227 567 LINE",
"212 552 OFFCURVE",
"203 526 OFFCURVE",
"203 497 CURVE SMOOTH",
"203 414 LINE SMOOTH",
"203 373 OFFCURVE",
"194 346 OFFCURVE",
"180 346 CURVE SMOOTH",
"170 346 OFFCURVE",
"122 398 OFFCURVE",
"92 398 CURVE SMOOTH",
"62 398 OFFCURVE",
"19 366 OFFCURVE",
"19 299 CURVE SMOOTH",
"19 211 OFFCURVE",
"209 44 OFFCURVE",
"304 -21 CURVE",
"324 3 LINE",
"259 53 OFFCURVE",
"161 140 OFFCURVE",
"161 166 CURVE SMOOTH",
"161 174 OFFCURVE",
"185 173 OFFCURVE",
"218 192 CURVE SMOOTH",
"269 222 OFFCURVE",
"298 276 OFFCURVE",
"298 365 CURVE"
);
},
{
closed = 1;
nodes = (
"-8 16 LINE",
"16 -4 OFFCURVE",
"39 -22 OFFCURVE",
"61 -44 CURVE",
"83 -29 OFFCURVE",
"124 -12 OFFCURVE",
"150 -3 CURVE",
"150 6 LINE",
"128 30 OFFCURVE",
"106 49 OFFCURVE",
"81 66 CURVE",
"53 56 OFFCURVE",
"15 41 OFFCURVE",
"-8 25 CURVE"
);
}
);
width = 353;
}
);
unicode = 0931;
},
{
glyphname = La.dv;
layers = (
{
layerId = "1BB6288A-6CCF-4A5F-A7E1-DC794ABD1039";
paths = (
{
closed = 1;
nodes = (
"557 492 LINE SMOOTH",
"557 527 OFFCURVE",
"573 553 OFFCURVE",
"593 567 CURVE",
"527 639 LINE",
"-8 639 LINE",
"-18 615 LINE",
"81 508 LINE",
"103 508 LINE",
"121 535 OFFCURVE",
"158 567 OFFCURVE",
"193 567 CURVE SMOOTH",
"486 567 LINE",
"471 552 OFFCURVE",
"462 526 OFFCURVE",
"462 497 CURVE SMOOTH",
"462 440 LINE",
"445 449 OFFCURVE",
"431 455 OFFCURVE",
"422 455 CURVE SMOOTH",
"374 455 OFFCURVE",
"337 415 OFFCURVE",
"312 376 CURVE",
"276 419 OFFCURVE",
"214 456 OFFCURVE",
"168 456 CURVE SMOOTH",
"92 456 OFFCURVE",
"23 361 OFFCURVE",
"23 258 CURVE SMOOTH",
"23 125 OFFCURVE",
"173 28 OFFCURVE",
"300 -12 CURVE",
"315 14 LINE",
"227 50 OFFCURVE",
"122 95 OFFCURVE",
"122 196 CURVE SMOOTH",
"122 297 OFFCURVE",
"187 382 OFFCURVE",
"236 382 CURVE SMOOTH",
"257 382 OFFCURVE",
"266 360 OFFCURVE",
"266 338 CURVE SMOOTH",
"266 315 LINE",
"246 281 OFFCURVE",
"227 238 OFFCURVE",
"223 207 CURVE",
"223 180 OFFCURVE",
"289 128 OFFCURVE",
"313 128 CURVE SMOOTH",
"326 128 OFFCURVE",
"344 184 OFFCURVE",
"348 225 CURVE",
"370 313 OFFCURVE",
"413 372 OFFCURVE",
"462 390 CURVE",
"462 252 LINE SMOOTH",
"462 187 OFFCURVE",
"418 152 OFFCURVE",
"418 123 CURVE SMOOTH",
"418 85 OFFCURVE",
"539 2 OFFCURVE",
"571 -17 CURVE",
"587 5 LINE",
"563 21 OFFCURVE",
"513 56 OFFCURVE",
"513 78 CURVE SMOOTH",
"513 101 OFFCURVE",
"557 139 OFFCURVE",
"557 203 CURVE"
);
}
);
width = 621;
}
);
unicode = 0932;
},
{
glyphname = Lla.dv;
layers = (
{
layerId = "1BB6288A-6CCF-4A5F-A7E1-DC794ABD1039";
paths = (
{
closed = 1;
nodes = (
"523 639 LINE",
"-3 639 LINE",
"-13 615 LINE",
"86 508 LINE",
"108 508 LINE",
"126 535 OFFCURVE",
"163 567 OFFCURVE",
"198 567 CURVE SMOOTH",
"471 567 LINE",
"450 550 OFFCURVE",
"438 520 OFFCURVE",
"438 487 CURVE SMOOTH",
"438 438 LINE",
"424 442 OFFCURVE",
"412 445 OFFCURVE",
"401 445 CURVE SMOOTH",
"358 445 OFFCURVE",
"331 430 OFFCURVE",
"313 405 CURVE",
"279 427 OFFCURVE",
"240 445 OFFCURVE",
"184 445 CURVE SMOOTH",
"58 445 OFFCURVE",
"21 327 OFFCURVE",
"21 226 CURVE SMOOTH",
"21 121 OFFCURVE",
"156 30 OFFCURVE",
"223 30 CURVE SMOOTH",
"265 30 OFFCURVE",
"292 44 OFFCURVE",
"311 69 CURVE",
"344 47 OFFCURVE",
"384 30 OFFCURVE",
"440 30 CURVE SMOOTH",
"566 30 OFFCURVE",
"603 148 OFFCURVE",
"603 249 CURVE SMOOTH",
"603 299 OFFCURVE",
"572 346 OFFCURVE",
"533 381 CURVE",
"533 470 LINE SMOOTH",
"533 516 OFFCURVE",
"557 549 OFFCURVE",
"589 567 CURVE"
);
},
{
closed = 1;
nodes = (
"249 192 LINE SMOOTH",
"236 136 OFFCURVE",
"215 104 OFFCURVE",
"168 104 CURVE SMOOTH",
"140 104 OFFCURVE",
"117 125 OFFCURVE",
"117 168 CURVE SMOOTH",
"117 257 OFFCURVE",
"150 371 OFFCURVE",
"251 371 CURVE SMOOTH",
"264 371 OFFCURVE",
"279 368 OFFCURVE",
"291 364 CURVE",
"284 346 OFFCURVE",
"279 325 OFFCURVE",
"274 302 CURVE SMOOTH"
);
},
{
closed = 1;
nodes = (
"375 283 LINE SMOOTH",
"388 339 OFFCURVE",
"409 371 OFFCURVE",
"456 371 CURVE SMOOTH",
"484 371 OFFCURVE",
"507 350 OFFCURVE",
"507 307 CURVE SMOOTH",
"507 218 OFFCURVE",
"474 104 OFFCURVE",
"373 104 CURVE SMOOTH",
"359 104 OFFCURVE",
"345 106 OFFCURVE",
"332 110 CURVE",
"339 129 OFFCURVE",
"345 150 OFFCURVE",
"350 173 CURVE"
);
}
);
width = 646;
}
);
unicode = 0933;
},
{
glyphname = LlaNukta.dv;
layers = (
{
associatedMasterId = "1BB6288A-6CCF-4A5F-A7E1-DC794ABD1039";
layerId = "C8563CC3-17B3-454B-B4EF-8E0393D5ADF7";
name = img;
width = 640;
},
{
layerId = "1BB6288A-6CCF-4A5F-A7E1-DC794ABD1039";
paths = (
{
closed = 1;
nodes = (
"-13 615 LINE",
"86 508 LINE",
"108 508 LINE",
"126 535 OFFCURVE",
"163 567 OFFCURVE",
"198 567 CURVE SMOOTH",
"465 567 LINE",
"444 550 OFFCURVE",
"432 520 OFFCURVE",
"432 487 CURVE SMOOTH",
"432 449 LINE",
"419 453 OFFCURVE",
"408 455 OFFCURVE",
"398 455 CURVE SMOOTH",
"356 455 OFFCURVE",
"328 440 OFFCURVE",
"309 416 CURVE",
"276 437 OFFCURVE",
"236 455 OFFCURVE",
"181 455 CURVE SMOOTH",
"55 455 OFFCURVE",
"18 337 OFFCURVE",
"18 236 CURVE SMOOTH",
"18 141 OFFCURVE",
"153 60 OFFCURVE",
"220 60 CURVE SMOOTH",
"262 60 OFFCURVE",
"289 74 OFFCURVE",
"308 99 CURVE",
"342 77 OFFCURVE",
"381 60 OFFCURVE",
"437 60 CURVE SMOOTH",
"563 60 OFFCURVE",
"600 168 OFFCURVE",
"600 259 CURVE SMOOTH",
"600 310 OFFCURVE",
"568 358 OFFCURVE",
"527 394 CURVE",
"527 470 LINE SMOOTH",
"527 516 OFFCURVE",
"551 549 OFFCURVE",
"583 567 CURVE",
"517 639 LINE",
"-3 639 LINE"
);
},
{
closed = 1;
nodes = (
"370 293 LINE SMOOTH",
"383 349 OFFCURVE",
"406 381 OFFCURVE",
"453 381 CURVE SMOOTH",
"481 381 OFFCURVE",
"504 360 OFFCURVE",
"504 317 CURVE SMOOTH",
"504 236 OFFCURVE",
"471 135 OFFCURVE",
"370 135 CURVE SMOOTH",
"357 135 OFFCURVE",
"343 137 OFFCURVE",
"331 141 CURVE",
"338 159 OFFCURVE",
"344 180 OFFCURVE",
"349 203 CURVE"
);
},
{
closed = 1;
nodes = (
"248 222 LINE SMOOTH",
"235 166 OFFCURVE",
"212 134 OFFCURVE",
"165 134 CURVE SMOOTH",
"137 134 OFFCURVE",
"114 155 OFFCURVE",
"114 198 CURVE SMOOTH",
"114 279 OFFCURVE",
"147 380 OFFCURVE",
"248 380 CURVE SMOOTH",
"261 380 OFFCURVE",
"274 377 OFFCURVE",
"286 374 CURVE",
"279 355 OFFCURVE",
"274 334 OFFCURVE",
"269 312 CURVE SMOOTH"
);
},
{
closed = 1;
nodes = (
"216 -17 LINE",
"240 -37 OFFCURVE",
"263 -55 OFFCURVE",
"285 -77 CURVE",
"307 -62 OFFCURVE",
"348 -45 OFFCURVE",
"374 -36 CURVE",
"374 -27 LINE",
"352 -3 OFFCURVE",
"330 16 OFFCURVE",
"305 33 CURVE",
"277 23 OFFCURVE",
"239 8 OFFCURVE",
"216 -8 CURVE"
);
}
);
width = 640;
}
);
unicode = 0934;
},
{
glyphname = Va.dv;
layers = (
{
layerId = "1BB6288A-6CCF-4A5F-A7E1-DC794ABD1039";
paths = (
{
closed = 1;
nodes = (
"314 428 LINE",
"284 439 OFFCURVE",
"239 448 OFFCURVE",
"187 448 CURVE SMOOTH",
"96 448 OFFCURVE",
"18 381 OFFCURVE",
"18 258 CURVE SMOOTH",
"18 151 OFFCURVE",
"179 80 OFFCURVE",
"227 80 CURVE SMOOTH",
"246 80 OFFCURVE",
"266 85 OFFCURVE",
"285 92 CURVE",
"319 51 OFFCURVE",
"398 -2 OFFCURVE",
"423 -17 CURVE",
"439 5 LINE",
"415 21 OFFCURVE",
"365 56 OFFCURVE",
"365 78 CURVE SMOOTH",
"365 101 OFFCURVE",
"409 139 OFFCURVE",
"409 203 CURVE SMOOTH",
"409 490 LINE SMOOTH",
"409 526 OFFCURVE",
"425 553 OFFCURVE",
"445 567 CURVE",
"379 639 LINE",
"-8 639 LINE",
"-18 615 LINE",
"81 508 LINE",
"103 508 LINE",
"120 534 OFFCURVE",
"155 565 OFFCURVE",
"189 567 CURVE",
"338 567 LINE",
"323 552 OFFCURVE",
"314 526 OFFCURVE",
"314 497 CURVE"
);
},
{
closed = 1;
nodes = (
"125 154 OFFCURVE",
"114 173 OFFCURVE",
"114 194 CURVE SMOOTH",
"114 310 OFFCURVE",
"186 374 OFFCURVE",
"263 374 CURVE SMOOTH",
"277 374 OFFCURVE",
"294 373 OFFCURVE",
"314 370 CURVE",
"314 248 LINE",
"278 193 OFFCURVE",
"199 154 OFFCURVE",
"149 154 CURVE SMOOTH"
);
}
);
width = 473;
}
);
unicode = 0935;
},
{
glyphname = Sha.dv;
layers = (
{
layerId = "1BB6288A-6CCF-4A5F-A7E1-DC794ABD1039";
paths = (
{
closed = 1;
nodes = (
"-5 182 OFFCURVE",
"86 123 OFFCURVE",
"144 123 CURVE SMOOTH",
"153 123 OFFCURVE",
"162 124 OFFCURVE",
"170 125 CURVE",
"224 78 OFFCURVE",
"279 22 OFFCURVE",
"319 -18 CURVE",
"347 4 LINE",
"312 45 OFFCURVE",
"258 98 OFFCURVE",
"211 140 CURVE",
"276 176 OFFCURVE",
"320 259 OFFCURVE",
"328 335 CURVE SMOOTH",
"333 385 OFFCURVE",
"333 434 OFFCURVE",
"333 484 CURVE SMOOTH",
"333 554 OFFCURVE",
"216 643 OFFCURVE",
"158 643 CURVE SMOOTH",
"98 643 OFFCURVE",
"32 595 OFFCURVE",
"32 519 CURVE SMOOTH",
"32 468 LINE SMOOTH",
"32 416 OFFCURVE",
"107 353 OFFCURVE",
"162 328 CURVE",
"174 351 LINE",
"145 367 OFFCURVE",
"130 400 OFFCURVE",
"130 429 CURVE SMOOTH",
"130 479 LINE SMOOTH",
"130 542 OFFCURVE",
"175 567 OFFCURVE",
"209 567 CURVE SMOOTH",
"223 567 OFFCURVE",
"235 554 OFFCURVE",
"235 534 CURVE SMOOTH",
"235 490 OFFCURVE",
"233 445 OFFCURVE",
"230 401 CURVE SMOOTH",
"225 333 OFFCURVE",
"209 267 OFFCURVE",
"146 229 CURVE",
"123 244 OFFCURVE",
"71 276 OFFCURVE",
"48 276 CURVE SMOOTH",
"27 276 OFFCURVE",
"-5 240 OFFCURVE",
"-5 215 CURVE SMOOTH"
);
},
{
closed = 1;
nodes = (
"500 639 LINE",
"316 639 LINE",
"306 615 LINE",
"373 540 LINE",
"395 540 LINE",
"405 551 OFFCURVE",
"419 565 OFFCURVE",
"444 567 CURVE",
"459 567 LINE",
"444 552 OFFCURVE",
"435 526 OFFCURVE",
"435 497 CURVE SMOOTH",
"435 252 LINE SMOOTH",
"435 187 OFFCURVE",
"391 152 OFFCURVE",
"391 123 CURVE SMOOTH",
"391 85 OFFCURVE",
"512 2 OFFCURVE",
"544 -17 CURVE",
"560 5 LINE",
"536 21 OFFCURVE",
"486 56 OFFCURVE",
"486 78 CURVE SMOOTH",
"486 101 OFFCURVE",
"530 139 OFFCURVE",
"530 203 CURVE SMOOTH",
"530 490 LINE SMOOTH",
"530 526 OFFCURVE",
"546 553 OFFCURVE",
"566 567 CURVE"
);
}
);
width = 594;
}
);
unicode = 0936;
},
{
glyphname = Ssa.dv;
layers = (
{
layerId = "1BB6288A-6CCF-4A5F-A7E1-DC794ABD1039";
paths = (
{
closed = 1;
nodes = (
"388 490 LINE SMOOTH",
"388 526 OFFCURVE",
"404 553 OFFCURVE",
"424 567 CURVE",
"358 639 LINE",
"-8 639 LINE",
"-18 615 LINE",
"62 528 LINE",
"60 518 OFFCURVE",
"59 508 OFFCURVE",
"59 497 CURVE SMOOTH",
"59 381 LINE SMOOTH",
"59 324 OFFCURVE",
"35 277 OFFCURVE",
"35 252 CURVE SMOOTH",
"35 187 OFFCURVE",
"156 103 OFFCURVE",
"220 103 CURVE SMOOTH",
"230 103 OFFCURVE",
"241 105 OFFCURVE",
"253 108 CURVE",
"275 67 OFFCURVE",
"373 0 OFFCURVE",
"402 -17 CURVE",
"418 5 LINE",
"394 21 OFFCURVE",
"344 56 OFFCURVE",
"344 78 CURVE SMOOTH",
"344 101 OFFCURVE",
"388 139 OFFCURVE",
"388 203 CURVE"
);
},
{
closed = 1;
nodes = (
"293 288 LINE",
"241 335 OFFCURVE",
"196 386 OFFCURVE",
"154 436 CURVE",
"154 490 LINE SMOOTH",
"154 526 OFFCURVE",
"170 553 OFFCURVE",
"190 567 CURVE",
"317 567 LINE",
"302 552 OFFCURVE",
"293 526 OFFCURVE",
"293 497 CURVE"
);
},
{
closed = 1;
nodes = (
"138 177 OFFCURVE",
"126 186 OFFCURVE",
"126 200 CURVE SMOOTH",
"126 225 OFFCURVE",
"154 268 OFFCURVE",
"154 329 CURVE SMOOTH",
"154 381 LINE",
"195 333 OFFCURVE",
"239 285 OFFCURVE",
"290 245 CURVE",
"252 205 OFFCURVE",
"189 177 OFFCURVE",
"155 177 CURVE SMOOTH"
);
}
);
width = 452;
}
);
unicode = 0937;
},
{
glyphname = Sa.dv;
layers = (
{
layerId = "1BB6288A-6CCF-4A5F-A7E1-DC794ABD1039";
paths = (
{
closed = 1;
nodes = (
"535 494 LINE SMOOTH",
"535 528 OFFCURVE",
"551 553 OFFCURVE",
"571 567 CURVE",
"505 639 LINE",
"-8 639 LINE",
"-18 615 LINE",
"81 508 LINE",
"103 508 LINE",
"121 535 OFFCURVE",
"158 567 OFFCURVE",
"193 567 CURVE SMOOTH",
"227 567 LINE",
"212 552 OFFCURVE",
"203 526 OFFCURVE",
"203 497 CURVE SMOOTH",
"203 409 LINE SMOOTH",
"203 368 OFFCURVE",
"194 341 OFFCURVE",
"180 341 CURVE SMOOTH",
"170 341 OFFCURVE",
"122 393 OFFCURVE",
"92 393 CURVE SMOOTH",
"62 393 OFFCURVE",
"19 366 OFFCURVE",
"19 299 CURVE SMOOTH",
"19 211 OFFCURVE",
"198 46 OFFCURVE",
"289 -21 CURVE",
"309 3 LINE",
"248 53 OFFCURVE",
"187 108 OFFCURVE",
"187 137 CURVE SMOOTH",
"187 173 OFFCURVE",
"336 305 OFFCURVE",
"424 305 CURVE SMOOTH",
"429 305 OFFCURVE",
"434 305 OFFCURVE",
"440 304 CURVE",
"440 252 LINE SMOOTH",
"440 187 OFFCURVE",
"396 152 OFFCURVE",
"396 123 CURVE SMOOTH",
"396 85 OFFCURVE",
"517 2 OFFCURVE",
"549 -17 CURVE",
"565 5 LINE",
"541 21 OFFCURVE",
"491 56 OFFCURVE",
"491 78 CURVE SMOOTH",
"491 101 OFFCURVE",
"535 139 OFFCURVE",
"535 203 CURVE"
);
},
{
closed = 1;
nodes = (
"440 371 LINE",
"418 376 OFFCURVE",
"398 379 OFFCURVE",
"378 379 CURVE SMOOTH",
"353 379 OFFCURVE",
"325 372 OFFCURVE",
"298 360 CURVE",
"298 490 LINE SMOOTH",
"298 526 OFFCURVE",
"314 553 OFFCURVE",
"334 567 CURVE",
"464 567 LINE",
"449 552 OFFCURVE",
"440 526 OFFCURVE",
"440 497 CURVE"
);
}
);
width = 599;
}
);
unicode = 0938;
},
{
glyphname = Ha.dv;
layers = (
{
layerId = "1BB6288A-6CCF-4A5F-A7E1-DC794ABD1039";
paths = (
{
closed = 1;
nodes = (
"497 380 LINE",
"497 490 LINE SMOOTH",
"497 526 OFFCURVE",
"513 553 OFFCURVE",
"533 567 CURVE",
"467 639 LINE",
"-3 639 LINE",
"-13 615 LINE",
"86 508 LINE",
"108 508 LINE",
"125 533 OFFCURVE",
"159 564 OFFCURVE",
"192 567 CURVE",
"426 567 LINE",
"411 552 OFFCURVE",
"402 526 OFFCURVE",
"402 497 CURVE SMOOTH",
"402 443 LINE",
"364 450 OFFCURVE",
"332 455 OFFCURVE",
"297 455 CURVE SMOOTH",
"108 455 OFFCURVE",
"20 389 OFFCURVE",
"20 230 CURVE SMOOTH",
"20 152 OFFCURVE",
"140 75 OFFCURVE",
"189 75 CURVE SMOOTH",
"198 75 OFFCURVE",
"208 78 OFFCURVE",
"218 82 CURVE",
"261 38 OFFCURVE",
"329 -13 OFFCURVE",
"382 -50 CURVE",
"404 -23 LINE",
"356 13 OFFCURVE",
"295 63 OFFCURVE",
"255 107 CURVE",
"313 153 OFFCURVE",
"375 234 OFFCURVE",
"411 234 CURVE SMOOTH",
"421 234 OFFCURVE",
"429 227 OFFCURVE",
"429 215 CURVE SMOOTH",
"429 177 OFFCURVE",
"399 134 OFFCURVE",
"372 107 CURVE",
"461 44 LINE",
"498 82 OFFCURVE",
"522 123 OFFCURVE",
"522 162 CURVE SMOOTH",
"522 218 OFFCURVE",
"417 309 OFFCURVE",
"357 309 CURVE SMOOTH",
"272 309 OFFCURVE",
"161 150 OFFCURVE",
"130 150 CURVE SMOOTH",
"120 150 OFFCURVE",
"116 159 OFFCURVE",
"116 174 CURVE SMOOTH",
"116 310 OFFCURVE",
"200 380 OFFCURVE",
"365 380 CURVE SMOOTH",
"403 380 OFFCURVE",
"440 376 OFFCURVE",
"480 366 CURVE"
);
}
);
width = 559;
}
);
unicode = 0939;
},
{
glyphname = KaNukta.dv;
layers = (
{
layerId = "1BB6288A-6CCF-4A5F-A7E1-DC794ABD1039";
paths = (
{
closed = 1;
nodes = (
"564 93 OFFCURVE",
"627 189 OFFCURVE",
"627 290 CURVE SMOOTH",
"627 347 OFFCURVE",
"519 446 OFFCURVE",
"440 446 CURVE SMOOTH",
"421 446 OFFCURVE",
"399 437 OFFCURVE",
"379 424 CURVE",
"379 490 LINE SMOOTH",
"379 526 OFFCURVE",
"395 553 OFFCURVE",
"415 567 CURVE",
"486 567 LINE SMOOTH",
"522 567 OFFCURVE",
"551 537 OFFCURVE",
"579 508 CURVE",
"601 508 LINE",
"658 567 LINE",
"592 639 LINE",
"-8 639 LINE",
"-18 615 LINE",
"81 508 LINE",
"103 508 LINE",
"120 534 OFFCURVE",
"155 565 OFFCURVE",
"189 567 CURVE",
"308 567 LINE",
"293 552 OFFCURVE",
"284 526 OFFCURVE",
"284 497 CURVE SMOOTH",
"284 423 LINE",
"259 434 OFFCURVE",
"221 443 OFFCURVE",
"177 443 CURVE SMOOTH",
"91 443 OFFCURVE",
"18 379 OFFCURVE",
"18 258 CURVE SMOOTH",
"18 153 OFFCURVE",
"179 85 OFFCURVE",
"227 85 CURVE SMOOTH",
"239 85 OFFCURVE",
"252 87 OFFCURVE",
"264 92 CURVE",
"296 51 OFFCURVE",
"369 -2 OFFCURVE",
"393 -17 CURVE",
"409 5 LINE",
"388 21 OFFCURVE",
"345 56 OFFCURVE",
"345 78 CURVE SMOOTH",
"345 101 OFFCURVE",
"379 139 OFFCURVE",
"379 203 CURVE SMOOTH",
"379 270 LINE",
"414 324 OFFCURVE",
"467 372 OFFCURVE",
"507 372 CURVE SMOOTH",
"522 372 OFFCURVE",
"532 359 OFFCURVE",
"532 345 CURVE SMOOTH",
"532 242 OFFCURVE",
"468 149 OFFCURVE",
"468 129 CURVE SMOOTH",
"468 91 OFFCURVE",
"581 10 OFFCURVE",
"613 -9 CURVE",
"629 13 LINE",
"605 29 OFFCURVE",
"564 58 OFFCURVE",
"564 80 CURVE SMOOTH"
);
},
{
closed = 1;
nodes = (
"122 159 OFFCURVE",
"114 175 OFFCURVE",
"114 194 CURVE SMOOTH",
"114 313 OFFCURVE",
"186 369 OFFCURVE",
"253 369 CURVE SMOOTH",
"262 369 OFFCURVE",
"272 368 OFFCURVE",
"284 367 CURVE",
"284 253 LINE",
"252 198 OFFCURVE",
"183 159 OFFCURVE",
"139 159 CURVE SMOOTH"
);
},
{
closed = 1;
nodes = (
"44 -1 LINE",
"68 -21 OFFCURVE",
"91 -39 OFFCURVE",
"113 -61 CURVE",
"135 -46 OFFCURVE",
"176 -29 OFFCURVE",
"202 -20 CURVE",
"202 -11 LINE",
"180 13 OFFCURVE",
"158 32 OFFCURVE",
"133 49 CURVE",
"105 39 OFFCURVE",
"67 24 OFFCURVE",
"44 8 CURVE"
);
}
);
width = 671;
}
);
unicode = 0958;
},
{
glyphname = KhaNukta.dv;
layers = (
{
associatedMasterId = "1BB6288A-6CCF-4A5F-A7E1-DC794ABD1039";
layerId = "C8563CC3-17B3-454B-B4EF-8E0393D5ADF7";
name = img;
width = 737;
},
{
layerId = "1BB6288A-6CCF-4A5F-A7E1-DC794ABD1039";
paths = (
{
closed = 1;
nodes = (
"578 433 LINE",
"553 444 OFFCURVE",
"515 453 OFFCURVE",
"471 453 CURVE SMOOTH",
"396 453 OFFCURVE",
"336 397 OFFCURVE",
"336 293 CURVE SMOOTH",
"336 186 OFFCURVE",
"489 115 OFFCURVE",
"535 115 CURVE",
"549 74 OFFCURVE",
"657 1 OFFCURVE",
"687 -17 CURVE",
"703 5 LINE",
"679 21 OFFCURVE",
"629 56 OFFCURVE",
"629 78 CURVE SMOOTH",
"629 101 OFFCURVE",
"673 139 OFFCURVE",
"673 203 CURVE SMOOTH",
"673 490 LINE SMOOTH",
"673 526 OFFCURVE",
"689 553 OFFCURVE",
"709 567 CURVE",
"643 639 LINE",
"-8 639 LINE",
"-18 615 LINE",
"81 508 LINE",
"103 508 LINE",
"121 535 OFFCURVE",
"158 567 OFFCURVE",
"193 567 CURVE SMOOTH",
"229 567 LINE",
"214 552 OFFCURVE",
"205 526 OFFCURVE",
"205 497 CURVE SMOOTH",
"205 414 LINE SMOOTH",
"205 373 OFFCURVE",
"196 346 OFFCURVE",
"182 346 CURVE SMOOTH",
"172 346 OFFCURVE",
"124 398 OFFCURVE",
"94 398 CURVE SMOOTH",
"64 398 OFFCURVE",
"21 366 OFFCURVE",
"21 299 CURVE SMOOTH",
"21 193 OFFCURVE",
"212 53 OFFCURVE",
"378 -14 CURVE",
"391 13 LINE",
"255 74 OFFCURVE",
"174 147 OFFCURVE",
"174 166 CURVE SMOOTH",
"174 180 OFFCURVE",
"212 190 OFFCURVE",
"241 216 CURVE SMOOTH",
"277 248 OFFCURVE",
"300 286 OFFCURVE",
"300 370 CURVE SMOOTH",
"300 490 LINE SMOOTH",
"300 526 OFFCURVE",
"316 553 OFFCURVE",
"336 567 CURVE",
"602 567 LINE",
"587 552 OFFCURVE",
"578 526 OFFCURVE",
"578 497 CURVE"
);
},
{
closed = 1;
nodes = (
"440 189 OFFCURVE",
"432 206 OFFCURVE",
"432 229 CURVE SMOOTH",
"432 326 OFFCURVE",
"485 379 OFFCURVE",
"547 379 CURVE SMOOTH",
"556 379 OFFCURVE",
"566 378 OFFCURVE",
"578 376 CURVE",
"578 302 LINE",
"550 236 OFFCURVE",
"495 189 OFFCURVE",
"457 189 CURVE SMOOTH"
);
},
{
closed = 1;
nodes = (
"4 9 LINE",
"28 -11 OFFCURVE",
"51 -29 OFFCURVE",
"73 -51 CURVE",
"95 -36 OFFCURVE",
"136 -19 OFFCURVE",
"162 -10 CURVE",
"162 -1 LINE",
"140 23 OFFCURVE",
"118 42 OFFCURVE",
"93 59 CURVE",
"65 49 OFFCURVE",
"27 34 OFFCURVE",
"4 18 CURVE"
);
}
);
width = 737;
}
);
unicode = 0959;
},
{
glyphname = GaNukta.dv;
layers = (
{
associatedMasterId = "1BB6288A-6CCF-4A5F-A7E1-DC794ABD1039";
layerId = "C8563CC3-17B3-454B-B4EF-8E0393D5ADF7";
name = img;
width = 505;
},
{
layerId = "1BB6288A-6CCF-4A5F-A7E1-DC794ABD1039";
paths = (
{
closed = 1;
nodes = (
"217 490 LINE SMOOTH",
"217 526 OFFCURVE",
"233 553 OFFCURVE",
"253 567 CURVE",
"370 567 LINE",
"355 552 OFFCURVE",
"346 526 OFFCURVE",
"346 497 CURVE SMOOTH",
"346 252 LINE SMOOTH",
"346 187 OFFCURVE",
"302 152 OFFCURVE",
"302 123 CURVE SMOOTH",
"302 85 OFFCURVE",
"423 2 OFFCURVE",
"455 -17 CURVE",
"471 5 LINE",
"447 21 OFFCURVE",
"397 56 OFFCURVE",
"397 78 CURVE SMOOTH",
"397 101 OFFCURVE",
"441 139 OFFCURVE",
"441 203 CURVE SMOOTH",
"441 490 LINE SMOOTH",
"441 526 OFFCURVE",
"457 553 OFFCURVE",
"477 567 CURVE",
"411 639 LINE",
"-13 639 LINE",
"-23 615 LINE",
"50 534 LINE",
"72 534 LINE",
"85 553 OFFCURVE",
"102 567 OFFCURVE",
"137 567 CURVE SMOOTH",
"146 567 LINE",
"131 552 OFFCURVE",
"122 526 OFFCURVE",
"122 497 CURVE SMOOTH",
"122 392 LINE",
"55 361 OFFCURVE",
"13 309 OFFCURVE",
"13 262 CURVE SMOOTH",
"13 211 OFFCURVE",
"103 153 OFFCURVE",
"147 153 CURVE SMOOTH",
"187 153 OFFCURVE",
"217 213 OFFCURVE",
"217 275 CURVE"
);
},
{
closed = 1;
nodes = (
"44 29 LINE",
"68 9 OFFCURVE",
"91 -9 OFFCURVE",
"113 -31 CURVE",
"135 -16 OFFCURVE",
"176 1 OFFCURVE",
"202 10 CURVE",
"202 19 LINE",
"180 43 OFFCURVE",
"158 62 OFFCURVE",
"133 79 CURVE",
"105 69 OFFCURVE",
"67 54 OFFCURVE",
"44 38 CURVE"
);
}
);
width = 505;
}
);
unicode = 095A;
},
{
glyphname = JaNukta.dv;
layers = (
{
associatedMasterId = "1BB6288A-6CCF-4A5F-A7E1-DC794ABD1039";
layerId = "C8563CC3-17B3-454B-B4EF-8E0393D5ADF7";
name = img;
width = 612;
},
{
layerId = "1BB6288A-6CCF-4A5F-A7E1-DC794ABD1039";
paths = (
{
closed = 1;
nodes = (
"51 352 LINE",
"119 282 LINE",
"140 282 LINE",
"160 305 OFFCURVE",
"185 323 OFFCURVE",
"211 337 CURVE",
"245 320 OFFCURVE",
"259 289 OFFCURVE",
"259 250 CURVE SMOOTH",
"259 206 OFFCURVE",
"219 141 OFFCURVE",
"151 141 CURVE SMOOTH",
"106 141 OFFCURVE",
"69 174 OFFCURVE",
"25 248 CURVE",
"-2 232 LINE",
"40 136 OFFCURVE",
"131 59 OFFCURVE",
"216 59 CURVE SMOOTH",
"306 59 OFFCURVE",
"355 139 OFFCURVE",
"355 207 CURVE SMOOTH",
"355 271 OFFCURVE",
"303 326 OFFCURVE",
"252 354 CURVE",
"282 364 OFFCURVE",
"314 369 OFFCURVE",
"345 369 CURVE SMOOTH",
"378 369 OFFCURVE",
"415 363 OFFCURVE",
"453 347 CURVE",
"453 252 LINE SMOOTH",
"453 192 OFFCURVE",
"419 160 OFFCURVE",
"419 133 CURVE SMOOTH",
"419 92 OFFCURVE",
"540 3 OFFCURVE",
"572 -17 CURVE",
"588 5 LINE",
"564 23 OFFCURVE",
"514 63 OFFCURVE",
"514 88 CURVE SMOOTH",
"514 109 OFFCURVE",
"548 144 OFFCURVE",
"548 203 CURVE SMOOTH",
"548 490 LINE SMOOTH",
"548 526 OFFCURVE",
"564 553 OFFCURVE",
"584 567 CURVE",
"518 639 LINE",
"-13 639 LINE",
"-23 615 LINE",
"76 508 LINE",
"98 508 LINE",
"116 535 OFFCURVE",
"153 567 OFFCURVE",
"188 567 CURVE SMOOTH",
"477 567 LINE",
"462 552 OFFCURVE",
"453 526 OFFCURVE",
"453 497 CURVE SMOOTH",
"453 412 LINE",
"397 439 OFFCURVE",
"336 450 OFFCURVE",
"284 450 CURVE SMOOTH",
"181 450 OFFCURVE",
"97 415 OFFCURVE",
"51 378 CURVE"
);
},
{
closed = 1;
nodes = (
"14 -21 LINE",
"38 -41 OFFCURVE",
"61 -59 OFFCURVE",
"83 -81 CURVE",
"105 -66 OFFCURVE",
"146 -49 OFFCURVE",
"172 -40 CURVE",
"172 -31 LINE",
"150 -7 OFFCURVE",
"128 12 OFFCURVE",
"103 29 CURVE",
"75 19 OFFCURVE",
"37 4 OFFCURVE",
"14 -12 CURVE"
);
}
);
width = 612;
}
);
unicode = 095B;
},
{
glyphname = DdaNukta.dv;
layers = (
{
layerId = "1BB6288A-6CCF-4A5F-A7E1-DC794ABD1039";
paths = (
{
closed = 1;
nodes = (
"408 639 LINE",
"-8 639 LINE",
"-18 615 LINE",
"66 526 LINE",
"88 526 LINE",
"106 553 OFFCURVE",
"140 569 OFFCURVE",
"175 569 CURVE SMOOTH",
"367 569 LINE",
"352 554 OFFCURVE",
"343 528 OFFCURVE",
"343 499 CURVE SMOOTH",
"343 472 LINE",
"309 478 OFFCURVE",
"275 484 OFFCURVE",
"243 484 CURVE SMOOTH",
"128 484 OFFCURVE",
"36 444 OFFCURVE",
"36 366 CURVE SMOOTH",
"36 286 OFFCURVE",
"154 213 OFFCURVE",
"184 213 CURVE SMOOTH",
"210 213 OFFCURVE",
"308 252 OFFCURVE",
"376 252 CURVE SMOOTH",
"382 252 OFFCURVE",
"386 245 OFFCURVE",
"386 237 CURVE SMOOTH",
"386 202 OFFCURVE",
"305 132 OFFCURVE",
"217 132 CURVE SMOOTH",
"146 132 OFFCURVE",
"89 158 OFFCURVE",
"19 244 CURVE",
"-3 225 LINE",
"52 149 OFFCURVE",
"158 60 OFFCURVE",
"268 60 CURVE SMOOTH",
"387 60 OFFCURVE",
"472 130 OFFCURVE",
"472 192 CURVE SMOOTH",
"472 260 OFFCURVE",
"379 336 OFFCURVE",
"333 336 CURVE SMOOTH",
"234 336 OFFCURVE",
"159 299 OFFCURVE",
"139 299 CURVE SMOOTH",
"132 299 OFFCURVE",
"127 306 OFFCURVE",
"127 321 CURVE SMOOTH",
"127 368 OFFCURVE",
"207 410 OFFCURVE",
"314 410 CURVE SMOOTH",
"346 410 OFFCURVE",
"380 406 OFFCURVE",
"417 398 CURVE",
"438 417 LINE",
"438 490 LINE SMOOTH",
"438 526 OFFCURVE",
"455 553 OFFCURVE",
"474 567 CURVE"
);
},
{
closed = 1;
nodes = (
"144 -31 LINE",
"168 -51 OFFCURVE",
"191 -69 OFFCURVE",
"213 -91 CURVE",
"235 -76 OFFCURVE",
"276 -59 OFFCURVE",
"302 -50 CURVE",
"302 -41 LINE",
"280 -17 OFFCURVE",
"258 2 OFFCURVE",
"233 19 CURVE",
"205 9 OFFCURVE",
"167 -6 OFFCURVE",
"144 -22 CURVE"
);
}
);
width = 502;
}
);
unicode = 095C;
},
{
glyphname = DdhaNukta.dv;
layers = (
{
layerId = "1BB6288A-6CCF-4A5F-A7E1-DC794ABD1039";
paths = (
{
closed = 1;
nodes = (
"453 396 LINE",
"453 490 LINE SMOOTH",
"453 526 OFFCURVE",
"470 553 OFFCURVE",
"489 567 CURVE",
"423 639 LINE",
"-8 639 LINE",
"-18 615 LINE",
"66 524 LINE",
"88 524 LINE",
"106 551 OFFCURVE",
"140 567 OFFCURVE",
"175 567 CURVE SMOOTH",
"382 567 LINE",
"367 552 OFFCURVE",
"358 526 OFFCURVE",
"358 497 CURVE SMOOTH",
"358 454 LINE",
"323 458 OFFCURVE",
"284 462 OFFCURVE",
"249 462 CURVE SMOOTH",
"108 462 OFFCURVE",
"20 395 OFFCURVE",
"20 293 CURVE SMOOTH",
"20 184 OFFCURVE",
"177 58 OFFCURVE",
"308 58 CURVE SMOOTH",
"403 58 OFFCURVE",
"483 122 OFFCURVE",
"483 185 CURVE SMOOTH",
"483 227 OFFCURVE",
"395 318 OFFCURVE",
"321 318 CURVE SMOOTH",
"267 318 OFFCURVE",
"214 285 OFFCURVE",
"191 232 CURVE",
"283 179 LINE",
"305 212 OFFCURVE",
"344 241 OFFCURVE",
"375 241 CURVE SMOOTH",
"384 241 OFFCURVE",
"388 234 OFFCURVE",
"388 227 CURVE SMOOTH",
"388 183 OFFCURVE",
"323 132 OFFCURVE",
"231 132 CURVE SMOOTH",
"151 132 OFFCURVE",
"115 169 OFFCURVE",
"115 219 CURVE SMOOTH",
"115 323 OFFCURVE",
"206 387 OFFCURVE",
"328 387 CURVE SMOOTH",
"360 387 OFFCURVE",
"405 385 OFFCURVE",
"436 382 CURVE"
);
},
{
closed = 1;
nodes = (
"164 -31 LINE",
"188 -51 OFFCURVE",
"211 -69 OFFCURVE",
"233 -91 CURVE",
"255 -76 OFFCURVE",
"296 -59 OFFCURVE",
"322 -50 CURVE",
"322 -41 LINE",
"300 -17 OFFCURVE",
"278 2 OFFCURVE",
"253 19 CURVE",
"225 9 OFFCURVE",
"187 -6 OFFCURVE",
"164 -22 CURVE"
);
}
);
width = 517;
}
);
unicode = 095D;
},
{
glyphname = PhaNukta.dv;
layers = (
{
layerId = "1BB6288A-6CCF-4A5F-A7E1-DC794ABD1039";
paths = (
{
closed = 1;
nodes = (
"552 94 OFFCURVE",
"615 194 OFFCURVE",
"615 300 CURVE SMOOTH",
"615 357 OFFCURVE",
"509 456 OFFCURVE",
"432 456 CURVE SMOOTH",
"414 456 OFFCURVE",
"393 445 OFFCURVE",
"373 430 CURVE",
"373 490 LINE SMOOTH",
"373 526 OFFCURVE",
"389 553 OFFCURVE",
"409 567 CURVE",
"475 567 LINE SMOOTH",
"511 567 OFFCURVE",
"540 537 OFFCURVE",
"568 508 CURVE",
"590 508 LINE",
"647 567 LINE",
"581 639 LINE",
"-13 639 LINE",
"-23 615 LINE",
"57 528 LINE",
"55 518 OFFCURVE",
"54 508 OFFCURVE",
"54 497 CURVE SMOOTH",
"54 381 LINE SMOOTH",
"54 324 OFFCURVE",
"30 277 OFFCURVE",
"30 252 CURVE SMOOTH",
"30 187 OFFCURVE",
"144 103 OFFCURVE",
"205 103 CURVE SMOOTH",
"217 103 OFFCURVE",
"232 106 OFFCURVE",
"247 111 CURVE",
"265 69 OFFCURVE",
"360 0 OFFCURVE",
"387 -17 CURVE",
"403 5 LINE",
"382 21 OFFCURVE",
"339 56 OFFCURVE",
"339 78 CURVE SMOOTH",
"339 101 OFFCURVE",
"373 139 OFFCURVE",
"373 203 CURVE SMOOTH",
"373 267 LINE",
"405 320 OFFCURVE",
"462 375 OFFCURVE",
"499 375 CURVE SMOOTH",
"512 375 OFFCURVE",
"520 365 OFFCURVE",
"520 355 CURVE SMOOTH",
"520 247 OFFCURVE",
"456 150 OFFCURVE",
"456 129 CURVE SMOOTH",
"456 91 OFFCURVE",
"569 10 OFFCURVE",
"601 -9 CURVE",
"617 13 LINE",
"593 29 OFFCURVE",
"552 58 OFFCURVE",
"552 80 CURVE SMOOTH"
);
},
{
closed = 1;
nodes = (
"278 249 LINE",
"241 206 OFFCURVE",
"175 177 OFFCURVE",
"140 177 CURVE SMOOTH",
"129 177 OFFCURVE",
"121 186 OFFCURVE",
"121 200 CURVE SMOOTH",
"121 225 OFFCURVE",
"149 268 OFFCURVE",
"149 329 CURVE SMOOTH",
"149 490 LINE SMOOTH",
"149 526 OFFCURVE",
"165 553 OFFCURVE",
"185 567 CURVE",
"302 567 LINE",
"287 552 OFFCURVE",
"278 526 OFFCURVE",
"278 497 CURVE"
);
},
{
closed = 1;
nodes = (
"44 15 LINE",
"68 -5 OFFCURVE",
"91 -23 OFFCURVE",
"113 -45 CURVE",
"135 -30 OFFCURVE",
"176 -13 OFFCURVE",
"202 -4 CURVE",
"202 5 LINE",
"180 29 OFFCURVE",
"158 48 OFFCURVE",
"133 65 CURVE",
"105 55 OFFCURVE",
"67 40 OFFCURVE",
"44 24 CURVE"
);
}
);
width = 660;
}
);
unicode = 095E;
},
{
glyphname = YaNukta.dv;
layers = (
{
associatedMasterId = "1BB6288A-6CCF-4A5F-A7E1-DC794ABD1039";
layerId = "C8563CC3-17B3-454B-B4EF-8E0393D5ADF7";
name = img;
width = 575;
},
{
layerId = "1BB6288A-6CCF-4A5F-A7E1-DC794ABD1039";
paths = (
{
closed = 1;
nodes = (
"511 484 LINE SMOOTH",
"511 526 OFFCURVE",
"527 553 OFFCURVE",
"547 567 CURVE",
"481 639 LINE",
"-8 639 LINE",
"-18 615 LINE",
"81 508 LINE",
"103 508 LINE",
"120 533 OFFCURVE",
"154 564 OFFCURVE",
"187 567 CURVE",
"223 567 LINE",
"208 552 OFFCURVE",
"199 526 OFFCURVE",
"199 497 CURVE SMOOTH",
"199 406 LINE",
"123 389 LINE SMOOTH",
"55 374 OFFCURVE",
"24 338 OFFCURVE",
"24 283 CURVE SMOOTH",
"24 181 OFFCURVE",
"209 67 OFFCURVE",
"279 67 CURVE",
"307 101 OFFCURVE",
"339 125 OFFCURVE",
"372 141 CURVE",
"374 97 OFFCURVE",
"501 4 OFFCURVE",
"535 -17 CURVE",
"551 5 LINE",
"524 25 OFFCURVE",
"467 70 OFFCURVE",
"467 98 CURVE SMOOTH",
"467 121 OFFCURVE",
"511 159 OFFCURVE",
"511 223 CURVE"
);
},
{
closed = 1;
nodes = (
"163 152 OFFCURVE",
"124 182 OFFCURVE",
"124 221 CURVE SMOOTH",
"124 263 OFFCURVE",
"148 291 OFFCURVE",
"203 307 CURVE SMOOTH",
"294 333 LINE",
"294 490 LINE SMOOTH",
"294 526 OFFCURVE",
"310 553 OFFCURVE",
"330 567 CURVE",
"440 567 LINE",
"425 552 OFFCURVE",
"416 526 OFFCURVE",
"416 497 CURVE SMOOTH",
"416 272 LINE SMOOTH",
"416 268 OFFCURVE",
"416 264 OFFCURVE",
"415 261 CURVE",
"331 245 OFFCURVE",
"258 203 OFFCURVE",
"198 143 CURVE"
);
},
{
closed = 1;
nodes = (
"15 9 LINE",
"39 -11 OFFCURVE",
"62 -29 OFFCURVE",
"84 -51 CURVE",
"106 -36 OFFCURVE",
"147 -19 OFFCURVE",
"173 -10 CURVE",
"173 -1 LINE",
"151 23 OFFCURVE",
"129 42 OFFCURVE",
"104 59 CURVE",
"76 49 OFFCURVE",
"38 34 OFFCURVE",
"15 18 CURVE"
);
}
);
width = 575;
}
);
unicode = 095F;
},
{
glyphname = uni0979;
layers = (
{
layerId = "1BB6288A-6CCF-4A5F-A7E1-DC794ABD1039";
paths = (
{
closed = 1;
nodes = (
"518 639 LINE",
"-13 639 LINE",
"-23 615 LINE",
"59 525 LINE",
"81 525 LINE",
"93 544 OFFCURVE",
"120 569 OFFCURVE",
"155 569 CURVE SMOOTH",
"477 569 LINE",
"462 554 OFFCURVE",
"453 528 OFFCURVE",
"453 499 CURVE SMOOTH",
"453 437 LINE",
"397 464 OFFCURVE",
"336 475 OFFCURVE",
"284 475 CURVE SMOOTH",
"183 475 OFFCURVE",
"105 450 OFFCURVE",
"61 428 CURVE",
"61 402 LINE",
"123 339 LINE",
"144 339 LINE",
"169 358 OFFCURVE",
"198 372 OFFCURVE",
"231 381 CURVE",
"256 366 OFFCURVE",
"265 344 OFFCURVE",
"265 324 CURVE SMOOTH",
"265 284 OFFCURVE",
"224 225 OFFCURVE",
"156 225 CURVE SMOOTH",
"111 225 OFFCURVE",
"74 252 OFFCURVE",
"30 312 CURVE",
"3 296 LINE",
"45 212 OFFCURVE",
"136 145 OFFCURVE",
"221 145 CURVE SMOOTH",
"311 145 OFFCURVE",
"359 219 OFFCURVE",
"359 281 CURVE SMOOTH",
"359 326 OFFCURVE",
"324 366 OFFCURVE",
"284 392 CURVE",
"303 395 OFFCURVE",
"324 396 OFFCURVE",
"345 396 CURVE SMOOTH",
"378 396 OFFCURVE",
"415 391 OFFCURVE",
"453 375 CURVE",
"453 252 LINE SMOOTH",
"453 192 OFFCURVE",
"419 160 OFFCURVE",
"419 133 CURVE SMOOTH",
"419 92 OFFCURVE",
"540 3 OFFCURVE",
"572 -17 CURVE",
"588 5 LINE",
"564 23 OFFCURVE",
"514 63 OFFCURVE",
"514 88 CURVE SMOOTH",
"514 109 OFFCURVE",
"548 144 OFFCURVE",
"548 203 CURVE SMOOTH",
"548 490 LINE SMOOTH",
"548 526 OFFCURVE",
"564 553 OFFCURVE",
"584 567 CURVE"
);
},
{
closed = 1;
nodes = (
"40 74 LINE",
"61 58 OFFCURVE",
"81 41 OFFCURVE",
"100 22 CURVE",
"119 35 OFFCURVE",
"155 50 OFFCURVE",
"177 57 CURVE",
"177 65 LINE",
"158 86 OFFCURVE",
"139 103 OFFCURVE",
"117 118 CURVE",
"93 109 OFFCURVE",
"60 96 OFFCURVE",
"40 82 CURVE"
);
},
{
closed = 1;
nodes = (
"221 66 LINE",
"243 50 OFFCURVE",
"261 34 OFFCURVE",
"281 14 CURVE",
"300 27 OFFCURVE",
"336 42 OFFCURVE",
"358 49 CURVE",
"358 57 LINE",
"339 78 OFFCURVE",
"320 95 OFFCURVE",
"298 110 CURVE",
"274 101 OFFCURVE",
"241 88 OFFCURVE",
"221 74 CURVE"
);
},
{
closed = 1;
nodes = (
"128 -19 LINE",
"149 -35 OFFCURVE",
"169 -52 OFFCURVE",
"188 -71 CURVE",
"207 -58 OFFCURVE",
"243 -43 OFFCURVE",
"265 -36 CURVE",
"265 -28 LINE",
"246 -7 OFFCURVE",
"227 10 OFFCURVE",
"205 25 CURVE",
"181 16 OFFCURVE",
"148 3 OFFCURVE",
"128 -11 CURVE"
);
}
);
width = 612;
}
);
unicode = 0979;
},
{
glyphname = uni097A;
layers = (
{
layerId = "1BB6288A-6CCF-4A5F-A7E1-DC794ABD1039";
paths = (
{
closed = 1;
nodes = (
"509 484 LINE SMOOTH",
"509 526 OFFCURVE",
"525 553 OFFCURVE",
"545 567 CURVE",
"479 639 LINE",
"-10 639 LINE",
"-20 615 LINE",
"79 508 LINE",
"101 508 LINE",
"118 533 OFFCURVE",
"152 564 OFFCURVE",
"185 567 CURVE",
"221 567 LINE",
"206 552 OFFCURVE",
"197 526 OFFCURVE",
"197 497 CURVE SMOOTH",
"197 406 LINE",
"121 389 LINE SMOOTH",
"53 374 OFFCURVE",
"22 338 OFFCURVE",
"22 283 CURVE SMOOTH",
"22 181 OFFCURVE",
"207 67 OFFCURVE",
"277 67 CURVE",
"305 101 OFFCURVE",
"337 125 OFFCURVE",
"370 141 CURVE",
"372 97 OFFCURVE",
"499 4 OFFCURVE",
"533 -17 CURVE",
"549 5 LINE",
"522 25 OFFCURVE",
"465 70 OFFCURVE",
"465 98 CURVE SMOOTH",
"465 121 OFFCURVE",
"509 159 OFFCURVE",
"509 223 CURVE"
);
},
{
closed = 1;
nodes = (
"292 490 LINE SMOOTH",
"292 526 OFFCURVE",
"308 553 OFFCURVE",
"328 567 CURVE",
"438 567 LINE",
"423 552 OFFCURVE",
"414 526 OFFCURVE",
"414 497 CURVE SMOOTH",
"414 276 LINE",
"369 305 OFFCURVE",
"329 335 OFFCURVE",
"292 365 CURVE"
);
},
{
closed = 1;
nodes = (
"161 152 OFFCURVE",
"122 182 OFFCURVE",
"122 221 CURVE SMOOTH",
"122 263 OFFCURVE",
"146 291 OFFCURVE",
"201 307 CURVE SMOOTH",
"279 329 LINE",
"312 303 OFFCURVE",
"346 277 OFFCURVE",
"384 254 CURVE",
"312 235 OFFCURVE",
"249 196 OFFCURVE",
"196 143 CURVE"
);
}
);
width = 573;
}
);
unicode = 097A;
},
{
glyphname = uni097B;
layers = (
{
layerId = "1BB6288A-6CCF-4A5F-A7E1-DC794ABD1039";
paths = (
{
closed = 1;
nodes = (
"23 51 LINE",
"59 0 LINE",
"441 0 LINE",
"441 490 LINE SMOOTH",
"441 526 OFFCURVE",
"457 553 OFFCURVE",
"477 567 CURVE",
"411 639 LINE",
"-13 639 LINE",
"-23 615 LINE",
"50 534 LINE",
"72 534 LINE",
"84 551 OFFCURVE",
"99 565 OFFCURVE",
"129 567 CURVE",
"146 567 LINE",
"131 552 OFFCURVE",
"122 526 OFFCURVE",
"122 497 CURVE SMOOTH",
"122 404 LINE",
"55 375 OFFCURVE",
"13 325 OFFCURVE",
"13 282 CURVE SMOOTH",
"13 231 OFFCURVE",
"103 173 OFFCURVE",
"147 173 CURVE SMOOTH",
"187 173 OFFCURVE",
"217 228 OFFCURVE",
"217 285 CURVE SMOOTH",
"217 490 LINE SMOOTH",
"217 526 OFFCURVE",
"233 553 OFFCURVE",
"253 567 CURVE",
"370 567 LINE",
"355 552 OFFCURVE",
"346 526 OFFCURVE",
"346 497 CURVE SMOOTH",
"346 67 LINE",
"33 67 LINE"
);
}
);
width = 505;
}
);
unicode = 097B;
},
{
glyphname = uni097C;
layers = (
{
layerId = "1BB6288A-6CCF-4A5F-A7E1-DC794ABD1039";
paths = (
{
closed = 1;
nodes = (
"61 398 LINE",
"123 335 LINE",
"144 335 LINE",
"169 354 OFFCURVE",
"198 368 OFFCURVE",
"231 377 CURVE",
"256 362 OFFCURVE",
"265 340 OFFCURVE",
"265 320 CURVE SMOOTH",
"265 280 OFFCURVE",
"224 221 OFFCURVE",
"156 221 CURVE SMOOTH",
"111 221 OFFCURVE",
"74 248 OFFCURVE",
"30 308 CURVE",
"3 292 LINE",
"45 208 OFFCURVE",
"136 141 OFFCURVE",
"221 141 CURVE SMOOTH",
"311 141 OFFCURVE",
"359 215 OFFCURVE",
"359 277 CURVE SMOOTH",
"359 322 OFFCURVE",
"324 362 OFFCURVE",
"284 388 CURVE",
"303 391 OFFCURVE",
"324 392 OFFCURVE",
"345 392 CURVE SMOOTH",
"378 392 OFFCURVE",
"415 387 OFFCURVE",
"453 371 CURVE",
"453 67 LINE",
"33 67 LINE",
"23 51 LINE",
"59 0 LINE",
"548 0 LINE",
"548 490 LINE SMOOTH",
"548 526 OFFCURVE",
"564 553 OFFCURVE",
"584 567 CURVE",
"518 639 LINE",
"-13 639 LINE",
"-23 615 LINE",
"59 525 LINE",
"81 525 LINE",
"93 544 OFFCURVE",
"120 569 OFFCURVE",
"155 569 CURVE SMOOTH",
"477 569 LINE",
"462 554 OFFCURVE",
"453 528 OFFCURVE",
"453 499 CURVE SMOOTH",
"453 433 LINE",
"397 460 OFFCURVE",
"336 471 OFFCURVE",
"284 471 CURVE SMOOTH",
"183 471 OFFCURVE",
"105 446 OFFCURVE",
"61 424 CURVE"
);
}
);
width = 612;
}
);
unicode = 097C;
},
{
glyphname = uni097E;
layers = (
{
layerId = "1BB6288A-6CCF-4A5F-A7E1-DC794ABD1039";
paths = (
{
closed = 1;
nodes = (
"128 494 OFFCURVE",
"36 457 OFFCURVE",
"36 386 CURVE SMOOTH",
"36 306 OFFCURVE",
"154 233 OFFCURVE",
"184 233 CURVE SMOOTH",
"210 233 OFFCURVE",
"308 272 OFFCURVE",
"376 272 CURVE SMOOTH",
"382 272 OFFCURVE",
"386 265 OFFCURVE",
"386 257 CURVE SMOOTH",
"386 225 OFFCURVE",
"305 162 OFFCURVE",
"217 162 CURVE SMOOTH",
"146 162 OFFCURVE",
"85 184 OFFCURVE",
"18 273 CURVE",
"-2 256 LINE",
"53 182 OFFCURVE",
"158 90 OFFCURVE",
"268 90 CURVE SMOOTH",
"387 90 OFFCURVE",
"472 155 OFFCURVE",
"472 212 CURVE SMOOTH",
"472 280 OFFCURVE",
"379 356 OFFCURVE",
"333 356 CURVE SMOOTH",
"234 356 OFFCURVE",
"159 319 OFFCURVE",
"139 319 CURVE SMOOTH",
"132 319 OFFCURVE",
"127 326 OFFCURVE",
"127 341 CURVE SMOOTH",
"127 383 OFFCURVE",
"207 420 OFFCURVE",
"314 420 CURVE SMOOTH",
"346 420 OFFCURVE",
"380 416 OFFCURVE",
"417 408 CURVE",
"438 427 LINE",
"438 490 LINE SMOOTH",
"438 526 OFFCURVE",
"455 553 OFFCURVE",
"474 567 CURVE",
"408 639 LINE",
"-8 639 LINE",
"-18 615 LINE",
"66 526 LINE",
"88 526 LINE",
"106 553 OFFCURVE",
"140 569 OFFCURVE",
"175 569 CURVE SMOOTH",
"367 569 LINE",
"352 554 OFFCURVE",
"343 528 OFFCURVE",
"343 499 CURVE SMOOTH",
"343 482 LINE",
"309 488 OFFCURVE",
"275 494 OFFCURVE",
"243 494 CURVE SMOOTH"
);
},
{
closed = 1;
nodes = (
"407 28 LINE",
"54 28 LINE",
"44 12 LINE",
"80 -39 LINE",
"433 -39 LINE",
"443 -23 LINE"
);
}
);
width = 511;
}
);
unicode = 097E;
},
{
glyphname = uni097F;
layers = (
{
layerId = "1BB6288A-6CCF-4A5F-A7E1-DC794ABD1039";
paths = (
{
closed = 1;
nodes = (
"404 639 LINE",
"-8 639 LINE",
"-18 615 LINE",
"66 524 LINE",
"88 524 LINE",
"105 549 OFFCURVE",
"137 565 OFFCURVE",
"170 567 CURVE",
"363 567 LINE",
"348 552 OFFCURVE",
"339 526 OFFCURVE",
"339 497 CURVE SMOOTH",
"339 460 LINE",
"307 471 OFFCURVE",
"258 480 OFFCURVE",
"202 480 CURVE SMOOTH",
"105 480 OFFCURVE",
"18 428 OFFCURVE",
"18 335 CURVE SMOOTH",
"18 228 OFFCURVE",
"182 157 OFFCURVE",
"232 157 CURVE SMOOTH",
"267 157 OFFCURVE",
"306 175 OFFCURVE",
"339 199 CURVE",
"339 67 LINE",
"33 67 LINE",
"23 51 LINE",
"59 0 LINE",
"434 0 LINE",
"434 490 LINE SMOOTH",
"434 526 OFFCURVE",
"450 553 OFFCURVE",
"470 567 CURVE"
);
},
{
closed = 1;
nodes = (
"127 231 OFFCURVE",
"114 248 OFFCURVE",
"114 271 CURVE SMOOTH",
"114 306 OFFCURVE",
"127 335 OFFCURVE",
"148 356 CURVE",
"187 320 OFFCURVE",
"240 295 OFFCURVE",
"287 277 CURVE",
"244 248 OFFCURVE",
"192 231 OFFCURVE",
"154 231 CURVE SMOOTH"
);
},
{
closed = 1;
nodes = (
"268 320 OFFCURVE",
"218 345 OFFCURVE",
"179 381 CURVE",
"208 397 OFFCURVE",
"243 406 OFFCURVE",
"278 406 CURVE SMOOTH",
"294 406 OFFCURVE",
"315 405 OFFCURVE",
"339 402 CURVE",
"339 325 LINE",
"333 317 OFFCURVE",
"326 309 OFFCURVE",
"318 301 CURVE"
);
}
);
width = 498;
}
);
unicode = 097F;
},
{
glyphname = uni0978;
layers = (
{
layerId = "1BB6288A-6CCF-4A5F-A7E1-DC794ABD1039";
paths = (
{
closed = 1;
nodes = (
"27 155 OFFCURVE",
"118 83 OFFCURVE",
"157 83 CURVE SMOOTH",
"183 83 OFFCURVE",
"201 109 OFFCURVE",
"201 136 CURVE SMOOTH",
"201 282 LINE",
"248 305 OFFCURVE",
"304 325 OFFCURVE",
"357 332 CURVE",
"357 232 LINE SMOOTH",
"357 167 OFFCURVE",
"323 132 OFFCURVE",
"323 103 CURVE SMOOTH",
"323 71 OFFCURVE",
"393 21 OFFCURVE",
"453 -17 CURVE",
"471 5 LINE",
"443 23 OFFCURVE",
"417 43 OFFCURVE",
"417 58 CURVE SMOOTH",
"417 81 OFFCURVE",
"452 119 OFFCURVE",
"452 183 CURVE SMOOTH",
"452 317 LINE SMOOTH",
"452 342 OFFCURVE",
"375 409 OFFCURVE",
"339 409 CURVE SMOOTH",
"288 409 OFFCURVE",
"242 401 OFFCURVE",
"201 388 CURVE",
"201 490 LINE SMOOTH",
"201 526 OFFCURVE",
"217 553 OFFCURVE",
"237 567 CURVE",
"326 567 LINE SMOOTH",
"365 567 OFFCURVE",
"396 535 OFFCURVE",
"426 504 CURVE",
"449 504 LINE",
"508 567 LINE",
"442 639 LINE",
"-13 639 LINE",
"-23 615 LINE",
"50 534 LINE",
"72 534 LINE",
"82 551 OFFCURVE",
"97 565 OFFCURVE",
"123 567 CURVE",
"130 567 LINE",
"115 552 OFFCURVE",
"106 526 OFFCURVE",
"106 497 CURVE SMOOTH",
"106 343 LINE",
"56 308 OFFCURVE",
"27 263 OFFCURVE",
"27 217 CURVE SMOOTH"
);
}
);
width = 521;
}
);
unicode = 0978;
},
{
glyphname = uni0966;
layers = (
{
layerId = "1BB6288A-6CCF-4A5F-A7E1-DC794ABD1039";
paths = (
{
closed = 1;
nodes = (
"276 211 LINE SMOOTH",
"276 150 OFFCURVE",
"217 111 OFFCURVE",
"168 111 CURVE SMOOTH",
"139 111 OFFCURVE",
"119 124 OFFCURVE",
"119 144 CURVE SMOOTH",
"119 167 OFFCURVE",
"147 205 OFFCURVE",
"147 261 CURVE SMOOTH",
"147 506 LINE SMOOTH",
"147 541 OFFCURVE",
"204 563 OFFCURVE",
"237 563 CURVE SMOOTH",
"266 563 OFFCURVE",
"288 550 OFFCURVE",
"288 530 CURVE SMOOTH",
"288 513 OFFCURVE",
"276 484 OFFCURVE",
"276 443 CURVE SMOOTH"
);
},
{
closed = 1;
nodes = (
"49 313 LINE SMOOTH",
"49 260 OFFCURVE",
"25 217 OFFCURVE",
"25 194 CURVE SMOOTH",
"25 125 OFFCURVE",
"167 35 OFFCURVE",
"240 35 CURVE SMOOTH",
"289 35 OFFCURVE",
"374 90 OFFCURVE",
"374 169 CURVE SMOOTH",
"374 391 LINE SMOOTH",
"374 431 OFFCURVE",
"382 463 OFFCURVE",
"382 480 CURVE SMOOTH",
"382 549 OFFCURVE",
"238 639 OFFCURVE",
"165 639 CURVE SMOOTH",
"114 639 OFFCURVE",
"49 600 OFFCURVE",
"49 545 CURVE SMOOTH"
);
}
);
width = 422;
}
);
unicode = 0966;
},
{
glyphname = uni0967;
layers = (
{
layerId = "1BB6288A-6CCF-4A5F-A7E1-DC794ABD1039";
paths = (
{
closed = 1;
nodes = (
"104 649 OFFCURVE",
"38 591 OFFCURVE",
"38 545 CURVE SMOOTH",
"38 512 OFFCURVE",
"102 461 OFFCURVE",
"167 421 CURVE",
"167 374 OFFCURVE",
"10 279 OFFCURVE",
"10 234 CURVE SMOOTH",
"10 181 OFFCURVE",
"196 85 OFFCURVE",
"264 -2 CURVE",
"290 14 LINE",
"236 93 OFFCURVE",
"112 166 OFFCURVE",
"112 185 CURVE SMOOTH",
"112 212 OFFCURVE",
"234 275 OFFCURVE",
"275 395 CURVE SMOOTH",
"285 424 OFFCURVE",
"285 462 OFFCURVE",
"285 499 CURVE SMOOTH",
"285 562 OFFCURVE",
"182 649 OFFCURVE",
"141 649 CURVE SMOOTH"
);
}
);
width = 315;
}
);
unicode = 0967;
},
{
glyphname = uni0968;
layers = (
{
layerId = "1BB6288A-6CCF-4A5F-A7E1-DC794ABD1039";
paths = (
{
closed = 1;
nodes = (
"50 462 LINE SMOOTH",
"50 423 OFFCURVE",
"104 392 OFFCURVE",
"147 371 CURVE",
"164 391 LINE",
"152 399 OFFCURVE",
"148 409 OFFCURVE",
"148 424 CURVE SMOOTH",
"148 511 LINE SMOOTH",
"148 546 OFFCURVE",
"189 573 OFFCURVE",
"229 573 CURVE SMOOTH",
"258 573 OFFCURVE",
"284 560 OFFCURVE",
"284 540 CURVE SMOOTH",
"284 523 OFFCURVE",
"272 494 OFFCURVE",
"272 453 CURVE SMOOTH",
"272 391 LINE SMOOTH",
"272 335 OFFCURVE",
"249 281 OFFCURVE",
"171 249 CURVE",
"146 269 OFFCURVE",
"93 309 OFFCURVE",
"68 309 CURVE SMOOTH",
"47 309 OFFCURVE",
"15 275 OFFCURVE",
"15 250 CURVE SMOOTH",
"15 210 OFFCURVE",
"107 143 OFFCURVE",
"169 143 CURVE SMOOTH",
"180 143 OFFCURVE",
"190 144 OFFCURVE",
"200 146 CURVE",
"255 96 OFFCURVE",
"309 35 OFFCURVE",
"349 -8 CURVE",
"377 14 LINE",
"341 57 OFFCURVE",
"288 113 OFFCURVE",
"240 158 CURVE",
"316 192 OFFCURVE",
"370 274 OFFCURVE",
"370 327 CURVE SMOOTH",
"370 401 LINE SMOOTH",
"370 441 OFFCURVE",
"378 473 OFFCURVE",
"378 490 CURVE SMOOTH",
"378 559 OFFCURVE",
"230 649 OFFCURVE",
"157 649 CURVE SMOOTH",
"106 649 OFFCURVE",
"50 605 OFFCURVE",
"50 550 CURVE SMOOTH"
);
}
);
width = 403;
}
);
unicode = 0968;
},
{
glyphname = uni0969;
layers = (
{
layerId = "1BB6288A-6CCF-4A5F-A7E1-DC794ABD1039";
paths = (
{
closed = 1;
nodes = (
"272 573 OFFCURVE",
"285 556 OFFCURVE",
"285 530 CURVE SMOOTH",
"285 507 OFFCURVE",
"278 456 OFFCURVE",
"249 411 CURVE",
"226 420 OFFCURVE",
"201 425 OFFCURVE",
"176 425 CURVE SMOOTH",
"135 425 OFFCURVE",
"85 410 OFFCURVE",
"46 380 CURVE",
"114 302 LINE",
"162 336 OFFCURVE",
"209 347 OFFCURVE",
"242 347 CURVE SMOOTH",
"273 347 OFFCURVE",
"290 329 OFFCURVE",
"290 301 CURVE SMOOTH",
"290 253 OFFCURVE",
"253 207 OFFCURVE",
"190 191 CURVE",
"144 213 OFFCURVE",
"98 235 OFFCURVE",
"78 235 CURVE SMOOTH",
"57 235 OFFCURVE",
"25 201 OFFCURVE",
"25 175 CURVE SMOOTH",
"25 147 OFFCURVE",
"112 85 OFFCURVE",
"198 85 CURVE SMOOTH",
"211 85 OFFCURVE",
"225 87 OFFCURVE",
"239 90 CURVE",
"278 60 OFFCURVE",
"324 17 OFFCURVE",
"364 -24 CURVE",
"386 -4 LINE",
"352 35 OFFCURVE",
"316 71 OFFCURVE",
"276 104 CURVE",
"336 132 OFFCURVE",
"388 189 OFFCURVE",
"388 249 CURVE SMOOTH",
"388 279 OFFCURVE",
"370 317 OFFCURVE",
"341 349 CURVE",
"375 402 OFFCURVE",
"382 459 OFFCURVE",
"382 480 CURVE SMOOTH",
"382 554 OFFCURVE",
"253 649 OFFCURVE",
"189 649 CURVE SMOOTH",
"125 649 OFFCURVE",
"77 629 OFFCURVE",
"42 605 CURVE",
"32 581 LINE",
"119 486 LINE",
"137 486 LINE",
"186 560 LINE",
"210 568 OFFCURVE",
"232 573 OFFCURVE",
"250 573 CURVE SMOOTH"
);
}
);
width = 416;
}
);
unicode = 0969;
},
{
glyphname = uni096A;
layers = (
{
layerId = "1BB6288A-6CCF-4A5F-A7E1-DC794ABD1039";
paths = (
{
closed = 1;
nodes = (
"83 635 LINE",
"46 592 OFFCURVE",
"25 544 OFFCURVE",
"25 499 CURVE SMOOTH",
"25 436 OFFCURVE",
"74 386 OFFCURVE",
"135 344 CURVE",
"85 316 OFFCURVE",
"43 280 OFFCURVE",
"43 219 CURVE SMOOTH",
"43 113 OFFCURVE",
"224 24 OFFCURVE",
"271 24 CURVE SMOOTH",
"349 24 OFFCURVE",
"397 105 OFFCURVE",
"397 155 CURVE SMOOTH",
"397 207 OFFCURVE",
"357 263 OFFCURVE",
"296 308 CURVE",
"354 339 OFFCURVE",
"407 372 OFFCURVE",
"407 432 CURVE SMOOTH",
"407 491 LINE SMOOTH",
"407 547 OFFCURVE",
"335 607 OFFCURVE",
"274 637 CURVE",
"258 616 LINE",
"288 596 OFFCURVE",
"309 574 OFFCURVE",
"309 545 CURVE SMOOTH",
"309 482 LINE SMOOTH",
"309 423 OFFCURVE",
"237 396 OFFCURVE",
"168 361 CURVE",
"136 385 OFFCURVE",
"123 412 OFFCURVE",
"123 439 CURVE SMOOTH",
"123 488 OFFCURVE",
"141 534 OFFCURVE",
"182 578 CURVE"
);
},
{
closed = 1;
nodes = (
"303 182 OFFCURVE",
"252 100 OFFCURVE",
"182 100 CURVE SMOOTH",
"154 100 OFFCURVE",
"137 120 OFFCURVE",
"137 144 CURVE SMOOTH",
"137 218 OFFCURVE",
"198 256 OFFCURVE",
"263 290 CURVE",
"287 274 OFFCURVE",
"303 252 OFFCURVE",
"303 230 CURVE SMOOTH"
);
}
);
width = 437;
}
);
unicode = 096A;
},
{
glyphname = uni096B;
layers = (
{
layerId = "1BB6288A-6CCF-4A5F-A7E1-DC794ABD1039";
paths = (
{
closed = 1;
nodes = (
"406 482 OFFCURVE",
"354 532 OFFCURVE",
"317 532 CURVE SMOOTH",
"285 532 OFFCURVE",
"235 484 OFFCURVE",
"235 453 CURVE SMOOTH",
"235 426 OFFCURVE",
"239 366 OFFCURVE",
"256 304 CURVE",
"228 260 OFFCURVE",
"187 230 OFFCURVE",
"147 230 CURVE SMOOTH",
"130 230 OFFCURVE",
"118 239 OFFCURVE",
"118 253 CURVE SMOOTH",
"118 276 OFFCURVE",
"147 316 OFFCURVE",
"147 372 CURVE SMOOTH",
"147 503 LINE SMOOTH",
"147 539 OFFCURVE",
"163 566 OFFCURVE",
"183 580 CURVE",
"117 652 LINE",
"63 619 OFFCURVE",
"49 569 OFFCURVE",
"49 540 CURVE SMOOTH",
"49 424 LINE SMOOTH",
"49 371 OFFCURVE",
"25 328 OFFCURVE",
"25 305 CURVE SMOOTH",
"25 240 OFFCURVE",
"146 154 OFFCURVE",
"210 154 CURVE SMOOTH",
"243 154 OFFCURVE",
"271 165 OFFCURVE",
"296 183 CURVE",
"316 122 OFFCURVE",
"347 47 OFFCURVE",
"376 2 CURVE",
"409 24 LINE",
"378 74 OFFCURVE",
"348 154 OFFCURVE",
"330 214 CURVE",
"379 273 OFFCURVE",
"406 368 OFFCURVE",
"406 459 CURVE SMOOTH"
);
}
);
width = 434;
}
);
unicode = 096B;
},
{
glyphname = uni096C;
layers = (
{
layerId = "1BB6288A-6CCF-4A5F-A7E1-DC794ABD1039";
paths = (
{
closed = 1;
nodes = (
"349 509 LINE",
"402 568 LINE",
"322 639 LINE",
"182 639 LINE SMOOTH",
"96 639 OFFCURVE",
"38 565 OFFCURVE",
"38 499 CURVE SMOOTH",
"38 453 OFFCURVE",
"63 415 OFFCURVE",
"97 382 CURVE",
"55 354 OFFCURVE",
"28 313 OFFCURVE",
"28 265 CURVE SMOOTH",
"28 173 OFFCURVE",
"150 68 OFFCURVE",
"246 68 CURVE SMOOTH",
"262 68 OFFCURVE",
"276 72 OFFCURVE",
"294 76 CURVE",
"323 33 OFFCURVE",
"370 -14 OFFCURVE",
"402 -39 CURVE",
"425 -17 LINE",
"394 9 OFFCURVE",
"357 47 OFFCURVE",
"333 93 CURVE",
"384 121 OFFCURVE",
"421 168 OFFCURVE",
"421 204 CURVE SMOOTH",
"421 227 OFFCURVE",
"369 280 OFFCURVE",
"340 280 CURVE SMOOTH",
"291 280 OFFCURVE",
"236 223 OFFCURVE",
"236 182 CURVE SMOOTH",
"236 174 OFFCURVE",
"237 167 OFFCURVE",
"242 161 CURVE",
"219 150 OFFCURVE",
"195 142 OFFCURVE",
"169 142 CURVE SMOOTH",
"138 142 OFFCURVE",
"124 161 OFFCURVE",
"124 191 CURVE SMOOTH",
"124 279 OFFCURVE",
"182 333 OFFCURVE",
"295 347 CURVE SMOOTH",
"367 356 LINE",
"376 369 LINE",
"313 432 LINE",
"216 423 LINE SMOOTH",
"188 420 OFFCURVE",
"162 414 OFFCURVE",
"139 404 CURVE",
"135 415 OFFCURVE",
"134 426 OFFCURVE",
"134 439 CURVE SMOOTH",
"134 503 OFFCURVE",
"175 562 OFFCURVE",
"251 562 CURVE SMOOTH",
"279 562 OFFCURVE",
"307 531 OFFCURVE",
"327 509 CURVE"
);
}
);
width = 445;
}
);
unicode = 096C;
},
{
glyphname = uni096D;
layers = (
{
layerId = "1BB6288A-6CCF-4A5F-A7E1-DC794ABD1039";
paths = (
{
closed = 1;
nodes = (
"160 116 OFFCURVE",
"124 134 OFFCURVE",
"124 159 CURVE SMOOTH",
"124 182 OFFCURVE",
"142 218 OFFCURVE",
"142 274 CURVE SMOOTH",
"142 478 LINE SMOOTH",
"142 517 OFFCURVE",
"169 546 OFFCURVE",
"198 562 CURVE",
"129 634 LINE",
"71 606 OFFCURVE",
"44 559 OFFCURVE",
"44 512 CURVE SMOOTH",
"44 326 LINE SMOOTH",
"44 273 OFFCURVE",
"30 232 OFFCURVE",
"30 209 CURVE SMOOTH",
"30 136 OFFCURVE",
"201 42 OFFCURVE",
"286 42 CURVE SMOOTH",
"389 42 OFFCURVE",
"493 118 OFFCURVE",
"493 235 CURVE SMOOTH",
"493 375 LINE SMOOTH",
"493 442 OFFCURVE",
"363 534 OFFCURVE",
"310 534 CURVE SMOOTH",
"262 534 OFFCURVE",
"218 499 OFFCURVE",
"218 442 CURVE SMOOTH",
"218 271 LINE SMOOTH",
"218 218 OFFCURVE",
"279 176 OFFCURVE",
"333 149 CURVE",
"299 126 OFFCURVE",
"255 116 OFFCURVE",
"213 116 CURVE SMOOTH"
);
},
{
closed = 1;
nodes = (
"315 400 LINE SMOOTH",
"315 440 OFFCURVE",
"338 461 OFFCURVE",
"371 461 CURVE SMOOTH",
"385 461 OFFCURVE",
"397 449 OFFCURVE",
"397 437 CURVE SMOOTH",
"397 269 LINE SMOOTH",
"397 226 OFFCURVE",
"381 194 OFFCURVE",
"357 169 CURVE",
"324 191 OFFCURVE",
"315 207 OFFCURVE",
"315 234 CURVE SMOOTH"
);
}
);
width = 521;
}
);
unicode = 096D;
},
{
glyphname = uni096E;
layers = (
{
layerId = "1BB6288A-6CCF-4A5F-A7E1-DC794ABD1039";
paths = (
{
closed = 1;
nodes = (
"303 35 OFFCURVE",
"351 86 OFFCURVE",
"378 151 CURVE SMOOTH",
"397 197 LINE",
"304 249 LINE",
"284 209 LINE SMOOTH",
"255 150 OFFCURVE",
"218 109 OFFCURVE",
"163 109 CURVE SMOOTH",
"126 109 OFFCURVE",
"105 129 OFFCURVE",
"105 160 CURVE SMOOTH",
"105 188 OFFCURVE",
"135 254 OFFCURVE",
"157 302 CURVE SMOOTH",
"227 459 LINE SMOOTH",
"259 530 OFFCURVE",
"295 560 OFFCURVE",
"353 575 CURVE",
"292 639 LINE",
"207 629 OFFCURVE",
"163 575 OFFCURVE",
"130 500 CURVE SMOOTH",
"55 332 LINE SMOOTH",
"32 280 OFFCURVE",
"10 242 OFFCURVE",
"10 212 CURVE SMOOTH",
"10 135 OFFCURVE",
"168 35 OFFCURVE",
"244 35 CURVE SMOOTH"
);
}
);
width = 397;
}
);
unicode = 096E;
},
{
glyphname = uni096F;
layers = (
{
layerId = "1BB6288A-6CCF-4A5F-A7E1-DC794ABD1039";
paths = (
{
closed = 1;
nodes = (
"361 44 LINE",
"220 139 OFFCURVE",
"132 200 OFFCURVE",
"132 319 CURVE SMOOTH",
"132 331 OFFCURVE",
"132 344 OFFCURVE",
"133 356 CURVE",
"175 331 OFFCURVE",
"220 313 OFFCURVE",
"261 313 CURVE SMOOTH",
"331 313 OFFCURVE",
"377 411 OFFCURVE",
"377 477 CURVE SMOOTH",
"377 552 OFFCURVE",
"227 649 OFFCURVE",
"169 649 CURVE SMOOTH",
"109 649 OFFCURVE",
"25 534 OFFCURVE",
"25 391 CURVE SMOOTH",
"25 212 OFFCURVE",
"199 106 OFFCURVE",
"340 16 CURVE"
);
},
{
closed = 1;
nodes = (
"268 577 OFFCURVE",
"279 563 OFFCURVE",
"279 536 CURVE SMOOTH",
"279 463 OFFCURVE",
"233 380 OFFCURVE",
"183 380 CURVE SMOOTH",
"168 380 OFFCURVE",
"150 387 OFFCURVE",
"138 401 CURVE",
"156 504 OFFCURVE",
"204 577 OFFCURVE",
"254 577 CURVE SMOOTH"
);
}
);
width = 397;
}
);
unicode = 096F;
},
{
glyphname = zero;
layers = (
{
associatedMasterId = "1BB6288A-6CCF-4A5F-A7E1-DC794ABD1039";
layerId = "C8563CC3-17B3-454B-B4EF-8E0393D5ADF7";
name = img;
width = 437;
},
{
layerId = "1BB6288A-6CCF-4A5F-A7E1-DC794ABD1039";
paths = (
{
closed = 1;
nodes = (
"389 406 LINE SMOOTH",
"389 446 OFFCURVE",
"390 478 OFFCURVE",
"390 495 CURVE SMOOTH",
"390 564 OFFCURVE",
"253 654 OFFCURVE",
"180 654 CURVE SMOOTH",
"125 654 OFFCURVE",
"54 603 OFFCURVE",
"54 530 CURVE SMOOTH",
"54 293 LINE SMOOTH",
"54 240 OFFCURVE",
"43 197 OFFCURVE",
"43 174 CURVE SMOOTH",
"43 105 OFFCURVE",
"172 15 OFFCURVE",
"245 15 CURVE SMOOTH",
"310 15 OFFCURVE",
"389 66 OFFCURVE",
"389 139 CURVE SMOOTH"
);
},
{
closed = 1;
nodes = (
"144 91 OFFCURVE",
"137 104 OFFCURVE",
"137 124 CURVE SMOOTH",
"137 147 OFFCURVE",
"152 185 OFFCURVE",
"152 241 CURVE SMOOTH",
"152 491 LINE SMOOTH",
"152 544 OFFCURVE",
"215 578 OFFCURVE",
"252 578 CURVE SMOOTH",
"281 578 OFFCURVE",
"296 565 OFFCURVE",
"296 545 CURVE SMOOTH",
"296 528 OFFCURVE",
"291 499 OFFCURVE",
"291 458 CURVE SMOOTH",
"291 178 LINE SMOOTH",
"291 125 OFFCURVE",
"220 91 OFFCURVE",
"173 91 CURVE SMOOTH"
);
}
);
width = 437;
}
);
unicode = 0030;
},
{
glyphname = one;
layers = (
{
hints = (
{
horizontal = 1;
place = "{15, 77}";
type = Stem;
},
{
horizontal = 1;
place = "{639, -20}";
target = down;
type = TopGhost;
},
{
place = "{163, 95}";
type = Stem;
}
);
layerId = "1BB6288A-6CCF-4A5F-A7E1-DC794ABD1039";
paths = (
{
closed = 1;
nodes = (
"128 82 OFFCURVE",
"215 23 OFFCURVE",
"248 3 CURVE",
"264 26 LINE",
"239 42 OFFCURVE",
"226 52 OFFCURVE",
"226 75 CURVE SMOOTH",
"226 99 OFFCURVE",
"233 164 OFFCURVE",
"233 230 CURVE SMOOTH",
"233 587 LINE SMOOTH",
"233 603 OFFCURVE",
"165 657 OFFCURVE",
"144 657 CURVE",
"112 627 OFFCURVE",
"55 589 OFFCURVE",
"19 566 CURVE",
"30 543 OFFCURVE",
"55 511 OFFCURVE",
"82 491 CURVE",
"135 526 LINE",
"135 280 LINE SMOOTH",
"135 213 OFFCURVE",
"128 151 OFFCURVE",
"128 121 CURVE SMOOTH"
);
}
);
width = 341;
}
);
unicode = 0031;
},
{
glyphname = two;
layers = (
{
layerId = "1BB6288A-6CCF-4A5F-A7E1-DC794ABD1039";
paths = (
{
closed = 1;
nodes = (
"369 46 LINE",
"330 111 LINE",
"130 111 LINE",
"130 151 LINE SMOOTH",
"130 173 OFFCURVE",
"132 181 OFFCURVE",
"143 192 CURVE",
"275 307 LINE SMOOTH",
"325 350 OFFCURVE",
"364 394 OFFCURVE",
"364 478 CURVE SMOOTH",
"364 501 LINE SMOOTH",
"364 566 OFFCURVE",
"225 654 OFFCURVE",
"155 654 CURVE SMOOTH",
"109 654 OFFCURVE",
"57 642 OFFCURVE",
"30 630 CURVE",
"18 601 LINE",
"91 509 LINE",
"109 509 LINE",
"137 550 OFFCURVE",
"174 578 OFFCURVE",
"227 578 CURVE SMOOTH",
"250 578 OFFCURVE",
"266 565 OFFCURVE",
"266 551 CURVE SMOOTH",
"266 512 LINE SMOOTH",
"266 459 OFFCURVE",
"249 428 OFFCURVE",
"205 390 CURVE SMOOTH",
"59 261 LINE SMOOTH",
"32 238 OFFCURVE",
"32 198 OFFCURVE",
"32 163 CURVE SMOOTH",
"32 103 LINE",
"103 27 LINE",
"355 27 LINE"
);
}
);
width = 396;
}
);
unicode = 0032;
},
{
glyphname = three;
layers = (
{
layerId = "1BB6288A-6CCF-4A5F-A7E1-DC794ABD1039";
paths = (
{
closed = 1;
nodes = (
"18 141 LINE",
"62 70 OFFCURVE",
"140 15 OFFCURVE",
"217 15 CURVE SMOOTH",
"314 15 OFFCURVE",
"390 85 OFFCURVE",
"390 194 CURVE SMOOTH",
"390 257 OFFCURVE",
"336 343 OFFCURVE",
"255 379 CURVE",
"294 428 OFFCURVE",
"352 497 OFFCURVE",
"377 535 CURVE",
"377 565 LINE",
"304 639 LINE",
"21 639 LINE",
"10 614 LINE",
"95 511 LINE",
"120 511 LINE",
"138 545 OFFCURVE",
"177 567 OFFCURVE",
"212 567 CURVE SMOOTH",
"278 567 LINE",
"233 504 OFFCURVE",
"148 407 OFFCURVE",
"82 327 CURVE",
"165 271 LINE",
"192 301 OFFCURVE",
"216 327 OFFCURVE",
"241 327 CURVE SMOOTH",
"275 327 OFFCURVE",
"292 293 OFFCURVE",
"292 246 CURVE SMOOTH",
"292 166 OFFCURVE",
"230 97 OFFCURVE",
"166 97 CURVE SMOOTH",
"122 97 OFFCURVE",
"83 118 OFFCURVE",
"47 161 CURVE"
);
}
);
width = 420;
}
);
unicode = 0033;
},
{
glyphname = four;
layers = (
{
layerId = "1BB6288A-6CCF-4A5F-A7E1-DC794ABD1039";
paths = (
{
closed = 1;
nodes = (
"193 653 LINE",
"26 305 LINE SMOOTH",
"21 294 OFFCURVE",
"15 284 OFFCURVE",
"15 273 CURVE SMOOTH",
"15 254 OFFCURVE",
"30 231 OFFCURVE",
"79 192 CURVE SMOOTH",
"148 137 OFFCURVE",
"156 133 OFFCURVE",
"197 133 CURVE SMOOTH",
"267 133 LINE",
"267 90 LINE SMOOTH",
"267 52 OFFCURVE",
"291 29 OFFCURVE",
"385 -11 CURVE",
"398 9 LINE",
"366 28 OFFCURVE",
"361 36 OFFCURVE",
"361 58 CURVE SMOOTH",
"361 77 OFFCURVE",
"362 102 OFFCURVE",
"362 145 CURVE",
"399 162 OFFCURVE",
"418 201 OFFCURVE",
"418 259 CURVE SMOOTH",
"418 339 OFFCURVE",
"362 420 OFFCURVE",
"307 420 CURVE SMOOTH",
"281 420 OFFCURVE",
"263 400 OFFCURVE",
"263 368 CURVE SMOOTH",
"263 218 LINE",
"127 218 LINE SMOOTH",
"116 218 OFFCURVE",
"110 222 OFFCURVE",
"110 229 CURVE SMOOTH",
"110 238 OFFCURVE",
"117 250 OFFCURVE",
"127 271 CURVE SMOOTH",
"283 605 LINE",
"207 656 LINE"
);
}
);
width = 448;
}
);
unicode = 0034;
},
{
glyphname = five;
layers = (
{
associatedMasterId = "1BB6288A-6CCF-4A5F-A7E1-DC794ABD1039";
layerId = "C8563CC3-17B3-454B-B4EF-8E0393D5ADF7";
name = img;
width = 449;
},
{
layerId = "1BB6288A-6CCF-4A5F-A7E1-DC794ABD1039";
paths = (
{
closed = 1;
nodes = (
"227 562 LINE SMOOTH",
"263 562 OFFCURVE",
"294 524 OFFCURVE",
"322 495 CURVE",
"344 495 LINE",
"409 562 LINE",
"343 639 LINE",
"38 639 LINE",
"32 619 LINE",
"75 571 LINE",
"55 347 LINE",
"131 280 LINE",
"175 295 OFFCURVE",
"218 310 OFFCURVE",
"258 310 CURVE SMOOTH",
"293 310 OFFCURVE",
"305 285 OFFCURVE",
"305 256 CURVE SMOOTH",
"305 153 OFFCURVE",
"251 97 OFFCURVE",
"181 97 CURVE SMOOTH",
"136 97 OFFCURVE",
"100 119 OFFCURVE",
"64 168 CURVE",
"36 146 LINE",
"80 72 OFFCURVE",
"155 15 OFFCURVE",
"232 15 CURVE SMOOTH",
"330 15 OFFCURVE",
"404 70 OFFCURVE",
"404 206 CURVE SMOOTH",
"404 293 OFFCURVE",
"267 395 OFFCURVE",
"212 395 CURVE SMOOTH",
"191 395 OFFCURVE",
"173 393 OFFCURVE",
"157 390 CURVE",
"171 562 LINE"
);
}
);
width = 449;
}
);
unicode = 0035;
},
{
glyphname = six;
layers = (
{
layerId = "1BB6288A-6CCF-4A5F-A7E1-DC794ABD1039";
paths = (
{
closed = 1;
nodes = (
"338 508 LINE",
"388 560 LINE",
"316 639 LINE",
"179 639 LINE SMOOTH",
"124 639 OFFCURVE",
"50 584 OFFCURVE",
"50 505 CURVE SMOOTH",
"50 262 LINE SMOOTH",
"50 222 OFFCURVE",
"43 195 OFFCURVE",
"43 178 CURVE SMOOTH",
"43 107 OFFCURVE",
"189 15 OFFCURVE",
"259 15 CURVE SMOOTH",
"327 15 OFFCURVE",
"401 76 OFFCURVE",
"401 181 CURVE SMOOTH",
"401 223 LINE SMOOTH",
"401 314 OFFCURVE",
"260 409 OFFCURVE",
"191 409 CURVE SMOOTH",
"176 409 OFFCURVE",
"162 408 OFFCURVE",
"148 406 CURVE",
"148 443 LINE SMOOTH",
"148 501 OFFCURVE",
"188 562 OFFCURVE",
"250 563 CURVE",
"273 551 OFFCURVE",
"293 529 OFFCURVE",
"314 508 CURVE"
);
},
{
closed = 1;
nodes = (
"170 89 OFFCURVE",
"140 105 OFFCURVE",
"140 128 CURVE SMOOTH",
"140 145 OFFCURVE",
"148 169 OFFCURVE",
"148 210 CURVE SMOOTH",
"148 308 LINE",
"178 323 OFFCURVE",
"219 332 OFFCURVE",
"253 332 CURVE SMOOTH",
"282 332 OFFCURVE",
"302 312 OFFCURVE",
"302 272 CURVE SMOOTH",
"302 228 LINE SMOOTH",
"302 140 OFFCURVE",
"244 89 OFFCURVE",
"194 89 CURVE SMOOTH"
);
}
);
width = 446;
}
);
unicode = 0036;
},
{
glyphname = seven;
layers = (
{
layerId = "1BB6288A-6CCF-4A5F-A7E1-DC794ABD1039";
paths = (
{
closed = 1;
nodes = (
"229 18 LINE",
"206 35 OFFCURVE",
"180 57 OFFCURVE",
"180 73 CURVE SMOOTH",
"180 95 OFFCURVE",
"201 129 OFFCURVE",
"227 195 CURVE SMOOTH",
"369 559 LINE",
"296 639 LINE",
"-10 639 LINE",
"-20 615 LINE",
"80 495 LINE",
"105 495 LINE",
"123 529 OFFCURVE",
"167 567 OFFCURVE",
"202 567 CURVE SMOOTH",
"259 567 LINE",
"127 247 LINE SMOOTH",
"101 184 OFFCURVE",
"82 148 OFFCURVE",
"82 120 CURVE SMOOTH",
"82 87 OFFCURVE",
"164 27 OFFCURVE",
"211 -5 CURVE"
);
}
);
width = 379;
}
);
unicode = 0037;
},
{
glyphname = eight;
layers = (
{
layerId = "1BB6288A-6CCF-4A5F-A7E1-DC794ABD1039";
paths = (
{
closed = 1;
nodes = (
"411 521 OFFCURVE",
"407 546 OFFCURVE",
"400 567 CURVE",
"324 639 LINE",
"195 639 LINE SMOOTH",
"132 639 OFFCURVE",
"55 610 OFFCURVE",
"55 520 CURVE SMOOTH",
"55 456 LINE SMOOTH",
"55 407 OFFCURVE",
"103 366 OFFCURVE",
"146 344 CURVE",
"94 311 OFFCURVE",
"48 279 OFFCURVE",
"48 226 CURVE SMOOTH",
"48 175 LINE SMOOTH",
"48 106 OFFCURVE",
"190 15 OFFCURVE",
"260 15 CURVE SMOOTH",
"323 15 OFFCURVE",
"413 60 OFFCURVE",
"413 150 CURVE SMOOTH",
"413 228 LINE SMOOTH",
"413 273 OFFCURVE",
"382 308 OFFCURVE",
"323 338 CURVE",
"389 389 OFFCURVE",
"411 422 OFFCURVE",
"411 485 CURVE SMOOTH"
);
},
{
closed = 1;
nodes = (
"315 190 LINE SMOOTH",
"315 119 OFFCURVE",
"240 91 OFFCURVE",
"188 91 CURVE SMOOTH",
"165 91 OFFCURVE",
"146 107 OFFCURVE",
"146 126 CURVE SMOOTH",
"146 173 LINE SMOOTH",
"146 230 OFFCURVE",
"219 263 OFFCURVE",
"288 312 CURVE",
"305 296 OFFCURVE",
"315 277 OFFCURVE",
"315 252 CURVE"
);
},
{
closed = 1;
nodes = (
"153 480 LINE SMOOTH",
"153 551 OFFCURVE",
"206 567 OFFCURVE",
"253 567 CURVE SMOOTH",
"298 567 LINE",
"303 557 OFFCURVE",
"308 531 OFFCURVE",
"308 517 CURVE SMOOTH",
"308 472 OFFCURVE",
"297 449 OFFCURVE",
"221 392 CURVE SMOOTH",
"207 381 OFFCURVE",
"192 372 OFFCURVE",
"177 362 CURVE",
"162 372 OFFCURVE",
"153 385 OFFCURVE",
"153 419 CURVE"
);
}
);
width = 455;
}
);
unicode = 0038;
},
{
glyphname = nine;
layers = (
{
associatedMasterId = "1BB6288A-6CCF-4A5F-A7E1-DC794ABD1039";
layerId = "C8563CC3-17B3-454B-B4EF-8E0393D5ADF7";
name = img;
width = 437;
},
{
layerId = "1BB6288A-6CCF-4A5F-A7E1-DC794ABD1039";
paths = (
{
closed = 1;
nodes = (
"384 485 LINE SMOOTH",
"384 521 OFFCURVE",
"380 546 OFFCURVE",
"373 567 CURVE",
"299 639 LINE",
"190 639 LINE SMOOTH",
"117 639 OFFCURVE",
"43 593 OFFCURVE",
"43 488 CURVE SMOOTH",
"43 414 LINE SMOOTH",
"43 333 OFFCURVE",
"184 248 OFFCURVE",
"253 248 CURVE SMOOTH",
"265 248 OFFCURVE",
"275 250 OFFCURVE",
"286 254 CURVE",
"286 208 LINE SMOOTH",
"286 131 OFFCURVE",
"227 97 OFFCURVE",
"180 97 CURVE SMOOTH",
"138 97 OFFCURVE",
"103 117 OFFCURVE",
"74 164 CURVE",
"44 146 LINE",
"80 72 OFFCURVE",
"153 15 OFFCURVE",
"238 15 CURVE SMOOTH",
"303 15 OFFCURVE",
"384 72 OFFCURVE",
"384 169 CURVE SMOOTH"
);
},
{
closed = 1;
nodes = (
"162 325 OFFCURVE",
"142 339 OFFCURVE",
"142 365 CURVE SMOOTH",
"142 441 LINE SMOOTH",
"142 529 OFFCURVE",
"190 567 OFFCURVE",
"245 567 CURVE SMOOTH",
"276 567 LINE",
"281 557 OFFCURVE",
"286 531 OFFCURVE",
"286 517 CURVE SMOOTH",
"286 392 LINE",
"263 352 OFFCURVE",
"225 325 OFFCURVE",
"191 325 CURVE SMOOTH"
);
}
);
width = 437;
}
);
unicode = 0039;
},
{
glyphname = ZWJ;
layers = (
{
layerId = "1BB6288A-6CCF-4A5F-A7E1-DC794ABD1039";
paths = (
{
closed = 1;
nodes = (
"20 0 LINE",
"20 462 LINE",
"-20 462 LINE",
"-20 0 LINE"
);
},
{
closed = 1;
nodes = (
"97 499 LINE",
"27 567 LINE",
"97 635 LINE",
"69 660 LINE",
"0 593 LINE",
"-68 660 LINE",
"-97 635 LINE",
"-27 567 LINE",
"-97 499 LINE",
"-68 474 LINE",
"0 540 LINE",
"69 474 LINE"
);
}
);
width = 0;
}
);
unicode = 200D;
},
{
glyphname = ZWNJ;
layers = (
{
layerId = "1BB6288A-6CCF-4A5F-A7E1-DC794ABD1039";
paths = (
{
closed = 1;
nodes = (
"20 0 LINE",
"20 639 LINE",
"-20 639 LINE",
"-20 0 LINE"
);
}
);
width = 0;
}
);
unicode = 200C;
},
{
glyphname = uni097D;
layers = (
{
layerId = "1BB6288A-6CCF-4A5F-A7E1-DC794ABD1039";
paths = (
{
closed = 1;
nodes = (
"210 17 LINE",
"210 256 LINE",
"311 256 OFFCURVE",
"399 323 OFFCURVE",
"399 440 CURVE SMOOTH",
"399 565 OFFCURVE",
"229 648 OFFCURVE",
"170 648 CURVE SMOOTH",
"115 648 OFFCURVE",
"51 603 OFFCURVE",
"19 544 CURVE",
"88 481 LINE",
"109 481 LINE",
"143 532 OFFCURVE",
"198 574 OFFCURVE",
"248 574 CURVE SMOOTH",
"286 574 OFFCURVE",
"303 542 OFFCURVE",
"303 504 CURVE SMOOTH",
"303 394 OFFCURVE",
"231 334 OFFCURVE",
"154 334 CURVE SMOOTH",
"114 334 LINE",
"115 321 LINE",
"115 47 LINE",
"193 7 LINE"
);
}
);
width = 427;
}
);
unicode = 097D;
},
{
glyphname = Danda.dv;
layers = (
{
associatedMasterId = "1BB6288A-6CCF-4A5F-A7E1-DC794ABD1039";
layerId = "C8563CC3-17B3-454B-B4EF-8E0393D5ADF7";
name = img;
width = 317;
},
{
layerId = "1BB6288A-6CCF-4A5F-A7E1-DC794ABD1039";
paths = (
{
closed = 1;
nodes = (
"206 528 LINE SMOOTH",
"206 562 OFFCURVE",
"222 588 OFFCURVE",
"242 602 CURVE",
"176 674 LINE",
"132 648 OFFCURVE",
"111 605 OFFCURVE",
"111 562 CURVE",
"111 108 LINE SMOOTH",
"111 74 OFFCURVE",
"95 48 OFFCURVE",
"75 34 CURVE",
"141 -38 LINE",
"185 -12 OFFCURVE",
"206 31 OFFCURVE",
"206 74 CURVE"
);
}
);
width = 317;
}
);
unicode = 0964;
},
{
glyphname = Doubledanda.dv;
layers = (
{
associatedMasterId = "1BB6288A-6CCF-4A5F-A7E1-DC794ABD1039";
layerId = "C8563CC3-17B3-454B-B4EF-8E0393D5ADF7";
name = img;
width = 516;
},
{
layerId = "1BB6288A-6CCF-4A5F-A7E1-DC794ABD1039";
paths = (
{
closed = 1;
nodes = (
"206 528 LINE SMOOTH",
"206 562 OFFCURVE",
"222 588 OFFCURVE",
"242 602 CURVE",
"176 674 LINE",
"132 648 OFFCURVE",
"111 605 OFFCURVE",
"111 562 CURVE SMOOTH",
"111 108 LINE SMOOTH",
"111 74 OFFCURVE",
"95 48 OFFCURVE",
"75 34 CURVE",
"141 -38 LINE",
"185 -12 OFFCURVE",
"206 31 OFFCURVE",
"206 74 CURVE SMOOTH"
);
},
{
closed = 1;
nodes = (
"405 528 LINE SMOOTH",
"405 562 OFFCURVE",
"421 588 OFFCURVE",
"441 602 CURVE",
"375 674 LINE",
"331 648 OFFCURVE",
"310 605 OFFCURVE",
"310 562 CURVE SMOOTH",
"310 108 LINE SMOOTH",
"310 74 OFFCURVE",
"294 48 OFFCURVE",
"274 34 CURVE",
"340 -38 LINE",
"384 -12 OFFCURVE",
"405 31 OFFCURVE",
"405 74 CURVE SMOOTH"
);
}
);
width = 516;
}
);
unicode = 0965;
},
{
glyphname = uni0970;
layers = (
{
layerId = "1BB6288A-6CCF-4A5F-A7E1-DC794ABD1039";
paths = (
{
closed = 1;
nodes = (
"118 396 LINE",
"118 437 OFFCURVE",
"169 463 OFFCURVE",
"206 463 CURVE SMOOTH",
"229 463 OFFCURVE",
"247 450 OFFCURVE",
"247 430 CURVE",
"247 288 LINE SMOOTH",
"247 247 OFFCURVE",
"196 221 OFFCURVE",
"159 221 CURVE SMOOTH",
"136 221 OFFCURVE",
"118 234 OFFCURVE",
"118 254 CURVE SMOOTH"
);
},
{
closed = 1;
nodes = (
"345 380 LINE",
"345 449 OFFCURVE",
"204 539 OFFCURVE",
"134 539 CURVE SMOOTH",
"78 539 OFFCURVE",
"20 496 OFFCURVE",
"20 435 CURVE SMOOTH",
"20 304 LINE SMOOTH",
"20 235 OFFCURVE",
"161 145 OFFCURVE",
"231 145 CURVE SMOOTH",
"287 145 OFFCURVE",
"345 188 OFFCURVE",
"345 249 CURVE SMOOTH"
);
}
);
width = 395;
}
);
unicode = 0970;
},
{
glyphname = uni0971;
layers = (
{
layerId = "1BB6288A-6CCF-4A5F-A7E1-DC794ABD1039";
paths = (
{
closed = 1;
nodes = (
"1 582 LINE",
"25 562 OFFCURVE",
"48 544 OFFCURVE",
"70 522 CURVE",
"92 537 OFFCURVE",
"133 554 OFFCURVE",
"159 563 CURVE",
"159 572 LINE",
"137 596 OFFCURVE",
"115 615 OFFCURVE",
"90 632 CURVE",
"62 622 OFFCURVE",
"24 607 OFFCURVE",
"1 591 CURVE"
);
}
);
width = 173;
}
);
unicode = 0971;
},
{
glyphname = period;
layers = (
{
associatedMasterId = "1BB6288A-6CCF-4A5F-A7E1-DC794ABD1039";
layerId = "C8563CC3-17B3-454B-B4EF-8E0393D5ADF7";
name = img;
width = 182;
},
{
layerId = "1BB6288A-6CCF-4A5F-A7E1-DC794ABD1039";
paths = (
{
closed = 1;
nodes = (
"157 44 LINE",
"134 65 OFFCURVE",
"109 89 OFFCURVE",
"86 109 CURVE",
"0 59 LINE",
"0 49 LINE",
"23 29 OFFCURVE",
"48 5 OFFCURVE",
"71 -16 CURVE",
"157 35 LINE"
);
}
);
width = 182;
}
);
unicode = 002E;
},
{
glyphname = comma;
layers = (
{
layerId = "1BB6288A-6CCF-4A5F-A7E1-DC794ABD1039";
paths = (
{
closed = 1;
nodes = (
"2 75 LINE",
"25 58 OFFCURVE",
"41 34 OFFCURVE",
"41 14 CURVE SMOOTH",
"41 -9 OFFCURVE",
"27 -36 OFFCURVE",
"-3 -55 CURVE",
"14 -75 LINE",
"70 -44 OFFCURVE",
"131 14 OFFCURVE",
"131 58 CURVE SMOOTH",
"131 88 OFFCURVE",
"105 115 OFFCURVE",
"75 135 CURVE",
"2 89 LINE"
);
}
);
width = 161;
}
);
unicode = 002C;
},
{
glyphname = colon;
layers = (
{
associatedMasterId = "1BB6288A-6CCF-4A5F-A7E1-DC794ABD1039";
layerId = "C8563CC3-17B3-454B-B4EF-8E0393D5ADF7";
name = img;
width = 182;
},
{
layerId = "1BB6288A-6CCF-4A5F-A7E1-DC794ABD1039";
paths = (
{
closed = 1;
nodes = (
"157 124 LINE",
"134 145 OFFCURVE",
"109 169 OFFCURVE",
"86 189 CURVE",
"0 139 LINE",
"0 129 LINE",
"23 109 OFFCURVE",
"48 85 OFFCURVE",
"71 64 CURVE",
"157 115 LINE"
);
},
{
closed = 1;
nodes = (
"157 410 LINE",
"134 431 OFFCURVE",
"109 455 OFFCURVE",
"86 475 CURVE",
"0 425 LINE",
"0 415 LINE",
"23 395 OFFCURVE",
"48 371 OFFCURVE",
"71 350 CURVE",
"157 401 LINE"
);
}
);
width = 182;
}
);
unicode = 003A;
},
{
glyphname = semicolon;
layers = (
{
associatedMasterId = "1BB6288A-6CCF-4A5F-A7E1-DC794ABD1039";
layerId = "C8563CC3-17B3-454B-B4EF-8E0393D5ADF7";
name = img;
width = 182;
},
{
layerId = "1BB6288A-6CCF-4A5F-A7E1-DC794ABD1039";
paths = (
{
closed = 1;
nodes = (
"157 410 LINE",
"134 431 OFFCURVE",
"109 455 OFFCURVE",
"86 475 CURVE",
"0 425 LINE",
"0 415 LINE",
"23 395 OFFCURVE",
"48 371 OFFCURVE",
"71 350 CURVE",
"157 401 LINE"
);
},
{
closed = 1;
nodes = (
"12 105 LINE",
"35 88 OFFCURVE",
"51 64 OFFCURVE",
"51 44 CURVE SMOOTH",
"51 21 OFFCURVE",
"37 -6 OFFCURVE",
"7 -25 CURVE",
"24 -45 LINE",
"80 -14 OFFCURVE",
"141 44 OFFCURVE",
"141 88 CURVE SMOOTH",
"141 118 OFFCURVE",
"115 145 OFFCURVE",
"85 165 CURVE",
"12 119 LINE"
);
}
);
width = 182;
}
);
unicode = 003B;
},
{
glyphname = ellipsis;
layers = (
{
associatedMasterId = "1BB6288A-6CCF-4A5F-A7E1-DC794ABD1039";
layerId = "C8563CC3-17B3-454B-B4EF-8E0393D5ADF7";
name = img;
width = 546;
},
{
layerId = "1BB6288A-6CCF-4A5F-A7E1-DC794ABD1039";
paths = (
{
closed = 1;
nodes = (
"157 44 LINE",
"134 65 OFFCURVE",
"109 89 OFFCURVE",
"86 109 CURVE",
"0 59 LINE",
"0 49 LINE",
"23 29 OFFCURVE",
"48 5 OFFCURVE",
"71 -16 CURVE",
"157 35 LINE"
);
},
{
closed = 1;
nodes = (
"339 44 LINE",
"316 65 OFFCURVE",
"291 89 OFFCURVE",
"268 109 CURVE",
"182 59 LINE",
"182 49 LINE",
"205 29 OFFCURVE",
"230 5 OFFCURVE",
"253 -16 CURVE",
"339 35 LINE"
);
},
{
closed = 1;
nodes = (
"521 44 LINE",
"498 65 OFFCURVE",
"473 89 OFFCURVE",
"450 109 CURVE",
"364 59 LINE",
"364 49 LINE",
"387 29 OFFCURVE",
"412 5 OFFCURVE",
"435 -16 CURVE",
"521 35 LINE"
);
}
);
width = 546;
}
);
unicode = 2026;
},
{
glyphname = exclam;
layers = (
{
associatedMasterId = "1BB6288A-6CCF-4A5F-A7E1-DC794ABD1039";
layerId = "C8563CC3-17B3-454B-B4EF-8E0393D5ADF7";
name = img;
width = 232;
},
{
layerId = "1BB6288A-6CCF-4A5F-A7E1-DC794ABD1039";
paths = (
{
closed = 1;
nodes = (
"150 176 LINE",
"158 319 OFFCURVE",
"165 469 OFFCURVE",
"168 620 CURVE",
"76 663 LINE",
"59 655 LINE",
"63 500 OFFCURVE",
"63 307 OFFCURVE",
"71 194 CURVE",
"133 167 LINE"
);
},
{
closed = 1;
nodes = (
"30 49 LINE",
"54 29 OFFCURVE",
"79 6 OFFCURVE",
"101 -16 CURVE",
"185 33 LINE",
"185 42 LINE",
"163 66 OFFCURVE",
"139 90 OFFCURVE",
"114 107 CURVE",
"30 59 LINE"
);
}
);
width = 232;
}
);
unicode = 0021;
},
{
glyphname = question;
layers = (
{
layerId = "1BB6288A-6CCF-4A5F-A7E1-DC794ABD1039";
paths = (
{
closed = 1;
nodes = (
"215 156 LINE",
"215 205 LINE SMOOTH",
"215 311 OFFCURVE",
"384 317 OFFCURVE",
"384 404 CURVE SMOOTH",
"384 475 LINE SMOOTH",
"384 582 OFFCURVE",
"221 653 OFFCURVE",
"165 653 CURVE SMOOTH",
"114 653 OFFCURVE",
"54 608 OFFCURVE",
"24 549 CURVE",
"93 486 LINE",
"114 486 LINE",
"146 539 OFFCURVE",
"197 579 OFFCURVE",
"243 579 CURVE SMOOTH",
"274 579 OFFCURVE",
"288 560 OFFCURVE",
"288 539 CURVE SMOOTH",
"288 466 LINE SMOOTH",
"288 377 OFFCURVE",
"119 378 OFFCURVE",
"119 263 CURVE SMOOTH",
"119 192 LINE",
"195 145 LINE"
);
},
{
closed = 1;
nodes = (
"257 44 LINE",
"234 65 OFFCURVE",
"209 89 OFFCURVE",
"186 109 CURVE",
"100 59 LINE",
"100 49 LINE",
"123 29 OFFCURVE",
"148 5 OFFCURVE",
"171 -16 CURVE",
"257 35 LINE"
);
}
);
width = 419;
}
);
unicode = 003F;
},
{
glyphname = bullet;
layers = (
{
layerId = "1BB6288A-6CCF-4A5F-A7E1-DC794ABD1039";
paths = (
{
closed = 1;
nodes = (
"241 324 LINE",
"207 355 OFFCURVE",
"169 390 OFFCURVE",
"134 421 CURVE",
"15 345 LINE",
"15 330 LINE",
"48 301 OFFCURVE",
"87 265 OFFCURVE",
"120 233 CURVE",
"241 309 LINE"
);
}
);
width = 256;
}
);
unicode = 2022;
},
{
glyphname = asterisk;
layers = (
{
layerId = "1BB6288A-6CCF-4A5F-A7E1-DC794ABD1039";
paths = (
{
closed = 1;
nodes = (
"253 424 LINE",
"274 451 LINE",
"187 508 LINE",
"278 551 LINE",
"281 563 LINE",
"241 609 LINE",
"166 564 LINE",
"169 643 LINE",
"122 668 LINE",
"108 662 LINE",
"112 554 LINE",
"24 608 LINE",
"2 582 LINE",
"96 528 LINE",
"7 483 LINE",
"3 472 LINE",
"45 426 LINE",
"117 470 LINE",
"114 399 LINE",
"162 374 LINE",
"176 380 LINE",
"171 481 LINE"
);
}
);
width = 303;
}
);
unicode = 002A;
},
{
glyphname = numbersign;
layers = (
{
layerId = "1BB6288A-6CCF-4A5F-A7E1-DC794ABD1039";
paths = (
{
closed = 1;
nodes = (
"315 663 LINE",
"304 497 LINE",
"211 497 LINE",
"218 596 LINE",
"154 663 LINE",
"128 663 LINE",
"117 497 LINE",
"9 497 LINE",
"5 484 LINE",
"108 370 LINE",
"102 275 LINE",
"10 275 LINE",
"6 262 LINE",
"91 168 LINE",
"87 137 OFFCURVE",
"83 110 OFFCURVE",
"83 103 CURVE SMOOTH",
"83 66 OFFCURVE",
"135 30 OFFCURVE",
"189 -8 CURVE",
"207 14 LINE",
"185 28 OFFCURVE",
"174 37 OFFCURVE",
"174 57 CURVE SMOOTH",
"174 72 OFFCURVE",
"186 144 OFFCURVE",
"191 195 CURVE",
"281 195 LINE",
"276 153 OFFCURVE",
"270 113 OFFCURVE",
"270 103 CURVE SMOOTH",
"270 66 OFFCURVE",
"322 30 OFFCURVE",
"376 -8 CURVE",
"394 14 LINE",
"372 28 OFFCURVE",
"361 37 OFFCURVE",
"361 57 CURVE SMOOTH",
"361 72 OFFCURVE",
"373 144 OFFCURVE",
"378 195 CURVE",
"487 195 LINE",
"491 208 LINE",
"386 323 LINE",
"393 417 LINE",
"486 417 LINE",
"490 430 LINE",
"400 528 LINE",
"405 596 LINE",
"341 663 LINE"
);
},
{
closed = 1;
nodes = (
"206 417 LINE",
"298 417 LINE",
"289 275 LINE",
"196 275 LINE"
);
}
);
width = 510;
}
);
unicode = 0023;
},
{
glyphname = slash;
layers = (
{
associatedMasterId = "1BB6288A-6CCF-4A5F-A7E1-DC794ABD1039";
layerId = "C8563CC3-17B3-454B-B4EF-8E0393D5ADF7";
name = img;
width = 222;
},
{
layerId = "1BB6288A-6CCF-4A5F-A7E1-DC794ABD1039";
paths = (
{
closed = 1;
nodes = (
"191 611 LINE",
"143 650 LINE",
"117 644 LINE",
"-2 0 LINE",
"46 -39 LINE",
"72 -33 LINE"
);
}
);
width = 222;
}
);
unicode = 002F;
},
{
glyphname = backslash;
layers = (
{
layerId = "1BB6288A-6CCF-4A5F-A7E1-DC794ABD1039";
paths = (
{
closed = 1;
nodes = (
"63 611 LINE",
"15 650 LINE",
"-11 644 LINE",
"157 0 LINE",
"205 -39 LINE",
"231 -33 LINE"
);
}
);
width = 311;
}
);
unicode = 005C;
},
{
glyphname = hyphen;
layers = (
{
associatedMasterId = "1BB6288A-6CCF-4A5F-A7E1-DC794ABD1039";
layerId = "C8563CC3-17B3-454B-B4EF-8E0393D5ADF7";
name = img;
width = 300;
},
{
layerId = "1BB6288A-6CCF-4A5F-A7E1-DC794ABD1039";
paths = (
{
closed = 1;
nodes = (
"9 359 LINE",
"5 346 LINE",
"55 277 LINE",
"263 277 LINE",
"267 290 LINE",
"217 359 LINE"
);
}
);
width = 300;
}
);
unicode = 002D;
},
{
glyphname = endash;
layers = (
{
associatedMasterId = "1BB6288A-6CCF-4A5F-A7E1-DC794ABD1039";
layerId = "C8563CC3-17B3-454B-B4EF-8E0393D5ADF7";
name = img;
width = 380;
},
{
layerId = "1BB6288A-6CCF-4A5F-A7E1-DC794ABD1039";
paths = (
{
closed = 1;
nodes = (
"9 329 LINE",
"5 316 LINE",
"55 247 LINE",
"343 247 LINE",
"347 260 LINE",
"297 329 LINE"
);
}
);
width = 380;
}
);
unicode = 2013;
},
{
glyphname = emdash;
layers = (
{
associatedMasterId = "1BB6288A-6CCF-4A5F-A7E1-DC794ABD1039";
layerId = "C8563CC3-17B3-454B-B4EF-8E0393D5ADF7";
name = img;
width = 623;
},
{
layerId = "1BB6288A-6CCF-4A5F-A7E1-DC794ABD1039";
paths = (
{
closed = 1;
nodes = (
"9 329 LINE",
"5 316 LINE",
"55 247 LINE",
"586 247 LINE",
"590 260 LINE",
"540 329 LINE"
);
}
);
width = 623;
}
);
unicode = 2014;
},
{
glyphname = underscore;
layers = (
{
associatedMasterId = "1BB6288A-6CCF-4A5F-A7E1-DC794ABD1039";
layerId = "C8563CC3-17B3-454B-B4EF-8E0393D5ADF7";
name = img;
width = 372;
},
{
layerId = "1BB6288A-6CCF-4A5F-A7E1-DC794ABD1039";
paths = (
{
closed = 1;
nodes = (
"9 -38 LINE",
"5 -51 LINE",
"55 -120 LINE",
"373 -120 LINE",
"377 -107 LINE",
"327 -38 LINE"
);
}
);
width = 372;
}
);
unicode = 005F;
},
{
glyphname = parenleft;
layers = (
{
layerId = "1BB6288A-6CCF-4A5F-A7E1-DC794ABD1039";
paths = (
{
closed = 1;
nodes = (
"133 445 OFFCURVE",
"167 569 OFFCURVE",
"208 662 CURVE",
"130 710 LINE",
"84 634 OFFCURVE",
"40 506 OFFCURVE",
"40 355 CURVE SMOOTH",
"40 198 OFFCURVE",
"116 40 OFFCURVE",
"211 -48 CURVE",
"231 -26 LINE",
"175 55 OFFCURVE",
"133 178 OFFCURVE",
"133 315 CURVE SMOOTH"
);
}
);
width = 238;
}
);
unicode = 0028;
},
{
glyphname = parenright;
layers = (
{
associatedMasterId = "1BB6288A-6CCF-4A5F-A7E1-DC794ABD1039";
layerId = "C8563CC3-17B3-454B-B4EF-8E0393D5ADF7";
name = img;
width = 228;
},
{
layerId = "1BB6288A-6CCF-4A5F-A7E1-DC794ABD1039";
paths = (
{
closed = 1;
nodes = (
"85 207 OFFCURVE",
"51 83 OFFCURVE",
"10 -10 CURVE",
"88 -58 LINE",
"134 18 OFFCURVE",
"178 146 OFFCURVE",
"178 297 CURVE SMOOTH",
"178 454 OFFCURVE",
"102 612 OFFCURVE",
"7 700 CURVE",
"-13 678 LINE",
"43 597 OFFCURVE",
"85 474 OFFCURVE",
"85 337 CURVE SMOOTH"
);
}
);
width = 228;
}
);
unicode = 0029;
},
{
glyphname = braceleft;
layers = (
{
layerId = "1BB6288A-6CCF-4A5F-A7E1-DC794ABD1039";
paths = (
{
closed = 1;
nodes = (
"165 208 LINE SMOOTH",
"165 246 OFFCURVE",
"134 280 OFFCURVE",
"94 309 CURVE",
"129 334 OFFCURVE",
"165 375 OFFCURVE",
"165 439 CURVE SMOOTH",
"165 538 LINE SMOOTH",
"165 613 OFFCURVE",
"192 654 OFFCURVE",
"237 687 CURVE",
"159 735 LINE",
"109 707 OFFCURVE",
"74 661 OFFCURVE",
"74 587 CURVE SMOOTH",
"74 485 LINE SMOOTH",
"74 415 OFFCURVE",
"38 379 OFFCURVE",
"0 346 CURVE",
"0 336 LINE",
"44 310 OFFCURVE",
"71 283 OFFCURVE",
"71 246 CURVE SMOOTH",
"71 102 LINE SMOOTH",
"71 36 OFFCURVE",
"163 -23 OFFCURVE",
"243 -53 CURVE",
"257 -30 LINE",
"202 -6 OFFCURVE",
"165 23 OFFCURVE",
"165 64 CURVE SMOOTH"
);
}
);
width = 237;
}
);
unicode = 007B;
},
{
glyphname = braceright;
layers = (
{
associatedMasterId = "1BB6288A-6CCF-4A5F-A7E1-DC794ABD1039";
layerId = "C8563CC3-17B3-454B-B4EF-8E0393D5ADF7";
name = img;
width = 237;
},
{
layerId = "1BB6288A-6CCF-4A5F-A7E1-DC794ABD1039";
paths = (
{
closed = 1;
nodes = (
"67 459 LINE SMOOTH",
"67 420 OFFCURVE",
"97 387 OFFCURVE",
"137 358 CURVE",
"103 333 OFFCURVE",
"67 291 OFFCURVE",
"67 228 CURVE SMOOTH",
"67 134 LINE SMOOTH",
"67 59 OFFCURVE",
"35 18 OFFCURVE",
"-5 -15 CURVE",
"73 -63 LINE",
"118 -35 OFFCURVE",
"158 11 OFFCURVE",
"158 85 CURVE SMOOTH",
"158 182 LINE SMOOTH",
"158 252 OFFCURVE",
"194 288 OFFCURVE",
"232 321 CURVE",
"232 331 LINE",
"188 357 OFFCURVE",
"161 384 OFFCURVE",
"161 421 CURVE SMOOTH",
"161 575 LINE SMOOTH",
"161 641 OFFCURVE",
"74 700 OFFCURVE",
"-1 730 CURVE",
"-15 707 LINE",
"34 683 OFFCURVE",
"67 654 OFFCURVE",
"67 613 CURVE SMOOTH"
);
}
);
width = 237;
}
);
unicode = 007D;
},
{
glyphname = bracketleft;
layers = (
{
associatedMasterId = "1BB6288A-6CCF-4A5F-A7E1-DC794ABD1039";
layerId = "C8563CC3-17B3-454B-B4EF-8E0393D5ADF7";
name = img;
width = 245;
},
{
layerId = "1BB6288A-6CCF-4A5F-A7E1-DC794ABD1039";
paths = (
{
closed = 1;
nodes = (
"166 30 LINE SMOOTH",
"144 30 OFFCURVE",
"135 42 OFFCURVE",
"135 61 CURVE SMOOTH",
"135 82 OFFCURVE",
"150 117 OFFCURVE",
"150 169 CURVE SMOOTH",
"150 553 LINE SMOOTH",
"150 593 OFFCURVE",
"172 622 OFFCURVE",
"208 622 CURVE SMOOTH",
"237 622 LINE",
"245 633 LINE",
"207 691 LINE",
"185 691 LINE SMOOTH",
"114 691 OFFCURVE",
"60 656 OFFCURVE",
"60 566 CURVE SMOOTH",
"60 216 LINE SMOOTH",
"60 168 OFFCURVE",
"49 128 OFFCURVE",
"49 107 CURVE SMOOTH",
"49 43 OFFCURVE",
"168 -39 OFFCURVE",
"235 -39 CURVE SMOOTH",
"267 -39 LINE",
"275 -28 LINE",
"237 30 LINE"
);
}
);
width = 245;
}
);
unicode = 005B;
},
{
glyphname = bracketright;
layers = (
{
associatedMasterId = "1BB6288A-6CCF-4A5F-A7E1-DC794ABD1039";
layerId = "C8563CC3-17B3-454B-B4EF-8E0393D5ADF7";
name = img;
width = 225;
},
{
layerId = "1BB6288A-6CCF-4A5F-A7E1-DC794ABD1039";
paths = (
{
closed = 1;
nodes = (
"-21 19 LINE",
"17 -39 LINE",
"39 -39 LINE SMOOTH",
"110 -39 OFFCURVE",
"164 -4 OFFCURVE",
"164 86 CURVE SMOOTH",
"164 436 LINE SMOOTH",
"164 484 OFFCURVE",
"175 524 OFFCURVE",
"175 545 CURVE SMOOTH",
"175 609 OFFCURVE",
"56 691 OFFCURVE",
"-11 691 CURVE SMOOTH",
"-43 691 LINE",
"-51 680 LINE",
"-13 622 LINE",
"62 622 LINE",
"81 620 OFFCURVE",
"89 608 OFFCURVE",
"89 591 CURVE SMOOTH",
"89 570 OFFCURVE",
"74 535 OFFCURVE",
"74 483 CURVE SMOOTH",
"74 99 LINE SMOOTH",
"74 59 OFFCURVE",
"52 30 OFFCURVE",
"16 30 CURVE SMOOTH",
"-13 30 LINE"
);
}
);
width = 225;
}
);
unicode = 005D;
},
{
glyphname = quotedblleft;
layers = (
{
associatedMasterId = "1BB6288A-6CCF-4A5F-A7E1-DC794ABD1039";
layerId = "C8563CC3-17B3-454B-B4EF-8E0393D5ADF7";
name = img;
width = 271;
},
{
layerId = "1BB6288A-6CCF-4A5F-A7E1-DC794ABD1039";
paths = (
{
closed = 1;
nodes = (
"104 527 LINE",
"104 541 LINE",
"87 556 OFFCURVE",
"78 576 OFFCURVE",
"78 593 CURVE SMOOTH",
"78 622 OFFCURVE",
"92 657 OFFCURVE",
"122 682 CURVE",
"105 702 LINE",
"54 667 OFFCURVE",
"-6 607 OFFCURVE",
"-6 557 CURVE SMOOTH",
"-6 530 OFFCURVE",
"11 503 OFFCURVE",
"34 486 CURVE"
);
},
{
closed = 1;
nodes = (
"237 550 LINE",
"220 567 OFFCURVE",
"208 591 OFFCURVE",
"208 611 CURVE SMOOTH",
"208 637 OFFCURVE",
"216 668 OFFCURVE",
"239 690 CURVE",
"222 710 LINE",
"171 677 OFFCURVE",
"123 620 OFFCURVE",
"123 573 CURVE SMOOTH",
"123 543 OFFCURVE",
"143 516 OFFCURVE",
"168 496 CURVE",
"237 536 LINE"
);
}
);
width = 271;
}
);
unicode = 201C;
},
{
glyphname = quotedblright;
layers = (
{
associatedMasterId = "1BB6288A-6CCF-4A5F-A7E1-DC794ABD1039";
layerId = "C8563CC3-17B3-454B-B4EF-8E0393D5ADF7";
name = img;
width = 272;
},
{
layerId = "1BB6288A-6CCF-4A5F-A7E1-DC794ABD1039";
paths = (
{
closed = 1;
nodes = (
"127 663 LINE",
"127 649 LINE",
"144 634 OFFCURVE",
"153 614 OFFCURVE",
"153 597 CURVE SMOOTH",
"153 568 OFFCURVE",
"139 533 OFFCURVE",
"109 508 CURVE",
"126 488 LINE",
"177 523 OFFCURVE",
"237 583 OFFCURVE",
"237 633 CURVE SMOOTH",
"237 660 OFFCURVE",
"220 687 OFFCURVE",
"197 704 CURVE"
);
},
{
closed = 1;
nodes = (
"-6 640 LINE",
"11 623 OFFCURVE",
"23 599 OFFCURVE",
"23 579 CURVE SMOOTH",
"23 553 OFFCURVE",
"15 522 OFFCURVE",
"-8 500 CURVE",
"9 480 LINE",
"60 513 OFFCURVE",
"108 570 OFFCURVE",
"108 617 CURVE SMOOTH",
"108 647 OFFCURVE",
"88 674 OFFCURVE",
"63 694 CURVE",
"-6 654 LINE"
);
}
);
width = 272;
}
);
unicode = 201D;
},
{
glyphname = quoteleft;
layers = (
{
associatedMasterId = "1BB6288A-6CCF-4A5F-A7E1-DC794ABD1039";
layerId = "C8563CC3-17B3-454B-B4EF-8E0393D5ADF7";
name = img;
width = 152;
},
{
layerId = "1BB6288A-6CCF-4A5F-A7E1-DC794ABD1039";
paths = (
{
closed = 1;
nodes = (
"118 543 LINE",
"101 560 OFFCURVE",
"89 584 OFFCURVE",
"89 604 CURVE SMOOTH",
"89 630 OFFCURVE",
"99 661 OFFCURVE",
"122 683 CURVE",
"105 703 LINE",
"54 670 OFFCURVE",
"-1 609 OFFCURVE",
"-1 562 CURVE SMOOTH",
"-1 532 OFFCURVE",
"20 505 OFFCURVE",
"45 485 CURVE",
"118 529 LINE"
);
}
);
width = 152;
}
);
unicode = 2018;
},
{
glyphname = quoteright;
layers = (
{
associatedMasterId = "1BB6288A-6CCF-4A5F-A7E1-DC794ABD1039";
layerId = "C8563CC3-17B3-454B-B4EF-8E0393D5ADF7";
name = img;
width = 164;
},
{
layerId = "1BB6288A-6CCF-4A5F-A7E1-DC794ABD1039";
paths = (
{
closed = 1;
nodes = (
"-6 640 LINE",
"11 623 OFFCURVE",
"23 599 OFFCURVE",
"23 579 CURVE SMOOTH",
"23 553 OFFCURVE",
"13 522 OFFCURVE",
"-10 500 CURVE",
"7 480 LINE",
"58 513 OFFCURVE",
"113 574 OFFCURVE",
"113 621 CURVE SMOOTH",
"113 651 OFFCURVE",
"92 678 OFFCURVE",
"67 698 CURVE",
"-6 654 LINE"
);
}
);
width = 164;
}
);
unicode = 2019;
},
{
glyphname = quotedbl;
layers = (
{
associatedMasterId = "1BB6288A-6CCF-4A5F-A7E1-DC794ABD1039";
layerId = "C8563CC3-17B3-454B-B4EF-8E0393D5ADF7";
name = img;
width = 290;
},
{
layerId = "1BB6288A-6CCF-4A5F-A7E1-DC794ABD1039";
paths = (
{
closed = 1;
nodes = (
"94 479 LINE",
"101 528 OFFCURVE",
"103 604 OFFCURVE",
"105 658 CURVE",
"25 689 LINE",
"7 681 LINE",
"9 618 OFFCURVE",
"15 538 OFFCURVE",
"24 494 CURVE",
"81 473 LINE"
);
},
{
closed = 1;
nodes = (
"219 479 LINE",
"226 528 OFFCURVE",
"230 604 OFFCURVE",
"232 658 CURVE",
"152 689 LINE",
"134 681 LINE",
"136 618 OFFCURVE",
"140 538 OFFCURVE",
"149 494 CURVE",
"206 473 LINE"
);
}
);
width = 290;
}
);
unicode = 0022;
},
{
glyphname = quotesingle;
layers = (
{
associatedMasterId = "1BB6288A-6CCF-4A5F-A7E1-DC794ABD1039";
layerId = "C8563CC3-17B3-454B-B4EF-8E0393D5ADF7";
name = img;
width = 166;
},
{
layerId = "1BB6288A-6CCF-4A5F-A7E1-DC794ABD1039";
paths = (
{
closed = 1;
nodes = (
"95 479 LINE",
"102 528 OFFCURVE",
"109 598 OFFCURVE",
"114 652 CURVE",
"26 689 LINE",
"8 681 LINE",
"10 618 OFFCURVE",
"15 538 OFFCURVE",
"24 494 CURVE",
"82 473 LINE"
);
}
);
width = 166;
}
);
unicode = 0027;
},
{
glyphname = Avagraha.dv;
layers = (
{
layerId = "1BB6288A-6CCF-4A5F-A7E1-DC794ABD1039";
paths = (
{
closed = 1;
nodes = (
"348 585 LINE",
"298 639 LINE",
"183 639 LINE SMOOTH",
"113 639 OFFCURVE",
"36 595 OFFCURVE",
"36 503 CURVE SMOOTH",
"36 380 OFFCURVE",
"275 300 OFFCURVE",
"275 206 CURVE SMOOTH",
"275 148 OFFCURVE",
"222 92 OFFCURVE",
"162 92 CURVE SMOOTH",
"113 92 OFFCURVE",
"71 118 OFFCURVE",
"25 220 CURVE",
"-2 203 LINE",
"33 101 OFFCURVE",
"126 10 OFFCURVE",
"213 10 CURVE SMOOTH",
"299 10 OFFCURVE",
"362 71 OFFCURVE",
"362 159 CURVE SMOOTH",
"362 265 OFFCURVE",
"241 315 OFFCURVE",
"173 376 CURVE SMOOTH",
"146 400 OFFCURVE",
"128 425 OFFCURVE",
"128 456 CURVE SMOOTH",
"128 523 OFFCURVE",
"185 567 OFFCURVE",
"254 567 CURVE SMOOTH",
"336 567 LINE"
);
}
);
width = 382;
}
);
unicode = 093D;
},
{
glyphname = Om.dv;
layers = (
{
layerId = "1BB6288A-6CCF-4A5F-A7E1-DC794ABD1039";
paths = (
{
closed = 1;
nodes = (
"302 490 LINE SMOOTH",
"302 526 OFFCURVE",
"319 553 OFFCURVE",
"338 567 CURVE",
"272 639 LINE",
"17 639 LINE",
"7 615 LINE",
"96 519 LINE",
"118 519 LINE",
"131 540 OFFCURVE",
"159 564 OFFCURVE",
"186 567 CURVE",
"231 567 LINE",
"216 552 OFFCURVE",
"207 526 OFFCURVE",
"207 497 CURVE SMOOTH",
"207 455 LINE SMOOTH",
"207 424 OFFCURVE",
"202 383 OFFCURVE",
"173 358 CURVE",
"170 359 OFFCURVE",
"166 359 OFFCURVE",
"163 359 CURVE SMOOTH",
"115 359 OFFCURVE",
"68 330 OFFCURVE",
"52 293 CURVE",
"150 222 LINE",
"170 252 OFFCURVE",
"206 277 OFFCURVE",
"242 277 CURVE SMOOTH",
"271 277 OFFCURVE",
"285 261 OFFCURVE",
"285 228 CURVE SMOOTH",
"285 166 OFFCURVE",
"241 103 OFFCURVE",
"171 103 CURVE SMOOTH",
"110 103 OFFCURVE",
"61 142 OFFCURVE",
"5 230 CURVE",
"-22 214 LINE",
"28 106 OFFCURVE",
"135 21 OFFCURVE",
"236 21 CURVE SMOOTH",
"325 21 OFFCURVE",
"379 84 OFFCURVE",
"379 154 CURVE SMOOTH",
"379 160 OFFCURVE",
"378 167 OFFCURVE",
"377 174 CURVE",
"438 324 OFFCURVE",
"506 432 OFFCURVE",
"537 432 CURVE SMOOTH",
"552 432 OFFCURVE",
"562 414 OFFCURVE",
"562 395 CURVE SMOOTH",
"562 262 OFFCURVE",
"458 145 OFFCURVE",
"458 119 CURVE SMOOTH",
"458 81 OFFCURVE",
"571 0 OFFCURVE",
"603 -19 CURVE",
"619 3 LINE",
"595 19 OFFCURVE",
"554 48 OFFCURVE",
"554 70 CURVE SMOOTH",
"554 87 OFFCURVE",
"657 216 OFFCURVE",
"657 340 CURVE SMOOTH",
"657 401 OFFCURVE",
"555 506 OFFCURVE",
"480 506 CURVE SMOOTH",
"417 506 OFFCURVE",
"361 403 OFFCURVE",
"308 284 CURVE",
"297 295 OFFCURVE",
"284 306 OFFCURVE",
"271 315 CURVE",
"295 343 OFFCURVE",
"302 383 OFFCURVE",
"302 422 CURVE"
);
},
{
closed = 1;
nodes = (
"320 646 LINE",
"379 564 OFFCURVE",
"457 540 OFFCURVE",
"507 540 CURVE SMOOTH",
"569 540 OFFCURVE",
"622 570 OFFCURVE",
"643 601 CURVE",
"567 659 LINE",
"546 632 OFFCURVE",
"494 606 OFFCURVE",
"443 606 CURVE SMOOTH",
"410 606 OFFCURVE",
"377 619 OFFCURVE",
"341 660 CURVE"
);
},
{
closed = 1;
nodes = (
"519 689 LINE",
"498 709 OFFCURVE",
"473 728 OFFCURVE",
"454 743 CURVE",
"429 734 OFFCURVE",
"395 721 OFFCURVE",
"375 706 CURVE",
"375 698 LINE",
"394 681 OFFCURVE",
"416 663 OFFCURVE",
"439 644 CURVE",
"459 657 OFFCURVE",
"496 673 OFFCURVE",
"519 681 CURVE"
);
}
);
width = 687;
}
);
unicode = 0950;
},
{
glyphname = copyright;
layers = (
{
layerId = "1BB6288A-6CCF-4A5F-A7E1-DC794ABD1039";
paths = (
{
closed = 1;
nodes = (
"28 133 OFFCURVE",
"170 0 OFFCURVE",
"353 0 CURVE SMOOTH",
"537 0 OFFCURVE",
"680 133 OFFCURVE",
"680 322 CURVE SMOOTH",
"680 512 OFFCURVE",
"537 646 OFFCURVE",
"353 646 CURVE SMOOTH",
"170 646 OFFCURVE",
"28 512 OFFCURVE",
"28 322 CURVE SMOOTH"
);
},
{
closed = 1;
nodes = (
"103 475 OFFCURVE",
"212 582 OFFCURVE",
"353 582 CURVE SMOOTH",
"495 582 OFFCURVE",
"605 475 OFFCURVE",
"605 322 CURVE SMOOTH",
"605 171 OFFCURVE",
"495 64 OFFCURVE",
"353 64 CURVE SMOOTH",
"212 64 OFFCURVE",
"103 171 OFFCURVE",
"103 322 CURVE SMOOTH"
);
},
{
closed = 1;
nodes = (
"488 410 LINE",
"458 455 OFFCURVE",
"417 486 OFFCURVE",
"366 486 CURVE SMOOTH",
"277 486 OFFCURVE",
"207 429 OFFCURVE",
"207 325 CURVE SMOOTH",
"207 238 OFFCURVE",
"294 156 OFFCURVE",
"388 156 CURVE SMOOTH",
"435 156 OFFCURVE",
"473 178 OFFCURVE",
"502 217 CURVE",
"445 277 LINE",
"425 253 OFFCURVE",
"379 223 OFFCURVE",
"350 223 CURVE SMOOTH",
"318 223 OFFCURVE",
"296 240 OFFCURVE",
"296 279 CURVE SMOOTH",
"296 354 OFFCURVE",
"343 411 OFFCURVE",
"404 411 CURVE SMOOTH",
"426 411 OFFCURVE",
"448 402 OFFCURVE",
"467 384 CURVE"
);
}
);
width = 732;
}
);
unicode = 00A9;
},
{
glyphname = registered;
layers = (
{
layerId = "1BB6288A-6CCF-4A5F-A7E1-DC794ABD1039";
paths = (
{
closed = 1;
nodes = (
"28 279 OFFCURVE",
"132 182 OFFCURVE",
"266 182 CURVE SMOOTH",
"402 182 OFFCURVE",
"506 279 OFFCURVE",
"506 418 CURVE SMOOTH",
"506 558 OFFCURVE",
"402 656 OFFCURVE",
"266 656 CURVE SMOOTH",
"132 656 OFFCURVE",
"28 558 OFFCURVE",
"28 418 CURVE SMOOTH"
);
},
{
closed = 1;
nodes = (
"88 528 OFFCURVE",
"166 604 OFFCURVE",
"266 604 CURVE SMOOTH",
"367 604 OFFCURVE",
"446 528 OFFCURVE",
"446 418 CURVE SMOOTH",
"446 310 OFFCURVE",
"367 234 OFFCURVE",
"266 234 CURVE SMOOTH",
"166 234 OFFCURVE",
"88 310 OFFCURVE",
"88 418 CURVE SMOOTH"
);
},
{
closed = 1;
nodes = (
"245 411 LINE",
"268 383 OFFCURVE",
"306 331 OFFCURVE",
"347 295 CURVE",
"380 329 LINE",
"315 390 LINE",
"351 397 OFFCURVE",
"374 421 OFFCURVE",
"374 452 CURVE SMOOTH",
"374 496 OFFCURVE",
"297 547 OFFCURVE",
"249 547 CURVE SMOOTH",
"227 547 OFFCURVE",
"196 543 OFFCURVE",
"176 536 CURVE SMOOTH",
"170 534 OFFCURVE",
"167 532 OFFCURVE",
"167 525 CURVE SMOOTH",
"167 325 LINE",
"222 299 LINE",
"232 303 LINE",
"232 495 LINE",
"241 498 OFFCURVE",
"254 501 OFFCURVE",
"272 501 CURVE SMOOTH",
"293 501 OFFCURVE",
"309 487 OFFCURVE",
"309 468 CURVE SMOOTH",
"309 448 OFFCURVE",
"293 431 OFFCURVE",
"253 431 CURVE"
);
}
);
width = 558;
}
);
unicode = 00AE;
},
{
glyphname = trademark;
layers = (
{
layerId = "1BB6288A-6CCF-4A5F-A7E1-DC794ABD1039";
paths = (
{
closed = 1;
nodes = (
"357 371 LINE",
"365 582 LINE",
"382 540 OFFCURVE",
"393 493 OFFCURVE",
"409 454 CURVE",
"463 429 LINE",
"476 435 LINE",
"498 497 OFFCURVE",
"507 529 OFFCURVE",
"522 564 CURVE",
"532 375 LINE",
"594 357 LINE",
"607 363 LINE",
"583 634 LINE",
"492 644 LINE",
"472 608 OFFCURVE",
"450 562 OFFCURVE",
"433 522 CURVE",
"414 573 OFFCURVE",
"395 614 OFFCURVE",
"381 636 CURVE",
"298 639 LINE",
"284 384 LINE",
"344 365 LINE"
);
},
{
closed = 1;
nodes = (
"190 374 LINE",
"190 581 LINE",
"274 581 LINE",
"276 589 LINE",
"248 639 LINE",
"22 639 LINE",
"17 628 LINE",
"42 581 LINE",
"118 581 LINE",
"118 391 LINE",
"176 367 LINE"
);
}
);
width = 663;
}
);
unicode = 2122;
},
{
glyphname = degree;
layers = (
{
layerId = "1BB6288A-6CCF-4A5F-A7E1-DC794ABD1039";
paths = (
{
closed = 1;
nodes = (
"38 706 OFFCURVE",
"-9 662 OFFCURVE",
"-9 598 CURVE SMOOTH",
"-9 528 OFFCURVE",
"107 452 OFFCURVE",
"166 452 CURVE SMOOTH",
"207 452 OFFCURVE",
"254 496 OFFCURVE",
"254 560 CURVE SMOOTH",
"254 630 OFFCURVE",
"138 706 OFFCURVE",
"79 706 CURVE SMOOTH"
);
},
{
closed = 1;
nodes = (
"162 644 OFFCURVE",
"169 630 OFFCURVE",
"169 610 CURVE SMOOTH",
"169 546 OFFCURVE",
"129 514 OFFCURVE",
"101 514 CURVE",
"83 514 OFFCURVE",
"76 528 OFFCURVE",
"76 548 CURVE SMOOTH",
"76 612 OFFCURVE",
"116 644 OFFCURVE",
"144 644 CURVE SMOOTH"
);
}
);
width = 280;
}
);
unicode = 00B0;
},
{
glyphname = bar;
layers = (
{
layerId = "1BB6288A-6CCF-4A5F-A7E1-DC794ABD1039";
paths = (
{
closed = 1;
nodes = (
"75 744 LINE",
"75 -78 LINE",
"149 -110 LINE",
"165 -99 LINE",
"165 723 LINE",
"91 755 LINE"
);
}
);
width = 245;
}
);
unicode = 007C;
},
{
glyphname = Euro;
layers = (
{
layerId = "1BB6288A-6CCF-4A5F-A7E1-DC794ABD1039";
paths = (
{
closed = 1;
nodes = (
"29 452 LINE",
"25 440 LINE",
"73 374 LINE",
"142 374 LINE",
"142 300 LINE",
"29 300 LINE",
"25 288 LINE",
"73 222 LINE",
"142 222 LINE",
"142 204 LINE SMOOTH",
"142 123 OFFCURVE",
"294 15 OFFCURVE",
"383 15 CURVE SMOOTH",
"449 15 OFFCURVE",
"507 58 OFFCURVE",
"527 119 CURVE",
"439 168 LINE",
"417 121 OFFCURVE",
"362 91 OFFCURVE",
"311 91 CURVE SMOOTH",
"249 91 OFFCURVE",
"240 116 OFFCURVE",
"240 154 CURVE SMOOTH",
"240 222 LINE",
"415 222 LINE",
"419 235 LINE",
"371 300 LINE",
"240 300 LINE",
"240 374 LINE",
"415 374 LINE",
"419 386 LINE",
"371 452 LINE",
"240 452 LINE",
"240 471 LINE SMOOTH",
"240 536 OFFCURVE",
"300 578 OFFCURVE",
"360 578 CURVE SMOOTH",
"406 578 OFFCURVE",
"442 556 OFFCURVE",
"476 523 CURVE",
"498 546 LINE",
"444 597 OFFCURVE",
"374 654 OFFCURVE",
"288 654 CURVE SMOOTH",
"214 654 OFFCURVE",
"142 595 OFFCURVE",
"142 510 CURVE SMOOTH",
"142 452 LINE"
);
}
);
width = 542;
}
);
unicode = 20AC;
},
{
glyphname = currency;
layers = (
{
layerId = "1BB6288A-6CCF-4A5F-A7E1-DC794ABD1039";
paths = (
{
closed = 1;
nodes = (
"480 343 OFFCURVE",
"467 378 OFFCURVE",
"447 409 CURVE",
"548 513 LINE",
"469 580 LINE",
"374 482 LINE",
"335 508 OFFCURVE",
"290 524 OFFCURVE",
"248 524 CURVE SMOOTH",
"208 524 OFFCURVE",
"171 509 OFFCURVE",
"142 483 CURVE",
"48 578 LINE",
"20 548 LINE",
"115 452 LINE",
"93 421 OFFCURVE",
"80 383 OFFCURVE",
"80 341 CURVE SMOOTH",
"80 302 OFFCURVE",
"94 265 OFFCURVE",
"116 233 CURVE",
"22 135 LINE",
"101 68 LINE",
"191 162 LINE",
"229 138 OFFCURVE",
"271 124 OFFCURVE",
"312 124 CURVE SMOOTH",
"354 124 OFFCURVE",
"393 141 OFFCURVE",
"422 169 CURVE",
"522 70 LINE",
"550 100 LINE",
"449 201 LINE",
"468 231 OFFCURVE",
"480 267 OFFCURVE",
"480 307 CURVE SMOOTH"
);
},
{
closed = 1;
nodes = (
"391 260 OFFCURVE",
"332 192 OFFCURVE",
"255 192 CURVE SMOOTH",
"202 192 OFFCURVE",
"170 234 OFFCURVE",
"170 286 CURVE SMOOTH",
"170 390 OFFCURVE",
"229 456 OFFCURVE",
"305 456 CURVE SMOOTH",
"358 456 OFFCURVE",
"391 415 OFFCURVE",
"391 364 CURVE SMOOTH"
);
}
);
width = 570;
}
);
unicode = 00A4;
},
{
glyphname = dollar;
layers = (
{
layerId = "1BB6288A-6CCF-4A5F-A7E1-DC794ABD1039";
paths = (
{
closed = 1;
nodes = (
"428 285 OFFCURVE",
"319 406 OFFCURVE",
"270 406 CURVE SMOOTH",
"256 406 OFFCURVE",
"161 386 OFFCURVE",
"152 386 CURVE SMOOTH",
"137 386 OFFCURVE",
"136 409 OFFCURVE",
"136 430 CURVE SMOOTH",
"136 502 OFFCURVE",
"188 546 OFFCURVE",
"259 546 CURVE SMOOTH",
"299 546 OFFCURVE",
"336 531 OFFCURVE",
"376 480 CURVE",
"403 497 LINE",
"379 548 OFFCURVE",
"327 594 OFFCURVE",
"270 616 CURVE",
"270 678 LINE",
"186 718 LINE",
"173 714 LINE",
"173 628 LINE",
"102 618 OFFCURVE",
"41 562 OFFCURVE",
"41 486 CURVE SMOOTH",
"41 406 OFFCURVE",
"138 283 OFFCURVE",
"189 283 CURVE",
"311 303 LINE",
"324 303 OFFCURVE",
"333 281 OFFCURVE",
"333 248 CURVE SMOOTH",
"333 150 OFFCURVE",
"275 110 OFFCURVE",
"210 110 CURVE SMOOTH",
"168 110 OFFCURVE",
"113 133 OFFCURVE",
"73 216 CURVE",
"46 199 LINE",
"70 132 OFFCURVE",
"123 71 OFFCURVE",
"183 42 CURVE",
"183 -28 LINE",
"267 -68 LINE",
"280 -64 LINE",
"280 28 LINE",
"355 41 OFFCURVE",
"428 102 OFFCURVE",
"428 193 CURVE SMOOTH"
);
}
);
width = 461;
}
);
unicode = 0024;
},
{
glyphname = sterling;
layers = (
{
associatedMasterId = "1BB6288A-6CCF-4A5F-A7E1-DC794ABD1039";
layerId = "C8563CC3-17B3-454B-B4EF-8E0393D5ADF7";
name = img;
width = 485;
},
{
layerId = "1BB6288A-6CCF-4A5F-A7E1-DC794ABD1039";
paths = (
{
closed = 1;
nodes = (
"403 508 LINE",
"453 560 LINE",
"381 639 LINE",
"293 639 LINE SMOOTH",
"201 639 OFFCURVE",
"128 582 OFFCURVE",
"128 474 CURVE SMOOTH",
"128 368 LINE",
"44 368 LINE",
"40 355 LINE",
"90 286 LINE",
"128 286 LINE",
"128 221 LINE",
"124 149 OFFCURVE",
"109 131 OFFCURVE",
"70 104 CURVE",
"66 91 LINE",
"113 25 LINE",
"138 29 OFFCURVE",
"153 31 OFFCURVE",
"178 31 CURVE SMOOTH",
"241 31 OFFCURVE",
"315 21 OFFCURVE",
"367 21 CURVE SMOOTH",
"423 21 OFFCURVE",
"468 50 OFFCURVE",
"490 102 CURVE",
"424 159 LINE",
"403 119 OFFCURVE",
"373 103 OFFCURVE",
"328 103 CURVE SMOOTH",
"291 103 OFFCURVE",
"239 109 OFFCURVE",
"197 111 CURVE",
"218 131 OFFCURVE",
"227 156 OFFCURVE",
"227 185 CURVE SMOOTH",
"227 286 LINE",
"408 286 LINE",
"412 299 LINE",
"362 368 LINE",
"227 368 LINE",
"227 440 LINE SMOOTH",
"227 522 OFFCURVE",
"263 558 OFFCURVE",
"313 564 CURVE",
"337 552 OFFCURVE",
"358 530 OFFCURVE",
"379 508 CURVE"
);
}
);
width = 485;
}
);
unicode = 00A3;
},
{
glyphname = uni20A8;
layers = (
{
layerId = "1BB6288A-6CCF-4A5F-A7E1-DC794ABD1039";
paths = (
{
closed = 1;
nodes = (
"356 22 LINE",
"309 55 OFFCURVE",
"202 170 OFFCURVE",
"202 192 CURVE SMOOTH",
"202 197 OFFCURVE",
"336 233 OFFCURVE",
"336 363 CURVE SMOOTH",
"336 391 LINE",
"475 391 LINE",
"479 404 LINE",
"432 470 LINE",
"336 470 LINE",
"336 560 LINE",
"472 560 LINE",
"476 573 LINE",
"429 639 LINE",
"50 639 LINE",
"46 626 LINE",
"93 560 LINE",
"240 560 LINE",
"240 470 LINE",
"46 470 LINE",
"42 457 LINE",
"89 391 LINE",
"238 391 LINE",
"226 322 OFFCURVE",
"166 304 OFFCURVE",
"129 294 CURVE",
"108 287 OFFCURVE",
"94 275 OFFCURVE",
"94 257 CURVE SMOOTH",
"94 233 OFFCURVE",
"110 212 OFFCURVE",
"123 195 CURVE SMOOTH",
"175 127 OFFCURVE",
"268 34 OFFCURVE",
"332 -8 CURVE"
);
}
);
width = 511;
}
);
unicode = 20A8;
},
{
glyphname = yen;
layers = (
{
layerId = "1BB6288A-6CCF-4A5F-A7E1-DC794ABD1039";
paths = (
{
closed = 1;
nodes = (
"42 212 LINE",
"38 199 LINE",
"88 130 LINE",
"197 130 LINE",
"197 49 LINE",
"276 14 LINE",
"292 25 LINE",
"292 130 LINE",
"456 130 LINE",
"460 143 LINE",
"410 212 LINE",
"292 212 LINE",
"292 283 LINE",
"456 283 LINE",
"460 296 LINE",
"410 365 LINE",
"342 365 LINE",
"460 543 LINE",
"366 606 LINE",
"230 362 LINE",
"81 599 LINE",
"35 573 LINE",
"173 365 LINE",
"42 365 LINE",
"38 352 LINE",
"88 283 LINE",
"197 283 LINE",
"197 212 LINE"
);
}
);
width = 515;
}
);
unicode = 00A5;
},
{
glyphname = plus;
layers = (
{
associatedMasterId = "1BB6288A-6CCF-4A5F-A7E1-DC794ABD1039";
layerId = "C8563CC3-17B3-454B-B4EF-8E0393D5ADF7";
name = img;
width = 460;
},
{
layerId = "1BB6288A-6CCF-4A5F-A7E1-DC794ABD1039";
paths = (
{
closed = 1;
nodes = (
"165 132 LINE",
"249 92 LINE",
"262 96 LINE",
"262 267 LINE",
"423 267 LINE",
"427 280 LINE",
"377 349 LINE",
"262 349 LINE",
"262 484 LINE",
"178 524 LINE",
"165 520 LINE",
"165 349 LINE",
"9 349 LINE",
"5 336 LINE",
"55 267 LINE",
"165 267 LINE"
);
}
);
width = 460;
}
);
unicode = 002B;
},
{
glyphname = minus;
layers = (
{
layerId = "1BB6288A-6CCF-4A5F-A7E1-DC794ABD1039";
paths = (
{
closed = 1;
nodes = (
"9 359 LINE",
"5 346 LINE",
"55 277 LINE",
"383 277 LINE",
"387 290 LINE",
"337 359 LINE"
);
}
);
width = 420;
}
);
unicode = 2212;
},
{
glyphname = multiply;
layers = (
{
associatedMasterId = "1BB6288A-6CCF-4A5F-A7E1-DC794ABD1039";
layerId = "C8563CC3-17B3-454B-B4EF-8E0393D5ADF7";
name = img;
width = 427;
},
{
layerId = "1BB6288A-6CCF-4A5F-A7E1-DC794ABD1039";
paths = (
{
closed = 1;
nodes = (
"25 458 LINE",
"148 324 LINE",
"10 180 LINE",
"89 113 LINE",
"222 252 LINE",
"347 112 LINE",
"375 142 LINE",
"253 280 LINE",
"382 424 LINE",
"303 491 LINE",
"178 351 LINE",
"53 488 LINE"
);
}
);
width = 427;
}
);
unicode = 00D7;
},
{
glyphname = divide;
layers = (
{
layerId = "1BB6288A-6CCF-4A5F-A7E1-DC794ABD1039";
paths = (
{
closed = 1;
nodes = (
"9 349 LINE",
"5 336 LINE",
"55 267 LINE",
"423 267 LINE",
"427 280 LINE",
"377 349 LINE"
);
},
{
closed = 1;
nodes = (
"296 459 LINE",
"273 480 OFFCURVE",
"248 504 OFFCURVE",
"225 524 CURVE",
"139 474 LINE",
"139 464 LINE",
"162 444 OFFCURVE",
"187 420 OFFCURVE",
"210 399 CURVE",
"296 450 LINE"
);
},
{
closed = 1;
nodes = (
"292 151 LINE",
"269 172 OFFCURVE",
"244 196 OFFCURVE",
"221 216 CURVE",
"135 166 LINE",
"135 156 LINE",
"158 136 OFFCURVE",
"183 112 OFFCURVE",
"206 91 CURVE",
"292 142 LINE"
);
}
);
width = 460;
}
);
unicode = 00F7;
},
